<?xml version="1.0" encoding="UTF-8" standalone="no"?>
<svg
   data-name="Layer 1"
   width="990.32"
   height="727.03"
   viewBox="0 0 990.32 727.03"
   version="1.1"
   id="svg459"
   sodipodi:docname="car.svg"
   inkscape:version="1.1.1 (3bf5ae0d25, 2021-09-20)"
   xmlns:inkscape="http://www.inkscape.org/namespaces/inkscape"
   xmlns:sodipodi="http://sodipodi.sourceforge.net/DTD/sodipodi-0.dtd"
   xmlns="http://www.w3.org/2000/svg"
   xmlns:svg="http://www.w3.org/2000/svg"
   xmlns:rdf="http://www.w3.org/1999/02/22-rdf-syntax-ns#"
   xmlns:cc="http://creativecommons.org/ns#"
   xmlns:dc="http://purl.org/dc/elements/1.1/">
  <sodipodi:namedview
     id="namedview461"
     pagecolor="#ffffff"
     bordercolor="#666666"
     borderopacity="1.0"
     inkscape:pageshadow="2"
     inkscape:pageopacity="0.0"
     inkscape:pagecheckerboard="0"
     showgrid="false"
     inkscape:zoom="0.96694768"
     inkscape:cx="494.85614"
     inkscape:cy="363.51501"
     inkscape:window-width="1280"
     inkscape:window-height="953"
     inkscape:window-x="-8"
     inkscape:window-y="-8"
     inkscape:window-maximized="1"
     inkscape:current-layer="svg459" />
  <defs
     id="defs243">
    <linearGradient
       id="acc8b6a5-9f39-4130-a42e-d6ce30e2b206-259"
       x1="654.16"
       y1="770.88"
       x2="654.16"
       y2="513.71"
       gradientUnits="userSpaceOnUse"
       gradientTransform="matrix(0.75773,0,0,0.75773,-79.442063,-65.54136)">
      <stop
         offset="0"
         stop-color="gray"
         stop-opacity="0.25"
         id="stop236" />
      <stop
         offset="0.54"
         stop-color="gray"
         stop-opacity="0.12"
         id="stop238" />
      <stop
         offset="1"
         stop-color="gray"
         stop-opacity="0.1"
         id="stop240" />
    </linearGradient>
  </defs>
  <title
     id="title245">by_my_car</title>
  <path
     d="m 54.266972,221.05486 c 15.791093,35.66635 -4.356947,76.75047 -28.03601,107.71889 -7.94101,10.36575 -16.6700595,21.21644 -17.7839226,34.26455 -1.3260275,15.91233 9.4488926,30.5441 22.2393756,40.10665 23.315352,17.42779 55.170321,22.81525 82.918395,14.02558 23.98215,-7.5773 44.14535,-24.75504 68.33209,-31.68069 40.47794,-11.58569 83.3503,7.62277 117.98614,31.5443 24.51256,16.92769 50.76791,37.50764 80.31938,33.89327 20.80726,-2.54598 38.46237,-17.14743 50.4345,-34.34791 5.78148,-8.33503 10.81281,-17.60206 19.23877,-23.20927 5.00859,-3.33401 10.88858,-5.09952 16.77614,-6.35735 53.72306,-11.47961 110.72709,16.54125 163.73788,2.12922 35.80274,-9.73683 64.354,-38.03804 82.10004,-70.61286 17.74604,-32.57481 26.0356,-69.37018 32.93852,-105.82457 4.90252,-25.90679 8.97153,-53.85945 -2.27319,-77.69763 -11.92667,-25.21726 -39.53077,-40.50067 -67.27126,-43.357312 -27.7405,-2.856643 -55.57192,5.061636 -81.13016,16.230572 -31.93831,13.96497 -63.24014,33.5144 -98.1033,33.5826 -23.73968,0.0455 -46.37307,-9.09276 -69.07466,-16.01084 -38.0229,-11.616 -77.42486,-17.3899 -116.77377,-22.71674 -37.65161,-5.099525 -75.66692,-9.850493 -113.54584,-6.819573 -26.80091,2.129222 -50.46482,12.373733 -76.47011,17.109543 -16.95042,3.09154 -33.984195,0.75773 -50.616369,5.99365 -20.45871,6.40281 -41.553913,21.2619 -42.68293,44.63787 -1.0684,22.22422 18.359797,38.46237 26.740291,57.39805 z"
     fill="#03bcff"
     opacity="0.1"
     id="path247"
     style="stroke-width:0.75773" />
  <g
     opacity="0.5"
     id="g263"
     transform="matrix(0.75773,0,0,0.75773,-0.00165005,-0.01287001)">
    <path
       d="m 802.73,269.64 c -5,1.44 -11.21,5.16 -14.25,15.37 -6,20 7.88,33.68 3.33,54.45 a 40.61,40.61 0 0 1 -7,15.27 c -5.57,7.55 -11.63,11.13 -17.49,16.42 a 52.18,52.18 0 0 0 -15.37,25.24 69.86,69.86 0 0 0 -0.69,32.81 c 2.09,9.06 5.65,15.65 8.75,23 a 169.86,169.86 0 0 1 9,29 70.52,70.52 0 0 1 2,14.71 c 0.1,6.23 -0.87,13 -1.82,19.68 l -8.47,59.11 c -1.13,7.87 -2.27,15.87 -2.31,23.36 -0.06,8.65 1.33,16.08 2.71,23.33 3,15.64 6.17,31.87 13,40.12 6.83,8.25 18.41,5.39 25.54,-11.45 6.78,-16 6.92,-37.4 12.9,-54.52 9.42,-27 28.16,-30.6 38.55,-56.33 10,-24.68 6.92,-55 12,-83.12 3.62,-20.17 11.33,-38.57 15.9,-58.5 6.57,-28.71 5.92,-58.51 0.67,-80.57 -5.25,-22.06 -14.67,-37.21 -25.07,-48.7 -4.41,-4.87 -9.12,-9.2 -14.66,-9.63 -5.89,-0.45 -11,7 -16.85,9.19 -6.78,2.53 -13.54,-0.18 -20.37,1.76 z"
       transform="translate(-104.84,-86.48)"
       fill="#03bcff"
       id="path249" />
    <path
       d="m 834.62,260.09 c 0,0 -10,255.28 -51.93,405.82"
       transform="translate(-104.84,-86.48)"
       fill="none"
       stroke="#535461"
       stroke-miterlimit="10"
       stroke-width="2"
       id="path251" />
    <path
       d="m 788.22,286.26 c 0,0 44.78,40.81 36.33,118.57"
       transform="translate(-104.84,-86.48)"
       fill="none"
       stroke="#535461"
       stroke-miterlimit="10"
       stroke-width="2"
       id="path253" />
    <path
       d="m 750.6,402.38 c 0,0 73.6,14.8 68.14,58.82"
       transform="translate(-104.84,-86.48)"
       fill="none"
       stroke="#535461"
       stroke-miterlimit="10"
       stroke-width="2"
       id="path255" />
    <path
       d="m 879.77,316.41 c 0,0 -29.77,26.07 -56.31,99.91"
       transform="translate(-104.84,-86.48)"
       fill="none"
       stroke="#535461"
       stroke-miterlimit="10"
       stroke-width="2"
       id="path257" />
    <path
       d="m 850.66,539.58 c 0,0 -20.32,16 -36.63,-39.81"
       transform="translate(-104.84,-86.48)"
       fill="none"
       stroke="#535461"
       stroke-miterlimit="10"
       stroke-width="2"
       id="path259" />
    <path
       d="m 763,572.13 c 0,0 41.44,-5.41 45.26,-31.37"
       transform="translate(-104.84,-86.48)"
       fill="none"
       stroke="#535461"
       stroke-miterlimit="10"
       stroke-width="2"
       id="path261" />
  </g>
  <path
     d="m 604.71235,9.0344261 c -7.77431,1.1517499 -17.1247,4.7509669 -20.96639,15.8668659 -7.53941,21.792315 15.3895,38.288097 10.10812,61.057883 -1.58366,6.81957 -5.48597,12.366154 -9.60044,16.412435 -8.06225,7.92585 -17.23836,11.36595 -25.95225,16.74583 -8.7139,5.37988 -17.76119,13.821 -21.84536,26.78576 -3.93262,12.47223 -2.22772,26.25534 1.85644,36.55289 4.08417,10.29755 10.26724,17.97336 15.79109,26.44478 a 179.15768,179.15768 0 0 1 16.78372,33.12038 c 1.97768,5.09952 3.78865,10.4794 4.43272,16.5867 0.71227,6.96354 -0.18943,14.45749 -1.08355,21.79232 l -7.97132,65.16478 c -1.06082,8.67601 -2.12922,17.50356 -1.51546,25.86132 0.68953,9.64591 3.5386,18.05671 6.34978,26.2705 6.06184,17.71573 12.54801,36.12099 23.967,45.9336 11.41899,9.8126 29.36203,7.66822 39.01551,-10.48699 9.19127,-17.28382 7.50153,-41.11443 15.33646,-59.67881 12.351,-29.25596 41.40994,-31.62008 55.39006,-59.39088 13.4194,-26.64179 5.9103,-60.72448 11.29776,-91.68533 3.86442,-22.18633 14.31352,-42.01613 19.70098,-63.84633 7.72884,-31.45337 4.0387,-64.755604 -6.19066,-89.844044 C 719.38721,43.609646 703.26271,25.856032 685.92585,12.103233 678.57587,6.276289 670.77125,1.0100655 662.07251,0.04017109 652.7979,-0.9903417 645.40245,6.8142773 636.46881,8.7767979 626.08791,11.103029 615.25237,7.4735024 604.71235,9.0344261 Z"
     fill="#03bcff"
     id="path265"
     style="stroke-width:0.75773" />
  <path
     d="m 653.85872,1.2298072 c 0,0 7.31209,283.9668928 -44.97885,448.1745628"
     fill="none"
     stroke="#535461"
     stroke-miterlimit="10"
     stroke-width="1.51546"
     id="path267" />
  <path
     d="m 583.44287,26.265206 c 0,0 73.9696,49.570697 67.63498,135.573054"
     fill="none"
     stroke="#535461"
     stroke-miterlimit="10"
     stroke-width="1.51546"
     id="path269" />
  <path
     d="m 534.88753,152.46514 c 0,0 116.75104,23.12592 112.14404,71.74945"
     fill="none"
     stroke="#535461"
     stroke-miterlimit="10"
     stroke-width="1.51546"
     id="path271" />
  <path
     d="m 729.72265,68.137366 c 0,0 -44.37267,26.414467 -79.32676,106.423174"
     fill="none"
     stroke="#535461"
     stroke-miterlimit="10"
     stroke-width="1.51546"
     id="path273" />
  <path
     d="m 704.12653,314.54358 c 0,0 -30.43044,16.01842 -61.02,-47.73699"
     fill="none"
     stroke="#535461"
     stroke-miterlimit="10"
     stroke-width="1.51546"
     id="path275" />
  <path
     d="m 569.53095,342.99634 c 0,0 64.50555,-2.31865 68.1957,-30.93053"
     fill="none"
     stroke="#535461"
     stroke-miterlimit="10"
     stroke-width="1.51546"
     id="path277" />
  <ellipse
     cx="369.92972"
     cy="443.03946"
     rx="324.05841"
     ry="31.12755"
     fill="#03bcff"
     opacity="0.1"
     id="ellipse279"
     style="stroke-width:0.75773" />
  <path
     d="m 50.955692,405.98644 c 0,0 6.349778,8.33503 -2.932415,20.83757 -9.282192,12.50255 -16.935265,23.12592 -13.80584,30.93812 0,0 14.00285,-23.28504 25.399109,-23.61087 11.396259,-0.32582 3.879578,-14.16197 -8.660854,-28.16482 z"
     fill="#03bcff"
     id="path281"
     style="stroke-width:0.75773" />
  <path
     d="m 50.955692,405.98644 a 10.282396,10.282396 0 0 1 1.295718,2.60659 c 11.123477,13.06327 17.041348,25.25514 6.357355,25.56581 -9.956572,0.28794 -21.898397,18.08702 -24.762616,22.58793 a 9.6534801,9.6534801 0 0 0 0.340978,1.02294 c 0,0 14.002851,-23.28505 25.39911,-23.61087 11.396259,-0.32582 3.909887,-14.16955 -8.630545,-28.1724 z"
     opacity="0.1"
     id="path283"
     style="stroke-width:0.75773" />
  <path
     d="m 62.761125,416.57193 c 0,2.92483 -0.325823,5.30411 -0.75773,5.30411 -0.431906,0 -0.757729,-2.3717 -0.757729,-5.30411 0,-2.93242 0.409174,-1.51546 0.810771,-1.51546 0.401596,0 0.704688,-1.40938 0.704688,1.51546 z"
     fill="#ffd037"
     id="path285"
     style="stroke-width:0.75773" />
  <path
     d="m 66.799826,420.05749 c -2.568704,1.4018 -4.804008,2.27319 -4.99344,1.88674 -0.189433,-0.38644 1.727624,-1.78066 4.296329,-3.17489 2.568704,-1.39422 1.553346,-0.37886 1.750356,0 0.19701,0.37887 1.523037,-0.12123 -1.053245,1.28815 z"
     fill="#ffd037"
     id="path287"
     style="stroke-width:0.75773" />
  <path
     d="m 17.410985,405.98644 c 0,0 -6.349777,8.33503 2.932415,20.83757 9.282193,12.50255 16.904957,23.12592 13.874037,30.93812 0,0 -14.002851,-23.28504 -25.3991099,-23.61087 -11.3962591,-0.32582 -3.940196,-14.16197 8.5926579,-28.16482 z"
     fill="#03bcff"
     id="path289"
     style="stroke-width:0.75773" />
  <path
     d="m 17.410985,405.98644 a 10.282396,10.282396 0 0 0 -1.295718,2.60659 c -11.1234764,13.06327 -17.04134765,25.25514 -6.3573547,25.56581 9.9565717,0.28794 21.8983967,18.08702 24.7626167,22.58793 a 9.6534801,9.6534801 0 0 1 -0.340979,1.02294 c 0,0 -14.00285,-23.28505 -25.3991094,-23.61087 -11.3962591,-0.32582 -3.9023095,-14.16955 8.6305444,-28.1724 z"
     opacity="0.1"
     id="path291"
     style="stroke-width:0.75773" />
  <path
     d="m 5.6131292,416.57193 c 0,2.92483 0.3258239,5.30411 0.75773,5.30411 0.4319061,0 0.75773,-2.3717 0.75773,-5.30411 0,-2.93242 -0.4091742,-1.51546 -0.8107711,-1.51546 -0.4015969,0 -0.7046889,-1.40938 -0.7046889,1.51546 z"
     fill="#ffd037"
     id="path293"
     style="stroke-width:0.75773" />
  <path
     d="m 1.5592737,420.05749 c 2.5687047,1.4018 4.8040082,2.27319 4.9934407,1.88674 0.1894325,-0.38644 -1.7276244,-1.78066 -4.2963291,-3.17489 -2.56870465,-1.39422 -1.55334646,-0.37886 -1.75035626,0 -0.19700979,0.37887 -1.51545994,-0.12123 1.05324466,1.28815 z"
     fill="#ffd037"
     id="path295"
     style="stroke-width:0.75773" />
  <path
     d="m 7.628691,456.67858 c 0,0 17.753614,-0.54557 23.103188,-4.35695 5.349573,-3.81138 27.278279,-8.33503 28.634616,-2.27319 1.356337,6.06184 26.679673,30.39255 6.637715,30.55167 -20.041959,0.15912 -46.570086,-3.12185 -51.912082,-6.37251 -5.3419966,-3.25066 -6.463437,-17.54902 -6.463437,-17.54902 z"
     fill="#a8a8a8"
     id="path297"
     style="stroke-width:0.75773" />
  <path
     d="M 66.36792,478.50878 C 46.325962,478.6679 19.797835,475.38693 14.455838,472.13627 10.386828,469.65849 8.765286,460.77032 8.2272977,456.671 H 7.6362683 c 0,0 1.1214404,14.3211 6.4634367,17.57176 5.341997,3.25066 31.870124,6.53921 51.942391,6.38008 5.789058,-0.0455 7.781887,-2.10649 7.675805,-5.15256 -0.856235,1.84128 -3.046074,2.99303 -7.349981,3.0385 z"
     opacity="0.2"
     id="path299"
     style="stroke-width:0.75773" />
  <path
     d="m 238.70603,341.68547 c 0,0 88.84384,-56.76155 150.26544,-56.76155 0,0 73.94687,-11.5175 154.37991,7.94859 80.43303,19.46608 110.14363,44.70606 132.44362,37.29547 l -93.68574,2.74298 z"
     fill="#8cd0f3"
     id="path301"
     style="stroke-width:0.75773" />
  <path
     d="m 238.70603,341.68547 c 0,0 88.84384,-56.76155 150.26544,-56.76155 0,0 73.94687,-11.5175 154.37991,7.94859 80.43303,19.46608 110.14363,44.70606 132.44362,37.29547 l -93.68574,2.74298 z"
     fill="#8cd0f3"
     opacity="0.1"
     id="path303"
     style="stroke-width:0.75773" />
  <polygon
     points="152.6,565.6 172.26,486.83 293.86,454.5 867.68,469.58 867.68,565.6 "
     fill="#121c3f"
     id="polygon305"
     transform="matrix(0.75773,0,0,0.75773,-0.00165005,-0.01287001)" />
  <path
     d="m 685.98647,391.26375 v 19.04933 c 0,0 -16.08661,11.66904 -17.54903,20.80726 0,0 -23.03499,5.84968 -29.61209,5.84968 -0.5986,0 -1.25025,0 -1.93221,0.0682 a 54.692951,54.692951 0 0 0 2.40201,-8.47899 55.844701,55.844701 0 1 0 -109.53745,0 55.746196,55.746196 0 0 0 3.55375,11.36595 h -31.23363 c 0,0 -0.28793,0.0985 -0.75773,0.30309 -1.67458,0.75773 -5.62235,2.75813 -6.19065,5.90271 H 236.28129 l -5.30411,-0.0455 a 54.753569,54.753569 0 0 0 3.03092,-5.86483 54.109499,54.109499 0 0 0 3.68257,-11.64631 55.890164,55.890164 0 1 0 -110.68162,-10.98708 56.375112,56.375112 0 0 0 1.07598,10.96435 55.715887,55.715887 0 0 0 6.62256,17.35202 c -3.69772,-0.9017 -11.76755,-3.46283 -11.76755,-3.46283 0,0 -34.363054,-3.65226 -43.137567,-11.36595 l 1.326028,-0.91685 5.622356,-3.8417 -2.561127,-9.85049 A 6.06184,6.06184 0 0 1 83.432,415.11709 c -0.681957,-1.64428 -1.280564,-4.69793 1.129017,-8.53204 3.652259,-5.84968 1.82613,-26.68725 1.82613,-26.68725 0,0 49.722243,-34.36306 147.704303,-42.04644 0,0 2.34139,1.81855 7.17571,2.19741 3.27339,0.26521 7.69096,-0.13639 13.30574,-2.19741 0,0 8.03951,3.65226 42.43288,-16.08661 0,0 58.50433,-40.22031 135.28511,-36.5529 0,0 78.97062,-4.75854 146.24189,21.21644 28.99075,11.1841 51.04827,17.14743 66.77117,20.29959 14.5181,2.91726 23.63359,3.45525 27.80869,3.50071 h 0.0909 c 1.36392,0 2.17469,0 2.46263,0 h 0.12123 c 0,0 0,8.70632 0.46222,18.98872 v 0.053 c 0.1667,3.57648 0.39402,7.3424 0.71227,11.00224 v 0.22732 c 0.87896,10.19147 2.39442,19.45093 5.02375,21.28463 z"
     fill="#2856b8"
     id="path307"
     style="stroke-width:0.75773" />
  <path
     d="m 94.290271,379.06429 c 0,0 22.027209,-17.18531 49.449459,-13.52548 0,0 -24.95205,19.74645 -36.19676,18.46588 l -1.91706,-1.64427 -11.365949,0.63649 c 0,0 -1.697315,-2.65205 0.03031,-3.93262 z"
     fill="#8cd0f3"
     id="path309"
     style="stroke-width:0.75773" />
  <path
     d="m 115.67341,408.79762 v 10.146 c 0,0 -0.75773,9.69137 -9.50951,10.05508 l -25.00509,1.2351 5.614779,-3.84169 -2.561127,-9.85049 a 5.8572529,5.8572529 0 0 1 -0.75773,-1.34118 c 2.27319,-2.09134 7.630341,-5.62236 18.526498,-6.38009 z"
     fill="#ffffff"
     opacity="0.2"
     id="path311"
     style="stroke-width:0.75773" />
  <path
     d="m 232.03043,366.27381 19.1933,-0.75773 c 0,0 -7.76673,6.12246 -13.2527,6.6756 -5.48596,0.55314 -5.9406,-5.91787 -5.9406,-5.91787 z"
     fill="#ffffff"
     opacity="0.2"
     id="path313"
     style="stroke-width:0.75773" />
  <path
     d="m 272.43259,424.49778 c 0,0 173.57321,-24.1337 215.52872,-16.45789 0,0 12.33585,0.82592 17.00346,5.75875 4.66762,4.93282 0,1.7352 0,1.7352 z"
     fill="#ffffff"
     opacity="0.2"
     id="path315"
     style="stroke-width:0.75773" />
  <path
     d="m 369.59631,356.7643 c 0,0 2.19742,-4.11448 5.75875,-4.2054 l 23.12592,-1.18964 c 0,0 -0.36371,3.19762 -4.47819,4.38726 z"
     fill="#18218a"
     opacity="0.5"
     id="path317"
     style="stroke-width:0.75773" />
  <path
     d="m 503.41143,349.81591 c 0,0 2.19741,-4.11447 5.75875,-4.2054 l 23.12591,-1.21994 c 0,0 -0.36371,3.19762 -4.47818,4.38725 z"
     fill="#18218a"
     opacity="0.5"
     id="path319"
     style="stroke-width:0.75773" />
  <path
     d="m 424.44838,293.4408 -17.74603,46.53978 -63.98272,0.0682 H 326.24658 311.9179 299.52902 285.49586 c 0,0 8.54719,-6.274 22.31515,-14.26805 4.54638,-2.65206 9.70652,-5.48597 15.30614,-8.33503 5.15257,-2.6369 10.69915,-5.30411 16.52609,-7.83493 4.54638,-2.00041 9.33524,-3.92504 14.23017,-5.72086 22.19391,-8.11529 47.13839,-13.56337 70.57497,-10.4491 z"
     fill="#8cd0f3"
     id="path321"
     style="stroke-width:0.75773" />
  <path
     d="m 524.984,327.42499 c 0,0 -26.73271,3.96293 -52.24548,6.89535 -9.75199,1.12144 -19.32212,2.09133 -27.15705,2.62932 l -1.09113,0.0758 c -3.03092,0.19701 -5.8421,0.32583 -8.22895,0.37129 -3.78864,0.0682 -6.62256,-0.0985 -8.03951,-0.55314 l 7.37271,-44.51664 c 0,0 9.09276,0.0985 22.54247,0.75773 l 2.93999,0.15912 c 2.79603,0.15913 5.7436,0.34098 8.81998,0.55315 4.39483,0.30309 9.02456,0.6668 13.79826,1.10628 23.05015,2.11407 49.16152,5.9103 65.69519,12.74502 35.18141,14.56357 -24.40648,19.77675 -24.40648,19.77675 z"
     fill="#8cd0f3"
     id="path323"
     style="stroke-width:0.75773" />
  <path
     d="m 648.1909,349.81591 v 11.88121 c 0,0 -19.1933,0.27278 -15.07883,-3.56133 a 58.807425,58.807425 0 0 0 7.22117,-8.33503 z"
     fill="#8cd0f3"
     id="path325"
     style="stroke-width:0.75773" />
  <path
     d="m 676.94675,360.48475 -15.58651,1.21995 v -14.28321 c 0,0 7.22117,-10.14601 14.44234,1.09871 l 0.41675,0.65922 z"
     fill="#8cd0f3"
     id="path327"
     style="stroke-width:0.75773" />
  <circle
     cx="182.9068"
     cy="417.58728"
     r="44.607563"
     fill="#182a7c"
     id="circle329"
     style="stroke-width:0.75773" />
  <path
     d="m 218.6868,417.5494 a 35.901247,35.901247 0 1 1 -0.75773,-7.27421 35.97702,35.97702 0 0 1 0.75773,7.27421 z"
     fill="#3f8ffe"
     id="path331"
     style="stroke-width:0.75773" />
  <ellipse
     cx="182.85376"
     cy="417.54181"
     rx="30.75626"
     ry="30.832033"
     fill="#18218a"
     opacity="0.5"
     id="ellipse333"
     style="stroke-width:0.75773" />
  <path
     d="m 193.14373,383.12573 v 1.30329 L 182.90679,418.32228 174.693,382.565 a 35.984597,35.984597 0 0 1 18.45073,0.56073 z"
     fill="#3f8ffe"
     id="path335"
     style="stroke-width:0.75773" />
  <path
     d="m 193.06795,451.98823 a 35.992175,35.992175 0 0 1 -18.04155,0.62134 l 7.87282,-34.28729 z"
     fill="#3f8ffe"
     id="path337"
     style="stroke-width:0.75773" />
  <path
     d="m 218.6868,417.5494 a 35.97702,35.97702 0 0 1 -1.71247,11.01739 h -0.14396 l -33.89327,-10.23693 35.05259,-8.04709 a 36.17403,36.17403 0 0 1 0.69711,7.26663 z"
     fill="#3f8ffe"
     id="path339"
     style="stroke-width:0.75773" />
  <path
     d="m 182.90679,418.32228 -33.89326,10.23694 h -0.2652 a 36.280112,36.280112 0 0 1 -0.97748,-18.30676 z"
     fill="#3f8ffe"
     id="path341"
     style="stroke-width:0.75773" />
  <circle
     cx="182.85376"
     cy="417.54181"
     r="3.9326186"
     fill="#182a7c"
     id="circle343"
     style="stroke-width:0.75773" />
  <circle
     cx="584.25366"
     cy="417.58728"
     r="44.607563"
     fill="#182a7c"
     id="circle345"
     style="stroke-width:0.75773" />
  <path
     d="m 620.04123,417.5494 a 35.901247,35.901247 0 1 1 -0.75773,-7.27421 35.97702,35.97702 0 0 1 0.75773,7.27421 z"
     fill="#3f8ffe"
     id="path347"
     style="stroke-width:0.75773" />
  <ellipse
     cx="584.20819"
     cy="417.54181"
     rx="30.75626"
     ry="30.832033"
     fill="#18218a"
     opacity="0.5"
     id="ellipse349"
     style="stroke-width:0.75773" />
  <path
     d="m 594.49057,383.12573 v 1.30329 l -10.23693,33.89326 -8.21379,-35.75728 a 35.984597,35.984597 0 0 1 18.45072,0.56073 z"
     fill="#3f8ffe"
     id="path351"
     style="stroke-width:0.75773" />
  <path
     d="m 594.42238,451.98823 a 35.992175,35.992175 0 0 1 -18.04155,0.62134 l 7.87281,-34.28729 z"
     fill="#3f8ffe"
     id="path353"
     style="stroke-width:0.75773" />
  <path
     d="m 620.04123,417.5494 a 35.97702,35.97702 0 0 1 -1.71247,11.01739 h -0.17428 l -33.90084,-10.24451 35.05259,-8.04709 a 36.17403,36.17403 0 0 1 0.735,7.27421 z"
     fill="#3f8ffe"
     id="path355"
     style="stroke-width:0.75773" />
  <path
     d="m 584.25364,418.32228 -33.89326,10.23694 h -0.26521 a 36.280112,36.280112 0 0 1 -0.97747,-18.30676 z"
     fill="#3f8ffe"
     id="path357"
     style="stroke-width:0.75773" />
  <circle
     cx="584.20819"
     cy="417.54181"
     r="3.9326186"
     fill="#182a7c"
     id="circle359"
     style="stroke-width:0.75773" />
  <path
     d="m 323.12473,317.49115 -11.20683,22.58793 h -12.38888 l 8.28199,-14.2529 c 4.56911,-2.65205 9.71409,-5.47839 15.31372,-8.33503 z"
     fill="#ffffff"
     opacity="0.2"
     id="path361"
     style="stroke-width:0.75773" />
  <path
     d="m 353.87341,303.93536 -11.16136,36.12099 H 326.239 l 13.41182,-30.41528 c 4.57669,-1.98525 9.33523,-3.89473 14.22259,-5.70571 z"
     fill="#ffffff"
     opacity="0.2"
     id="path363"
     style="stroke-width:0.75773" />
  <path
     d="m 469.91218,293.83482 -24.31555,43.12242 -1.09113,0.0758 c -3.03092,0.19701 -5.8421,0.32582 -8.22895,0.37129 l 21.87566,-44.27417 2.94,0.15913 c 2.75813,0.15154 5.72844,0.3334 8.81997,0.54556 z"
     fill="#ffffff"
     opacity="0.2"
     id="path365"
     style="stroke-width:0.75773" />
  <polygon
     points="359.02,574.82 512.03,571.47 537.15,449.18 377.34,448.63 "
     fill="none"
     stroke="#ffffff"
     stroke-miterlimit="10"
     opacity="0.2"
     id="polygon367"
     transform="matrix(0.75773,0,0,0.75773,-0.00165005,-0.01287001)" />
  <path
     d="m 501.32767,440.19795 c -1.67458,0.75773 -5.62236,2.75814 -6.19065,5.90271 H 236.28129 l -5.30411,-0.0455 a 54.753569,54.753569 0 0 0 3.03092,-5.86483 z"
     fill="#18218a"
     opacity="0.5"
     id="path369"
     style="stroke-width:0.75773" />
  <path
     d="m 277.53212,509.29535 c 1.76551,-1.64428 3.42494,-3.58407 3.94019,-5.94061 0.51526,-2.35654 -0.49252,-5.19045 -2.75056,-6.06184 -2.52324,-0.96989 -5.22834,0.75773 -7.27421,2.55355 -2.04587,1.79582 -4.39483,3.78865 -7.06962,3.40979 a 10.767343,10.767343 0 0 0 3.32644,-10.07781 4.2129788,4.2129788 0 0 0 -0.92443,-2.04587 c -1.4018,-1.51546 -3.94778,-0.85624 -5.62236,0.32582 -5.30411,3.78865 -6.81957,11.00982 -6.85746,17.54145 -0.53798,-2.35654 -0.0833,-4.81158 -0.0985,-7.22874 -0.0152,-2.41716 -0.67438,-5.09195 -2.71267,-6.39524 a 8.1759067,8.1759067 0 0 0 -4.13721,-0.9699 c -2.402,-0.0909 -5.07679,0.15155 -6.71349,1.90948 -2.03829,2.18226 -1.51546,5.8421 0.26521,8.2441 1.78066,2.40201 4.4706,3.90989 6.94838,5.56932 a 15.412228,15.412228 0 0 1 4.96313,4.73581 4.6903487,4.6903487 0 0 1 0.37129,0.84866 h 15.04852 a 41.947933,41.947933 0 0 0 9.29735,-6.41797 z"
     fill="#03bcff"
     id="path371"
     style="stroke-width:0.75773" />
  <path
     d="m 592.05826,522.04037 a 8.8427091,8.8427091 0 0 0 2.90211,-4.37968 c 0.37886,-1.74278 -0.36372,-3.82654 -2.03072,-4.46303 -1.86402,-0.71227 -3.85685,0.57587 -5.36473,1.88674 -1.50788,1.31088 -3.24308,2.79603 -5.22076,2.51567 a 7.9410104,7.9410104 0 0 0 2.45505,-7.43333 3.106693,3.106693 0 0 0 -0.68196,-1.51546 c -1.03809,-1.10629 -2.90968,-0.62892 -4.15236,0.24247 -3.9402,2.77329 -5.03891,8.12287 -5.06164,12.94203 -0.39402,-1.7352 -0.0606,-3.54618 -0.0758,-5.30411 -0.0152,-1.75794 -0.5001,-3.78865 -2.00041,-4.71308 a 6.06184,6.06184 0 0 0 -3.03092,-0.71985 c -1.77309,-0.0682 -3.74318,0.11366 -4.95555,1.40938 -1.51546,1.60639 -1.11387,4.31149 0.19701,6.06184 1.31087,1.75036 3.29612,2.87938 5.12983,4.1069 a 11.36595,11.36595 0 0 1 3.66741,3.49313 3.4628261,3.4628261 0 0 1 0.27279,0.62134 h 11.10074 a 30.938116,30.938116 0 0 0 6.84988,-4.75096 z"
     fill="#03bcff"
     id="path373"
     style="stroke-width:0.75773" />
  <path
     d="m 641.31071,546.14376 a 8.8427091,8.8427091 0 0 0 2.90211,-4.37968 c 0.37886,-1.74278 -0.36372,-3.82654 -2.03072,-4.46303 -1.86402,-0.71227 -3.85685,0.57587 -5.36473,1.88674 -1.50788,1.31088 -3.24308,2.79603 -5.22076,2.51567 a 7.9410104,7.9410104 0 0 0 2.45505,-7.43333 3.106693,3.106693 0 0 0 -0.68196,-1.51546 c -1.03809,-1.10629 -2.90968,-0.62892 -4.15236,0.24247 -3.9402,2.77329 -5.03891,8.12287 -5.06164,12.94203 -0.39402,-1.7352 -0.0606,-3.54618 -0.0758,-5.30411 -0.0152,-1.75793 -0.5001,-3.78865 -2.00041,-4.71308 a 6.06184,6.06184 0 0 0 -3.03092,-0.71984 c -1.77309,-0.0682 -3.74318,0.11365 -4.95555,1.40937 -1.51546,1.60639 -1.11387,4.31149 0.19701,6.06184 1.31087,1.75036 3.29612,2.87938 5.12983,4.1069 a 11.36595,11.36595 0 0 1 3.66741,3.49313 3.4628261,3.4628261 0 0 1 0.27279,0.62134 h 11.10074 a 30.938116,30.938116 0 0 0 6.84988,-4.75096 z"
     fill="#03bcff"
     id="path375"
     style="stroke-width:0.75773" />
  <path
     d="m 498.91051,495.48951 c 0,0 -2.64448,1.43968 -3.84927,-6.71349 -0.75773,-5.30411 -2.96272,-16.23816 -4.40999,-23.33809 l -0.18185,-0.90169 a 12.328267,12.328267 0 0 0 1.21994,-0.45464 c 0,0 -8.42595,-32.58239 -6.50132,-39.79598 1.92464,-7.21359 0,-20.14046 0,-20.14046 l -5.05406,-17.01862 c 0,0 -12.5177,-4.31906 -17.32928,-5.51627 -4.81159,-1.19722 -18.29161,-9.59287 -18.29161,-9.59287 a 10.396056,10.396056 0 0 1 0.65165,0.84108 l -0.53799,-0.32582 a 20.087422,20.087422 0 0 1 -2.65205,-3.03092 19.079641,19.079641 0 0 0 4.98586,-10.36575 21.519532,21.519532 0 0 0 -1.07597,-21.89082 10.737034,10.737034 0 0 0 1.84128,-3.44009 5.6223566,5.6223566 0 0 0 0.20459,-1.75793 4.6751941,4.6751941 0 0 0 -2.6369,-4.64489 4.5994211,4.5994211 0 0 0 -3.62195,0.0379 c -1.0684,0.48494 -1.90948,1.39422 -3.07639,1.63669 -1.94736,0.4016 -3.61437,-1.15932 -5.14498,-2.31865 a 15.480424,15.480424 0 0 0 -8.17591,-3.03092 7.9410104,7.9410104 0 0 0 -3.78865,0.5001 15.23795,15.23795 0 0 0 -3.137,2.35654 c -3.47041,2.79603 -8.33503,3.57649 -12.69198,5.09953 -0.8335,0.28793 -1.75793,0.75773 -1.90948,1.51546 a 1.1062858,1.1062858 0 0 0 0,0.45463 v 0 a 1.1214404,1.1214404 0 0 0 0.0455,0.57588 c -8.12286,1.36391 -16.07145,7.53183 -16.07145,7.53183 l -1.3336,1.2351 a 2.5459728,2.5459728 0 0 0 -2.78087,0.2349 l -2.68237,2.10649 a 2.5232409,2.5232409 0 0 0 -0.60618,3.28855 l -19.61763,18.18552 -0.42433,0.39402 v -0.0682 c 0,0 -15.1546,11.50992 -15.1546,19.65552 0,5.88756 4.54638,9.51709 7.02416,11.08559 a 18.791704,18.791704 0 0 0 -4.89494,7.5773 v 0 0.0758 0.10608 0.0833 0.0909 0.0758 0.0833 0.0758 0.0758 0.0682 0.0682 0.0606 0.0682 0.053 0.0833 0.0758 0.0455 0.0455 0.3334 0.0909 0.18185 0 0.12882 0.12881 l -0.0606,0.3334 v 0.13639 l -0.0379,0.22732 v 0.0909 0.21974 0.15912 l -0.053,0.3031 v 0 l -0.0682,0.37886 v 0.0758 l -0.053,0.31825 v 0.15155 l -0.0606,0.34855 v 0.0909 l -0.0682,0.39402 v 0.17428 l -0.17428,0.99262 v 0 l -0.0909,0.53799 v 0.0909 l -0.0985,0.55314 v 0.0758 l -0.0985,0.56072 v 0.0455 l -0.10608,0.59103 v 0.12881 l -0.10608,0.58346 v 0.12881 l -0.0985,0.57587 v 0.0682 l -0.11366,0.65165 v 0.12123 l -0.25763,1.45485 v 0 l -0.12881,0.75773 v 0.11366 l -0.12881,0.75773 v 0.053 l -0.28037,1.51546 v 0.12881 l -0.13639,0.75773 v 0.10608 l -0.29551,1.59881 v 0.0682 l -0.15155,0.81077 v 0.0682 l -0.30309,1.65185 v 0.10608 l -0.15155,0.81835 v 0.0606 l -0.31824,1.68973 v 0.0909 l -0.15913,0.8335 v 0.0606 l -0.32582,1.71247 v 0.0682 l -0.15912,0.8335 v 0.0682 l -1.38665,1.71247 v 0.0758 l -0.1667,0.82593 v 0.0455 l -0.34098,1.68216 v 0.0455 l -0.1667,0.81835 v 0.0455 l -0.3334,1.60638 v 0.0682 l -0.15912,0.75773 v 0.0682 l -0.32583,1.51546 v 0.053 l -0.15912,0.75773 v 0.0758 l -0.31825,1.43211 v 0.0379 l -0.15154,0.67438 v 0.0682 q -0.15913,0.68196 -0.31067,1.31845 v 0 l -0.15155,0.62134 v 0.053 q -0.15154,0.62134 -0.29551,1.18964 v 0 l -0.14397,0.54556 v 0.0606 l -0.13639,0.52283 c -0.60619,2.27319 -1.1366,3.78865 -1.51546,4.14479 a 4.2584426,4.2584426 0 0 0 -0.88655,1.39422 v 0 l -0.0606,0.15155 -0.0606,0.1667 -0.053,0.1667 -0.25006,0.22732 -0.053,0.17427 -0.0455,0.15913 -0.0455,0.18185 v 0.1667 l -0.0379,0.18186 v 0.1667 q 0,0.18186 -0.0606,0.36371 v 0.15155 0.20458 0.15913 0.20458 0.15913 0.20458 0.15913 0.20458 0.15155 c 0,0.25005 0,0.49253 0,0.75773 0,0.0455 0,0.0909 0,0.14397 0,0.053 0,0.12881 0,0.19701 0,0.0682 0,0.0985 0,0.14397 0,0.0455 0,0.12881 0,0.18943 0,0.0606 0,0.0909 0,0.14397 0,0.053 0,0.12124 0,0.18185 v 0.1364 c 0,0.0606 0,0.12123 0,0.18185 v 0.12124 q 0,0.1667 0,0.32582 v 1.19721 0.16671 0.47737 l 2.27319,0.68953 c 0,0 1.14417,0.62892 2.90968,1.44726 -0.25005,7.6455 -0.95474,17.99609 -2.87179,24.33071 -4.2736,0.21975 -14.82878,0.66681 -16.73826,-0.0985 -2.40958,-0.96232 -17.81423,-3.35674 -12.99507,7.66823 2.01556,4.62215 6.40282,8.10771 10.81281,10.60822 a 13.472439,13.472439 0 0 1 -1.66701,0.4319 c -3.92504,0.75773 -5.01617,2.06861 -4.86462,3.41737 -0.28036,2.27319 3.58406,4.81158 3.90231,4.9707 0.48494,0.24248 16.84433,2.87938 20.70118,1.67459 3.85685,-1.20479 19.49639,-4.07659 19.49639,-4.07659 0,0 0,-0.17428 0,-0.47737 v 0 c 0,0 -0.21216,-4.71308 -0.80319,-9.18369 1.77309,-0.25763 3.7053,-0.49252 5.58447,-0.63649 a 7.6227638,7.6227638 0 0 0 4.12205,5.26622 c 10.35059,5.30411 13.72249,-1.91705 13.72249,-1.91705 0,0 13.99527,2.68994 21.81505,0.75773 0.81835,0.75773 1.51546,1.29571 2.00798,1.65942 2.5384,1.82613 9.37312,3.07639 17.01862,3.16732 a 24.118546,24.118546 0 0 0 6.1073,-0.17428 56.587276,56.587276 0 0 0 10.00204,-1.5685 c 9.20642,-2.38685 11.22956,-10.9492 11.66904,-14.83636 0.36371,-0.10608 0.62134,-0.48494 0.75773,-1.19721 a 3.4476715,3.4476715 0 0 0 0.31825,-1.2351 36.446813,36.446813 0 0 1 0.98504,-5.21318 l 11.36595,0.63649 c 5.0768,9.214 9.56256,16.54125 9.56256,16.54125 l 7.69853,-0.96232 a 44.471173,44.471173 0 0 1 -8.90332,-9.59286 c -3.84927,-5.75117 -3.84927,-33.34012 -3.84927,-33.34012 l 0.4319,-16.79888 v 0.17428 -0.81077 c 0.71227,4.97829 6.35736,19.42062 6.99385,19.63279 0.46222,0.15154 0.91686,0.28793 1.36392,0.41675 l 0.40917,1.07597 c 3.21278,8.51689 11.36595,30.3092 11.94182,33.7493 0.75773,4.31906 30.80931,5.99364 37.54553,3.83411 6.73622,-2.15953 -25.46731,-7.6758 -25.46731,-7.6758 z M 391.5629,400.07615 380.54551,416.62497 c -3.95535,-6.81957 -8.0774,-13.09358 -11.80543,-17.24594 9.77471,0.32583 21.04216,0.67438 22.82282,0.69712 z m -1.67458,-42.43288 a 2.5535501,2.5535501 0 0 0 2.65963,-0.29552 l 0.93959,-0.75773 a 2.5232409,2.5232409 0 0 0 0.64407,-3.24308 l 0.56072,-0.55315 a 83.789783,83.789783 0 0 0 11.45687,-2.78087 21.390718,21.390718 0 0 0 2.80361,9.72926 18.988714,18.988714 0 0 0 1.84886,5.45565 c -1.72763,-0.14397 -3.6068,-0.24247 -5.40262,-0.22732 a 28.217865,28.217865 0 0 0 -4.69035,0.29552 c -5.7739,0.96232 -6.50132,11.50992 -6.50132,11.50992 0,0 -11.60085,4.07659 -18.57196,4.22055 a 8.7290496,8.7290496 0 0 1 -2.60659,-0.38644 l -0.70469,-0.0455 0.94716,-2.59144 c 0,0 -0.40917,0.12882 -1.08355,0.26521 q 0.32582,-0.49253 0.68195,-1.00021 c 4.40999,-6.32704 12.04791,-14.48022 17.01862,-19.57974 z m -23.83819,128.01848 a 44.70607,44.70607 0 0 0 -2.38685,4.69792 c -2.7354,0.53042 -6.46343,0.82593 -8.44111,-0.86381 a 4.925245,4.925245 0 0 0 -3.16731,-1.11386 l 0.0455,-0.0909 c 1.36392,-2.61417 2.52325,-8.47142 3.43252,-14.53326 4.40999,0 8.60024,-3.69015 8.60024,-3.69015 l 5.55416,1.90191 0.20458,0.38644 0.1364,0.25005 0.21974,0.40917 0.13639,0.25763 0.21974,0.4016 0.14397,0.25763 0.21974,0.39402 0.14397,0.25763 0.21216,0.38644 0.14397,0.25763 0.21974,0.38644 0.14397,0.25005 0.21975,0.37886 0.13639,0.24248 0.21974,0.37886 0.13639,0.2349 0.21216,0.37129 0.1364,0.23489 0.21974,0.37129 0.12881,0.21217 0.21974,0.36371 0.12882,0.21216 0.21974,0.36371 0.11366,0.18943 0.22732,0.37129 0.0833,0.13639 c 0.39402,0.64407 0.75773,1.25783 1.12902,1.83371 l 0.053,0.0833 0.21216,0.3334 0.0909,0.14397 0.18943,0.30309 0.10608,0.15912 0.17428,0.27279 0.10608,0.17427 0.15913,0.25006 0.11366,0.17427 0.15154,0.2349 0.10608,0.1667 0.1364,0.21216 0.10608,0.16671 0.12881,0.19701 0.10608,0.1667 0.12124,0.18185 0.10608,0.15912 v 0 a 48.805389,48.805389 0 0 1 -11.47961,0.52284 z"
     fill="url(#acc8b6a5-9f39-4130-a42e-d6ce30e2b206-259)"
     id="path377"
     style="fill:url(#acc8b6a5-9f39-4130-a42e-d6ce30e2b206-259);stroke-width:0.75773" />
  <path
     d="m 521.71061,501.8014 c -6.56952,2.11406 -35.90125,0.46979 -36.60594,-3.78865 -0.56072,-3.38706 -8.50931,-24.702 -11.64631,-33.03703 l -1.25783,-3.33401 15.2531,-3.28855 c 0,0 0.56072,2.67479 1.33361,6.48617 1.40938,6.95596 3.5386,17.69299 4.29633,22.84556 1.17448,7.97889 3.78865,6.56952 3.78865,6.56952 0,0 31.38517,5.43292 24.83839,7.54699 z"
     fill="#ffbdc6"
     id="path379"
     style="stroke-width:0.75773" />
  <path
     d="m 438.84525,363.33382 c 0,0 -1.17448,7.03931 8.91849,13.63914 10.09296,6.59983 1.40937,30.27131 1.40937,30.27131 l -7.46364,0.41675 a 18.344643,18.344643 0 0 1 -19.2918,-16.60944 v 0 c 0,0 4.22055,-6.81957 -3.52345,-24.40648 z"
     fill="#ffbdc6"
     id="path381"
     style="stroke-width:0.75773" />
  <path
     d="m 395.23032,354.67296 c 0,0 -14.52569,14.16198 -21.27706,23.92154 a 34.469138,34.469138 0 0 0 -2.18984,3.53102 c -4.92525,9.38828 -16.38212,-5.87241 -12.4192,-11.14621 l 2.73541,-2.55355 26.33869,-24.55045 c 0,0 18.07186,-14.07862 27.21766,-3.98566 9.14581,10.09297 -20.40566,14.78331 -20.40566,14.78331 z"
     fill="#ffbdc6"
     id="path383"
     style="stroke-width:0.75773" />
  <circle
     cx="427.49445"
     cy="351.03586"
     r="21.117935"
     fill="#a66477"
     id="circle385"
     style="stroke-width:0.75773" />
  <path
     d="m 341.49968,488.41989 c 0,0 -15.7229,0.93958 -18.07186,0 -2.34896,-0.93959 -17.35959,-3.28098 -12.63893,7.51668 4.72065,10.79765 22.52731,15.2531 22.52731,15.2531 l 12.88141,-3.28855 z"
     fill="#7679b4"
     id="path387"
     style="stroke-width:0.75773" />
  <path
     d="m 341.49968,488.41989 c 0,0 -15.7229,0.93958 -18.07186,0 -2.34896,-0.93959 -17.35959,-3.28098 -12.63893,7.51668 4.72065,10.79765 22.52731,15.2531 22.52731,15.2531 l 12.88141,-3.28855 z"
     opacity="0.05"
     id="path389"
     style="stroke-width:0.75773" />
  <path
     d="m 397.57928,442.19836 31.55945,12.82079 17.95063,38.12897 c 0,0 0.23489,13.37393 -11.49477,16.42759 -11.72966,3.05365 -28.15724,1.64427 -32.38538,-1.40938 -4.22813,-3.05365 -21.58772,-21.11794 -21.58772,-21.11794 z"
     fill="#7679b4"
     id="path391"
     style="stroke-width:0.75773" />
  <path
     d="m 395.4349,442.19836 27.31617,10.23693 15.54104,30.51378 c 0,0 0.20459,10.70673 -9.94899,13.14662 -10.15359,2.43989 -24.37618,1.31087 -28.03601,-1.12902 -3.65984,-2.43989 -18.68562,-16.90495 -18.68562,-16.90495 z"
     opacity="0.05"
     id="path393"
     style="stroke-width:0.75773" />
  <path
     d="m 368.24755,488.41989 c 0,0 -8.21379,2.81875 -11.49476,0 -3.28097,-2.81876 -9.15338,0.70468 -9.15338,0.70468 l 2.59143,15.25311 c 0,0 11.72967,-2.58386 18.07187,-1.87917 z"
     fill="#ffbdc6"
     id="path395"
     style="stroke-width:0.75773" />
  <path
     d="m 368.24755,488.41989 c 0,0 -8.21379,2.81875 -11.49476,0 -3.28097,-2.81876 -9.15338,0.70468 -9.15338,0.70468 l 2.59143,15.25311 c 0,0 11.72967,-2.58386 18.07187,-1.87917 z"
     opacity="0.05"
     id="path397"
     style="stroke-width:0.75773" />
  <path
     d="m 372.92274,471.99988 -7.49395,-2.58386 c 0,0 -8.21379,7.2742 -13.63913,1.17448 -5.42535,-6.09973 4.92524,-31.4458 4.92524,-31.4458 l 11.02497,-17.83696 7.9789,25.11117 7.27421,12.19945 z"
     fill="#565388"
     id="path399"
     style="stroke-width:0.75773" />
  <path
     d="m 372.92274,471.99988 -7.49395,-2.58386 c 0,0 -8.21379,7.2742 -13.63913,1.17448 -5.42535,-6.09973 4.92524,-31.4458 4.92524,-31.4458 l 11.02497,-17.83696 7.9789,25.11117 7.27421,12.19945 z"
     opacity="0.05"
     id="path401"
     style="stroke-width:0.75773" />
  <polygon
     points="608.93,624.16 613.27,644.6 585.71,643.05 586.63,621.07 "
     fill="#565388"
     id="polygon403"
     transform="matrix(0.75773,0,0,0.75773,-0.00165005,-0.01287001)" />
  <polygon
     points="608.93,624.16 613.27,644.6 585.71,643.05 586.63,621.07 "
     opacity="0.05"
     id="polygon405"
     transform="matrix(0.75773,0,0,0.75773,-0.00165005,-0.01287001)" />
  <path
     d="m 420.81128,385.64897 c 0,0 7.03931,26.98276 29.55147,7.5091 l 6.09973,77.43243 c 0,0 -7.50911,11.96456 -8.68359,22.7319 -1.17448,10.76734 -21.58773,-33.34012 -33.78718,-33.55229 -12.19945,-0.21216 -24.28525,-17.24593 -24.28525,-17.24593 l 13.73007,-28.27848 z"
     opacity="0.1"
     id="path407"
     style="stroke-width:0.75773" />
  <path
     d="m 421.04618,384.94428 c 0,0 7.03931,26.98276 29.55147,7.5091 l 6.09972,77.43243 c 0,0 -7.5091,11.96456 -8.68358,22.7319 -1.17448,10.76734 -21.58773,-33.34012 -33.78718,-33.55228 -12.19946,-0.21217 -24.28525,-17.24594 -24.28525,-17.24594 l 13.73007,-28.27848 z"
     fill="#f2f1f2"
     id="path409"
     style="stroke-width:0.75773" />
  <path
     d="m 417.28784,367.57711 c 0,0 -9.85049,-1.64428 -15.48801,-0.70469 -5.63751,0.93958 -6.33462,11.25986 -6.33462,11.25986 0,0 -15.95779,5.62994 -21.35283,3.78865 0,0 -26.52055,-1.87917 -26.52055,6.09973 0,7.9789 8.45627,11.6842 8.45627,11.6842 0,0 36.8181,1.24267 37.07573,1.17448 8.44869,-2.34896 -0.2349,0 -0.2349,0 l -15.2531,22.9971 14.07862,19.47367 15.01821,-11.02498 c 0,0 1.87917,-10.32786 6.81957,-15.488 3.51586,-3.69014 8.11529,-20.29958 10.45667,-29.49085 a 15.078827,15.078827 0 0 0 -1.70489,-11.50992 z"
     opacity="0.1"
     id="path411"
     style="stroke-width:0.75773" />
  <path
     d="m 373.95326,378.5945 a 34.469138,34.469138 0 0 0 -2.18984,3.53102 c -4.92525,9.38828 -16.38212,-5.87241 -12.4192,-11.14621 l 2.73541,-2.55355 c -1.00021,12.10853 8.85786,10.82039 11.87363,10.16874 z"
     opacity="0.1"
     id="path413"
     style="stroke-width:0.75773" />
  <path
     d="m 392.88893,399.96249 h -0.26521 c 0,0 8.7139,-2.34897 0.26521,0 z"
     opacity="0.1"
     id="path415"
     style="stroke-width:0.75773" />
  <path
     d="m 416.58315,367.57711 c 0,0 -9.85049,-1.64428 -15.488,-0.70469 -5.63752,0.93958 -6.33463,11.25986 -6.33463,11.25986 0,0 -15.95779,5.62994 -21.35283,3.78865 l 0.93959,-2.58385 c 0,0 -14.30595,4.45545 -12.66925,-10.58549 0,0 -14.78331,11.25986 -14.78331,19.23876 0,7.9789 8.44869,11.71451 8.44869,11.71451 0,0 36.8181,1.24267 37.07573,1.17448 8.44869,-2.34896 -0.2349,0 -0.2349,0 l -15.2531,22.9971 14.07862,19.47367 15.01821,-11.02498 c 0,0 1.87917,-10.32786 6.81957,-15.488 3.51587,-3.69014 8.11529,-20.29958 10.45667,-29.49085 a 15.078827,15.078827 0 0 0 -1.70489,-11.50992 z"
     fill="#565388"
     id="path417"
     style="stroke-width:0.75773" />
  <path
     d="m 464.92632,443.84263 v 1.28814 a 2.803601,2.803601 0 0 1 0,-1.28814 z"
     opacity="0.1"
     id="path419"
     style="stroke-width:0.75773" />
  <path
     d="m 488.78724,464.86964 a 26.816065,26.816065 0 0 1 -15.32888,0.13639 l -1.25783,-3.33401 15.2531,-3.28855 c 0,0 0.55315,2.69752 1.33361,6.48617 z"
     opacity="0.1"
     id="path421"
     style="stroke-width:0.75773" />
  <path
     d="m 443.1037,373.44194 c 0,0 13.13903,8.21379 17.83696,9.38827 4.69793,1.17448 16.89738,5.39504 16.89738,5.39504 l 4.92524,16.67006 c 0,0 1.87918,12.66924 0,19.70098 -1.87917,7.03173 -19.47366,20.41324 -18.53407,18.29918 l -0.46979,18.53407 c 0,0 0,26.98277 3.78865,32.58239 3.78865,5.59963 -7.16055,-5.51627 -7.16055,-5.51627 0,0 -13.26028,-19.5949 -14.89697,-32.02925 -1.6367,-12.43435 0.932,-60.26227 0.932,-60.26227 l -2.34896,-3.28854 c 0,0 4.89494,-12.66925 -0.96989,-19.47366 z"
     opacity="0.1"
     id="path423"
     style="stroke-width:0.75773" />
  <path
     d="m 443.80839,373.44194 c 0,0 13.13903,8.21379 17.83696,9.38827 4.69793,1.17448 16.89738,5.39504 16.89738,5.39504 l 4.92524,16.67006 c 0,0 1.87917,12.66924 0,19.70098 -1.87917,7.03173 6.33463,38.9549 6.33463,38.9549 0,0 -7.5773,3.50071 -18.07186,0 -0.70469,-0.2349 -7.744,-18.53408 -6.81957,-20.64815 l -0.4698,18.53408 c 0,0 0,26.98277 3.78865,32.58239 a 43.455815,43.455815 0 0 0 8.68359,9.38827 l -7.5091,0.93959 c 0,0 -21.61046,-35.40115 -23.25474,-47.81276 -1.64427,-12.41162 0.93959,-60.30773 0.93959,-60.30773 l -2.34897,-3.28855 c 0,0 4.93283,-12.69198 -0.932,-19.49639 z"
     fill="#565388"
     id="path425"
     style="stroke-width:0.75773" />
  <path
     d="m 379.74231,486.08608 c 0,0 -15.72289,-22.7319 -15.0182,-33.34012 0,0 -1.87917,14.54841 -3.98566,15.488 -2.10649,0.93958 -23.23201,-5.63751 -23.23201,-5.63751 0,0 -0.93958,-6.81957 1.40938,-9.15338 2.34897,-2.33381 9.62317,-45.75932 9.62317,-45.75932 0,0 2.58386,-11.72966 13.84373,-12.43435 11.25987,-0.70468 36.60594,56.54939 36.60594,56.54939 0,0 3.75076,34.28729 -19.24635,34.28729 z"
     fill="#7679b4"
     id="path427"
     style="stroke-width:0.75773" />
  <path
     d="m 342.67416,455.1025 c 0,0 0.4698,32.84759 -5.39503,38.25021 -5.86483,5.40261 17.13227,8.21379 17.13227,8.21379 0,0 -3.98566,-7.9789 -0.70469,-14.31352 3.28097,-6.33462 5.39504,-32.15048 5.39504,-32.15048 z"
     fill="#ffbdc6"
     id="path429"
     style="stroke-width:0.75773" />
  <path
     d="m 343.84107,492.90565 c 0,0 -2.34897,-5.86483 -8.68359,-1.17448 0,0 -5.62993,13.13903 -15.488,15.0182 -9.85807,1.87917 -1.40938,7.50911 -0.93958,7.744 0.46979,0.2349 16.42758,2.81876 20.17835,1.64428 3.75076,-1.17448 19.00386,-3.98566 19.00386,-3.98566 0,0 -0.70469,-15.488 -3.03092,-16.67006 -2.32623,-1.18206 -1.18206,7.02416 -11.04012,-2.57628 z"
     opacity="0.05"
     id="path431"
     style="stroke-width:0.75773" />
  <path
     d="m 343.84107,493.35271 c 0,0 -2.34897,-5.86483 -8.68359,-1.17448 0,0 -5.62993,13.13903 -15.488,15.0182 -9.85807,1.87917 -1.40938,7.50911 -0.93958,7.74401 0.46979,0.23489 16.42758,2.81875 20.17835,1.64427 3.75076,-1.17448 19.01144,-3.97808 19.01144,-3.97808 0,0 -0.70469,-15.488 -3.03092,-16.67006 -2.32623,-1.18206 -1.18964,7.03173 -11.0477,-2.58386 z"
     fill="#7679b4"
     id="path433"
     style="stroke-width:0.75773" />
  <path
     d="m 388.0243,345.90603 a 109.18889,109.18889 0 0 0 6.39524,8.91848 2.4777771,2.4777771 0 0 1 -0.35613,3.56133 l -0.91685,0.71984 a 2.4777771,2.4777771 0 0 1 -3.53102,-0.49252 27.982969,27.982969 0 0 0 -7.5773,-7.1757 2.4777771,2.4777771 0 0 1 -0.22732,-4.04628 l 2.61417,-2.06103 a 2.4777771,2.4777771 0 0 1 3.59921,0.57588 z"
     fill="#565388"
     id="path435"
     style="stroke-width:0.75773" />
  <path
     d="m 441.5655,371.66885 c -3.03092,-4.26602 -2.45504,-7.6455 -2.45504,-7.6455 l -19.96619,3.31886 a 64.40705,64.40705 0 0 1 3.40979,9.57013 18.761395,18.761395 0 0 0 19.01144,-5.24349 z"
     opacity="0.1"
     id="path437"
     style="stroke-width:0.75773" />
  <circle
     cx="427.61572"
     cy="358.18884"
     r="18.768972"
     fill="#ffbdc6"
     id="circle439"
     style="stroke-width:0.75773" />
  <path
     d="m 419.35644,348.40654 c 1.77309,-0.29552 3.34917,-1.33361 5.14499,-1.42454 2.27319,-0.11366 4.32663,1.34119 5.92544,2.84149 1.59881,1.50031 3.15216,3.21278 5.34958,3.86442 a 13.229966,13.229966 0 0 0 4.28875,0.28794 3.9856598,3.9856598 0 0 0 2.27319,-0.57587 2.8642194,2.8642194 0 0 0 0.75773,-1.15933 11.024971,11.024971 0 0 0 -0.0682,-8.93364 1.51546,1.51546 0 0 1 -0.21216,-0.96989 1.4699962,1.4699962 0 0 1 0.32582,-0.53799 c 1.51546,-1.78824 3.11427,-3.57648 3.72803,-5.74359 0.61377,-2.16711 -0.13639,-4.83432 -2.37169,-5.79664 a 4.4630297,4.4630297 0 0 0 -3.53102,0 c -1.04567,0.47737 -1.85644,1.36392 -3.03092,1.59881 -1.9019,0.39402 -3.53102,-1.13659 -5.01617,-2.27319 a 15.056095,15.056095 0 0 0 -7.96375,-2.9703 7.7136914,7.7136914 0 0 0 -3.72045,0.49253 14.866663,14.866663 0 0 0 -3.03092,2.27319 c -3.38705,2.7354 -8.13044,3.50071 -12.37373,4.99344 -0.81077,0.28793 -1.71247,0.71226 -1.86402,1.51546 -0.15154,0.80319 0.75773,1.61396 1.66701,1.96252 0.90927,0.34855 1.95494,0.57587 2.56113,1.28056 0.75773,0.90928 0.51525,2.19742 0.65164,3.34159 0.28036,2.27319 2.27319,3.50829 4.47819,4.16752 1.82613,0.58345 4.22055,2.0686 6.03153,1.76551 z"
     opacity="0.1"
     id="path441"
     style="stroke-width:0.75773" />
  <path
     d="m 419.35644,347.93674 c 1.77309,-0.29551 3.34917,-1.3336 5.14499,-1.42453 2.27319,-0.11366 4.32663,1.34118 5.92544,2.84149 1.59881,1.5003 3.15216,3.21277 5.34958,3.86442 a 13.229966,13.229966 0 0 0 4.28875,0.28794 3.9856598,3.9856598 0 0 0 2.27319,-0.57588 2.8642194,2.8642194 0 0 0 0.75773,-1.15932 11.024971,11.024971 0 0 0 -0.0682,-8.93364 1.51546,1.51546 0 0 1 -0.21216,-0.96989 1.4699962,1.4699962 0 0 1 0.32582,-0.53799 c 1.51546,-1.78824 3.11427,-3.57649 3.72803,-5.74359 0.61377,-2.16711 -0.13639,-4.83432 -2.37169,-5.79664 a 4.4630297,4.4630297 0 0 0 -3.53102,0 c -1.04567,0.47737 -1.85644,1.36391 -3.03092,1.59881 -1.9019,0.39402 -3.53102,-1.13659 -5.01617,-2.27319 a 15.056095,15.056095 0 0 0 -7.85766,-2.90968 7.7136914,7.7136914 0 0 0 -3.72046,0.49252 14.866663,14.866663 0 0 0 -3.03092,2.27319 c -3.38705,2.73541 -8.13044,3.50071 -12.37373,4.99344 -0.81077,0.28794 -1.71247,0.71227 -1.86402,1.51546 -0.15154,0.8032 0.75773,1.61397 1.66701,1.96252 0.90928,0.34856 1.95494,0.57588 2.56113,1.28057 0.75773,0.90927 0.51525,2.19741 0.65165,3.34159 0.28036,2.27319 2.27319,3.50829 4.47818,4.16751 1.72005,0.52284 4.11447,2.00799 5.92545,1.70489 z"
     fill="#a66477"
     id="path443"
     style="stroke-width:0.75773" />
  <path
     d="m 404.20942,438.22785 c 0,0 13.40424,2.27319 16.75341,9.50951 3.34916,7.23632 23.48963,26.81607 23.48963,26.81607"
     opacity="0.05"
     id="path445"
     style="stroke-width:0.75773" />
  <g
     opacity="0.05"
     id="g453"
     transform="matrix(0.75773,0,0,0.75773,-0.00165005,-0.01287001)">
    <path
       d="m 581.54,702.28 c -2.79,1.24 -30.66,-7.43 -30.66,-7.43 a 29.59,29.59 0 0 1 0.09,-8.11 c -1.6,3.86 -0.71,10.28 -0.71,10.28 0,0 27.87,8.67 30.66,7.43 0.92,-0.41 1.81,-2.79 2.59,-5.8 -0.62,1.93 -1.28,3.35 -1.97,3.63 z"
       transform="translate(-104.84,-86.48)"
       id="path447" />
    <path
       d="m 565.4,622.63 a 18.25,18.25 0 0 0 -0.58,1.92 c 0,0 -6.72,40.13 -10.73,55 3.71,-12.07 10.71,-53.35 11.31,-56.92 z"
       transform="translate(-104.84,-86.48)"
       id="path449" />
    <path
       d="m 606.62,725.82 c 0,0 -20.75,-30 -19.82,-44 0,0 -0.22,1.74 -0.61,4.2 C 587.13,700.66 606,728 606,728 c 14.43,0 20.88,-10.22 23.67,-20.95 -3.08,9.88 -9.59,18.77 -23.05,18.77 z"
       transform="translate(-104.84,-86.48)"
       id="path451" />
  </g>
  <path
     d="m 339.71144,463.28598 c 0,0 14.33625,7.89555 19.50397,4.13721 5.16772,-3.75834 1.87917,-9.62317 1.87917,-9.62317 l -3.99324,-6.56952 h -13.37393 l -4.45545,7.744 z"
     fill="#7679b4"
     id="path455"
     style="stroke-width:0.75773" />
  <path
     d="m 437.47376,494.29229 c 0,0 0.93959,-18.76897 -22.9971,-18.53407 -23.93669,0.23489 -0.93959,0 -0.93959,0 0,0 -9.38827,-2.81876 -21.11793,3.78865 -11.72966,6.6074 -25.11117,5.16014 -25.11117,5.16014 0,0 -10.79766,17.83696 -0.70469,22.9971 10.09296,5.16014 13.37393,-1.91705 13.37393,-1.91705 0,0 20.64814,3.98566 25.34607,-1.40938 a 24.088237,24.088237 0 0 0 26.04318,5.19803 c 0,0 11.73724,-5.19803 6.1073,-15.28342 z"
     fill="#7679b4"
     id="path457"
     style="stroke-width:0.75773" />
  <metadata
     id="metadata543">
    <rdf:RDF>
      <cc:Work
         rdf:about="">
        <dc:title>by_my_car</dc:title>
      </cc:Work>
    </rdf:RDF>
  </metadata>
</svg>
