<?xml version="1.0" encoding="UTF-8" standalone="no"?>
<svg
   data-name="Layer 1"
   width="1137.93"
   height="741.16"
   viewBox="0 0 1137.93 741.16"
   version="1.1"
   id="svg766"
   sodipodi:docname="financial_data.svg"
   inkscape:version="1.1.1 (3bf5ae0d25, 2021-09-20)"
   xmlns:inkscape="http://www.inkscape.org/namespaces/inkscape"
   xmlns:sodipodi="http://sodipodi.sourceforge.net/DTD/sodipodi-0.dtd"
   xmlns="http://www.w3.org/2000/svg"
   xmlns:svg="http://www.w3.org/2000/svg"
   xmlns:rdf="http://www.w3.org/1999/02/22-rdf-syntax-ns#"
   xmlns:cc="http://creativecommons.org/ns#"
   xmlns:dc="http://purl.org/dc/elements/1.1/">
  <defs
     id="defs770" />
  <sodipodi:namedview
     id="namedview768"
     pagecolor="#ffffff"
     bordercolor="#666666"
     borderopacity="1.0"
     inkscape:pageshadow="2"
     inkscape:pageopacity="0.0"
     inkscape:pagecheckerboard="0"
     showgrid="false"
     inkscape:zoom="0.97010096"
     inkscape:cx="568.49753"
     inkscape:cy="329.34716"
     inkscape:window-width="1280"
     inkscape:window-height="953"
     inkscape:window-x="-8"
     inkscape:window-y="-8"
     inkscape:window-maximized="1"
     inkscape:current-layer="svg766" />
  <title
     id="title552">financial data</title>
  <path
     d="m 147.29965,311.34164 -4.14672,-2.57769 c -0.39555,-0.24392 -0.78451,-0.50762 -1.18007,-0.75814 a 39.463057,39.463057 0 0 0 3.9885,-76.88901 l 0.20437,16.26384 -8.93292,-17.68784 h -0.12526 a 39.456464,39.456464 0 0 0 -41.256228,37.57759 c -0.03955,0.75155 0,1.49651 0,2.24147 -3.105095,-3.5468 -5.933303,-7.3507 -7.798997,-11.5172 -3.777536,-8.43188 -3.850055,-17.99109 -3.553389,-29.60059 0.59333,-23.01462 1.588806,-46.20065 2.880948,-69.31416 a 39.456464,39.456464 0 0 0 35.046046,-37.34026 c 0.0527,-1.20644 0.033,-2.39969 0,-3.57976 0,-0.29666 0,-0.59333 -0.0461,-0.8834 -0.0791,-1.1471 -0.18459,-2.28102 -0.36259,-3.40176 0,-0.18459 -0.0659,-0.36259 -0.0989,-0.54059 -0.15822,-0.94933 -0.356,-1.88547 -0.58015,-2.81502 -0.0857,-0.34281 -0.1714,-0.65926 -0.2637,-1.03503 -0.27689,-1.00207 -0.58014,-1.97777 -0.93614,-2.97325 -0.11867,-0.32303 -0.25711,-0.65925 -0.38237,-0.96251 -0.27689,-0.71859 -0.58015,-1.43059 -0.90318,-2.1294 -0.17141,-0.36918 -0.33622,-0.73836 -0.51422,-1.10095 -0.0527,-0.0923 -0.0857,-0.19119 -0.13844,-0.28348 v 0 A 39.423502,39.423502 0 0 0 71.841223,82.032672 L 72.104925,103.19479 63.270896,85.711319 A 39.271873,39.271873 0 0 0 44.449141,128.27288 h -0.03956 c 0.05933,0.28348 0.145036,0.54718 0.210962,0.83066 0.125258,0.52081 0.257109,1.03503 0.402146,1.54925 0.184591,0.65926 0.395553,1.31851 0.613108,1.97777 0.164814,0.48126 0.323035,0.96911 0.507627,1.45036 0.270295,0.69881 0.573552,1.37785 0.87681,2.05688 0.177999,0.39556 0.33622,0.80429 0.527405,1.19325 q 0.751551,1.53607 1.634954,2.98643 c 0.20437,0.34282 0.435109,0.65926 0.659256,0.99548 0.421924,0.65926 0.843848,1.31851 1.318512,1.93162 0.28348,0.38896 0.586738,0.75814 0.883403,1.14051 0.435109,0.54718 0.87681,1.08777 1.318512,1.60859 0.323035,0.37577 0.659255,0.73177 0.995476,1.09436 0.487849,0.50763 0.982291,1.00207 1.496511,1.48992 0.33622,0.32304 0.659256,0.65926 1.035031,0.96251 0.580146,0.51422 1.186661,1.00867 1.799769,1.48992 0.30985,0.23733 0.613108,0.49444 0.929551,0.73178 0.936143,0.65925 1.898657,1.31851 2.894133,1.97776 0.184592,0.11867 0.388961,0.21097 0.573553,0.32304 0.837255,0.48785 1.681102,0.94933 2.55132,1.37784 0.375776,0.1846 0.758144,0.34282 1.140513,0.51422 0.711996,0.32304 1.430585,0.65926 2.168951,0.90978 0.428517,0.16481 0.863626,0.31644 1.318512,0.46807 0.725182,0.24392 1.463548,0.46807 2.208507,0.65925 0.435109,0.11867 0.876811,0.24393 1.318512,0.34941 0.804292,0.19118 1.628362,0.34941 2.459025,0.49444 l 0.158221,0.033 q -0.810885,14.6223 -1.450363,29.26437 A 39.430094,39.430094 0 0 0 20.195117,170.99266 l 6.974927,19.11842 -14.365185,-13.84437 a 39.331206,39.331206 0 0 0 -12.7500088,27.24704 38.520321,38.520321 0 0 0 1.0020689,10.87113 39.449872,39.449872 0 0 0 72.5577019,10.75247 c 0,0.98888 -0.06592,1.97776 -0.0923,2.97324 -0.263702,10.24484 -0.59333,22.99484 4.515903,34.38019 3.461093,7.7133 9.025213,13.97623 14.503629,19.59309 3.57976,3.65887 7.29137,7.19248 11.095277,10.61402 a 39.482835,39.482835 0 0 0 14.25312,11.8666 c 6.24974,4.81916 12.72363,9.34825 19.41508,13.52793 l 4.17968,2.59747 c 3.75776,2.32718 7.60782,4.72027 11.37876,7.20567 -0.65926,-0.0659 -1.31851,-0.13844 -1.97777,-0.17141 a 39.482835,39.482835 0 0 0 -38.85654,25.71098 l 24.65617,20.06116 -27.12179,-6.2893 a 39.482835,39.482835 0 0 0 56.57734,35.54048 q -0.90977,1.14711 -1.83273,2.28103 -1.81954,2.26124 -3.59294,4.49612 c -16.04629,20.31827 -20.50945,39.61469 -12.56542,54.32269 l 9.66469,-5.22131 c -7.73307,-14.31245 3.8962,-32.63976 11.5172,-42.29127 q 1.74044,-2.2085 3.53361,-4.41701 c 10.26462,-12.76979 21.88071,-27.1943 21.59723,-44.9151 -0.42852,-26.69327 -26.37024,-42.75275 -47.16317,-55.66098 z"
     fill="#f2f2f2"
     id="path554"
     style="stroke-width:0.659256" />
  <path
     d="m 529.0154,230.91243 4.14672,-2.57769 c 0.39555,-0.24393 0.78451,-0.50763 1.18006,-0.75815 a 39.463057,39.463057 0 0 1 -3.95553,-76.88901 l -0.20437,16.26384 8.93292,-17.68783 h 0.11207 a 39.456464,39.456464 0 0 1 41.25623,37.57758 c 0.0396,0.75155 0,1.49651 0,2.24147 3.1051,-3.5468 5.93331,-7.3507 7.799,-11.5172 3.77754,-8.43188 3.85005,-17.99109 3.55339,-29.60059 -0.59333,-23.01462 -1.58881,-46.20065 -2.88095,-69.314161 A 39.456464,39.456464 0 0 1 553.9089,41.310436 c -0.0527,-1.206438 -0.033,-2.399691 0,-3.579759 0,-0.296666 0,-0.593331 0.0462,-0.883403 0.0791,-1.147105 0.18459,-2.281026 0.36259,-3.401761 0,-0.184591 0.0659,-0.36259 0.0989,-0.540589 0.15822,-0.949329 0.35599,-1.885472 0.58014,-2.815023 0.0857,-0.342813 0.17141,-0.659256 0.2637,-1.035032 0.27689,-1.002069 0.58015,-1.977767 0.93615,-2.973244 0.11866,-0.323035 0.25711,-0.659256 0.38236,-0.962513 0.27689,-0.718589 0.58015,-1.430586 0.90319,-2.129397 0.1714,-0.369183 0.33622,-0.738366 0.52081,-1.100957 0.0462,-0.0923 0.0791,-0.191184 0.13185,-0.28348 v 0 a 39.423502,39.423502 0 0 1 46.3325,-20.0084161 l -0.2637,21.1621141 8.83403,-17.4834662 a 39.271873,39.271873 0 0 1 18.82835,42.5681522 h 0.0395 c -0.0593,0.28348 -0.14503,0.547182 -0.21096,0.830662 -0.12526,0.520812 -0.25711,1.035032 -0.40215,1.549252 -0.18459,0.659255 -0.39555,1.318511 -0.6131,1.977767 -0.16482,0.481257 -0.32304,0.969106 -0.50763,1.450363 -0.2703,0.698811 -0.57355,1.377845 -0.87681,2.056878 -0.178,0.395554 -0.33622,0.804293 -0.52741,1.193254 q -0.75155,1.536066 -1.63495,2.986429 c -0.20437,0.342813 -0.43511,0.659256 -0.65926,0.995476 -0.42192,0.659256 -0.84384,1.318512 -1.31851,1.93162 -0.28348,0.388961 -0.58674,0.758144 -0.8834,1.140512 -0.43511,0.547183 -0.87681,1.087773 -1.31851,1.608585 -0.32304,0.375776 -0.65926,0.731774 -0.99548,1.094365 -0.48126,0.507627 -0.98229,1.002069 -1.49651,1.489918 -0.33622,0.323035 -0.65926,0.659256 -1.03503,0.962513 -0.58015,0.51422 -1.18666,1.008662 -1.79977,1.489919 -0.30985,0.237332 -0.61311,0.494442 -0.92955,0.731774 -0.93614,0.659256 -1.89866,1.318512 -2.89413,1.944805 -0.1846,0.118666 -0.38897,0.210961 -0.57356,0.323035 -0.83725,0.487849 -1.6811,0.949328 -2.55132,1.377845 -0.37577,0.184591 -0.75814,0.342813 -1.14051,0.514219 -0.712,0.323036 -1.43059,0.659256 -2.16895,0.909773 -0.42852,0.164814 -0.86363,0.316443 -1.31851,0.468072 -0.72519,0.243925 -1.46355,0.468072 -2.20851,0.659256 -0.43511,0.118666 -0.87681,0.243925 -1.31851,0.349406 -0.8043,0.191184 -1.62836,0.349405 -2.45903,0.494442 h -0.15822 q 0.81089,14.628887 1.45036,29.264368 A 39.430094,39.430094 0 0 1 656.11993,90.497517 L 649.145,109.61594 663.497,95.83749 a 39.331206,39.331206 0 0 1 12.75001,27.24705 38.520321,38.520321 0 0 1 -1.00207,10.87112 39.449872,39.449872 0 0 1 -72.5577,10.75247 c 0,0.98888 0.0725,1.97777 0.0923,2.97324 0.2637,10.24484 0.59333,22.99485 -4.51591,34.3802 -3.46109,7.71329 -9.02521,13.97622 -14.50363,19.59308 -3.57975,3.65887 -7.29137,7.19248 -11.09527,10.61402 a 39.482835,39.482835 0 0 1 -14.25311,11.86661 c -6.24975,4.81916 -12.72364,9.34824 -19.41509,13.52793 l -4.17968,2.59746 c -3.75776,2.32718 -7.60781,4.72028 -11.37876,7.20567 0.65926,-0.0659 1.31851,-0.13844 1.97777,-0.1714 a 39.482835,39.482835 0 0 1 38.85654,25.71097 l -24.65617,20.06116 27.12179,-6.2893 a 39.482835,39.482835 0 0 1 -56.57734,35.54048 q 0.90977,1.14711 1.83273,2.28103 1.81955,2.26125 3.59294,4.49612 c 16.04629,20.31827 20.50945,39.61469 12.56542,54.32269 l -9.66469,-5.22131 c 7.73307,-14.31244 -3.8962,-32.63976 -11.5172,-42.29126 q -1.74044,-2.20851 -3.53361,-4.41702 c -10.25143,-12.73682 -21.86752,-27.17452 -21.58404,-44.88214 0.42852,-26.72623 26.34387,-42.7857 47.16317,-55.69393 z"
     fill="#f2f2f2"
     id="path556"
     style="stroke-width:0.659256" />
  <ellipse
     cx="423.73883"
     cy="466.85349"
     rx="326.45032"
     ry="21.755444"
     fill="#f2f2f2"
     id="ellipse558"
     style="stroke-width:0.659256" />
  <polygon
     points="481.19,706.88 481.71,702.31 490.33,626.92 646.82,626.92 658.33,702.31 659.21,708.02 659.38,709.16 "
     fill="#2f2e41"
     id="polygon560"
     transform="matrix(0.65925588,0,0,0.65925588,0.00210973,-0.00512983)" />
  <polygon
     points="570.28,708.02 481.19,706.88 481.71,702.31 658.33,702.31 659.21,708.02 "
     opacity="0.1"
     id="polygon562"
     transform="matrix(0.65925588,0,0,0.65925588,0.00210973,-0.00512983)" />
  <rect
     x="297.64954"
     y="463.74841"
     width="155.88106"
     height="3.7643511"
     fill="#3f3d56"
     id="rect564"
     style="stroke-width:0.659256" />
  <path
     d="m 602.25872,114.77791 a 9.8031349,9.8031349 0 0 0 -9.75698,-9.84928 H 157.1819 a 9.8031349,9.8031349 0 0 0 -9.75699,9.84928 v 263.87376 h 454.83381 z"
     fill="#3f3d56"
     id="path566"
     style="stroke-width:0.659256" />
  <path
     d="m 147.42491,376.02124 v 30.90591 a 9.756987,9.756987 0 0 0 9.75699,9.75699 h 435.31984 a 9.756987,9.756987 0 0 0 9.75698,-9.75699 v -30.90591 z"
     fill="#3f3d56"
     id="path568"
     style="stroke-width:0.659256" />
  <rect
     x="166.24666"
     y="121.49573"
     width="419.43835"
     height="237.20686"
     fill="#2f2e41"
     id="rect570"
     style="stroke-width:0.659256" />
  <path
     d="m 377.07669,404.95598 a 10.152541,10.152541 0 0 0 7.99678,-3.88302 v 0 a 10.07343,10.07343 0 0 0 0.79111,-1.16688 l -5.57731,-0.91637 6.03219,0.0462 a 10.218466,10.218466 0 0 0 0.19778,-8.05611 l -8.09566,4.19946 7.46277,-5.48501 a 10.165726,10.165726 0 1 0 -16.79124,11.37876 v 0 a 10.152541,10.152541 0 0 0 7.98358,3.88302 z"
     fill="#03bcff"
     id="path572"
     style="stroke-width:0.659256" />
  <polygon
     points="658.51,703.45 647.6,632.06 587.42,632.06 "
     opacity="0.1"
     id="polygon574"
     transform="matrix(0.65925588,0,0,0.65925588,0.00210973,-0.00512983)" />
  <path
     d="m 513.13392,448.80309 12.62475,-7.38367 a 30.569695,30.569695 0 0 0 -6.45411,-7.71989 l -23.80573,7.40345 18.65035,-10.97002 a 30.32577,30.32577 0 0 0 -44.89533,26.60098 c 0,16.75169 13.58067,17.33183 30.32577,17.33183 16.7451,0 30.32577,-0.58014 30.32577,-17.33183 a 30.259845,30.259845 0 0 0 -2.59747,-12.30172 z"
     fill="#57b894"
     id="path576"
     style="stroke-width:0.659256" />
  <path
     d="m 516.35109,465.08671 a 23.865063,23.865063 0 0 0 -4.47635,-3.51384 c -2.28761,-1.52288 -4.66094,-3.07213 -7.36388,-3.59294 -2.36673,-0.45489 -4.81916,-0.0725 -7.25182,-0.20437 a 16.909913,16.909913 0 0 1 -11.08209,-5.08286 c -1.72725,-1.77999 -3.07873,-3.95554 -5.15538,-5.33338 -2.23488,-1.46355 -5.06968,-1.77999 -7.7133,-1.4174 a 20.707227,20.707227 0 0 0 -2.28761,0.47466 30.193919,30.193919 0 0 0 -1.79318,10.28439 c 0,16.75169 13.58067,17.33184 30.32577,17.33184 8.12863,0 15.51229,-0.13844 20.95775,-2.19532 l -0.90978,-1.70088 a 23.785952,23.785952 0 0 0 -3.25013,-5.0499 z"
     opacity="0.1"
     id="path578"
     style="stroke-width:0.659256" />
  <rect
     x="184.87723"
     y="213.00703"
     width="13.943261"
     height="4.2324228"
     fill="#03bcff"
     opacity="0.3"
     id="rect580"
     style="stroke-width:0.659256" />
  <rect
     x="556.92828"
     y="213.13229"
     width="13.943261"
     height="4.2324228"
     fill="#03bcff"
     opacity="0.3"
     id="rect582"
     style="stroke-width:0.659256" />
  <rect
     x="185.00249"
     y="242.75925"
     width="13.943261"
     height="4.2324228"
     fill="#03bcff"
     opacity="0.3"
     id="rect584"
     style="stroke-width:0.659256" />
  <rect
     x="185.12775"
     y="272.51147"
     width="13.943261"
     height="4.2324228"
     fill="#03bcff"
     opacity="0.3"
     id="rect586"
     style="stroke-width:0.659256" />
  <rect
     x="185.25301"
     y="302.25708"
     width="13.943261"
     height="4.2324228"
     fill="#03bcff"
     opacity="0.3"
     id="rect588"
     style="stroke-width:0.659256" />
  <g
     opacity="0.2"
     id="g602"
     transform="matrix(0.65925588,0,0,0.65925588,0.00210973,-0.00512983)">
    <rect
       x="301.57999"
       y="326.20001"
       width="6"
       height="0.25"
       fill="#f2f2f2"
       id="rect590" />
    <path
       d="m 857.64,405.87 h -11.79 v -0.25 h 11.79 z m -23.59,0 h -11.79 v -0.25 h 11.79 z m -23.59,0 h -11.8 v -0.25 h 11.8 z m -23.59,0 h -11.8 v -0.25 h 11.8 z m -23.59,0 h -11.8 v -0.25 h 11.8 z m -23.6,0 h -11.79 v -0.25 h 11.79 z m -23.59,0 h -11.8 v -0.25 h 11.8 z m -23.59,0 h -11.8 v -0.25 h 11.8 z m -23.59,0 h -11.8 v -0.25 h 11.8 z m -23.6,0 h -11.79 v -0.25 h 11.79 z m -23.59,0 h -11.8 v -0.25 h 11.8 z m -23.59,0 h -11.8 v -0.25 h 11.8 z m -23.59,0 h -11.8 v -0.25 h 11.8 z m -23.6,0 h -11.79 v -0.25 h 11.79 z m -23.59,0 h -11.79 v -0.25 h 11.79 z m -23.59,0 H 492 v -0.25 h 11.8 z m -23.59,0 h -11.8 v -0.25 h 11.8 z m -23.6,0 h -11.79 v -0.25 h 11.79 z m -23.59,0 h -11.79 v -0.25 H 433 Z m -23.59,0 h -11.8 v -0.25 h 11.8 z m -23.59,0 H 374 v -0.25 h 11.8 z m -23.6,0 h -11.79 v -0.25 h 11.79 z"
       transform="translate(-31.03,-79.42)"
       fill="#f2f2f2"
       id="path592" />
    <rect
       x="838.40997"
       y="326.20001"
       width="6"
       height="0.25"
       fill="#f2f2f2"
       id="rect594" />
    <rect
       x="301.57999"
       y="326.20001"
       width="6"
       height="0.25"
       fill="#f2f2f2"
       id="rect596" />
    <path
       d="m 857.64,405.87 h -11.79 v -0.25 h 11.79 z m -23.59,0 h -11.79 v -0.25 h 11.79 z m -23.59,0 h -11.8 v -0.25 h 11.8 z m -23.59,0 h -11.8 v -0.25 h 11.8 z m -23.59,0 h -11.8 v -0.25 h 11.8 z m -23.6,0 h -11.79 v -0.25 h 11.79 z m -23.59,0 h -11.8 v -0.25 h 11.8 z m -23.59,0 h -11.8 v -0.25 h 11.8 z m -23.59,0 h -11.8 v -0.25 h 11.8 z m -23.6,0 h -11.79 v -0.25 h 11.79 z m -23.59,0 h -11.8 v -0.25 h 11.8 z m -23.59,0 h -11.8 v -0.25 h 11.8 z m -23.59,0 h -11.8 v -0.25 h 11.8 z m -23.6,0 h -11.79 v -0.25 h 11.79 z m -23.59,0 h -11.79 v -0.25 h 11.79 z m -23.59,0 H 492 v -0.25 h 11.8 z m -23.59,0 h -11.8 v -0.25 h 11.8 z m -23.6,0 h -11.79 v -0.25 h 11.79 z m -23.59,0 h -11.79 v -0.25 H 433 Z m -23.59,0 h -11.8 v -0.25 h 11.8 z m -23.59,0 H 374 v -0.25 h 11.8 z m -23.6,0 h -11.79 v -0.25 h 11.79 z"
       transform="translate(-31.03,-79.42)"
       fill="#f2f2f2"
       id="path598" />
    <rect
       x="838.40997"
       y="326.20001"
       width="6"
       height="0.25"
       fill="#f2f2f2"
       id="rect600" />
  </g>
  <rect
     x="184.87723"
     y="183.34052"
     width="13.943261"
     height="4.2324228"
     fill="#03bcff"
     opacity="0.3"
     id="rect604"
     style="stroke-width:0.659256" />
  <rect
     x="556.92828"
     y="183.46577"
     width="13.943261"
     height="4.2324228"
     fill="#03bcff"
     opacity="0.3"
     id="rect606"
     style="stroke-width:0.659256" />
  <g
     opacity="0.2"
     id="g614"
     transform="matrix(0.65925588,0,0,0.65925588,0.00210973,-0.00512983)">
    <rect
       x="301.57999"
       y="281.20001"
       width="6"
       height="0.25"
       fill="#f2f2f2"
       id="rect608" />
    <path
       d="m 857.64,360.87 h -11.79 v -0.25 h 11.79 z m -23.59,0 h -11.79 v -0.25 h 11.79 z m -23.59,0 h -11.8 v -0.25 h 11.8 z m -23.59,0 h -11.8 v -0.25 h 11.8 z m -23.59,0 h -11.8 v -0.25 h 11.8 z m -23.6,0 h -11.79 v -0.25 h 11.79 z m -23.59,0 h -11.8 v -0.25 h 11.8 z m -23.59,0 h -11.8 v -0.25 h 11.8 z m -23.59,0 h -11.8 v -0.25 h 11.8 z m -23.6,0 h -11.79 v -0.25 h 11.79 z m -23.59,0 h -11.8 v -0.25 h 11.8 z m -23.59,0 h -11.8 v -0.25 h 11.8 z m -23.59,0 h -11.8 v -0.25 h 11.8 z m -23.6,0 h -11.79 v -0.25 h 11.79 z m -23.59,0 h -11.79 v -0.25 h 11.79 z m -23.59,0 H 492 v -0.25 h 11.8 z m -23.59,0 h -11.8 v -0.25 h 11.8 z m -23.6,0 h -11.79 v -0.25 h 11.79 z m -23.59,0 h -11.79 v -0.25 H 433 Z m -23.59,0 h -11.8 v -0.25 h 11.8 z m -23.59,0 H 374 v -0.25 h 11.8 z m -23.6,0 h -11.79 v -0.25 h 11.79 z"
       transform="translate(-31.03,-79.42)"
       fill="#f2f2f2"
       id="path610" />
    <rect
       x="838.40997"
       y="281.20001"
       width="6"
       height="0.25"
       fill="#f2f2f2"
       id="rect612" />
  </g>
  <rect
     x="556.92828"
     y="242.75925"
     width="13.943261"
     height="4.2324228"
     fill="#03bcff"
     opacity="0.3"
     id="rect616"
     style="stroke-width:0.659256" />
  <g
     opacity="0.2"
     id="g630"
     transform="matrix(0.65925588,0,0,0.65925588,0.00210973,-0.00512983)">
    <rect
       x="301.57999"
       y="371.14001"
       width="6"
       height="0.25"
       fill="#f2f2f2"
       id="rect618" />
    <path
       d="m 857.64,450.8 h -11.79 v -0.25 h 11.79 z m -23.59,0 h -11.79 v -0.25 h 11.79 z m -23.59,0 h -11.8 v -0.25 h 11.8 z m -23.59,0 h -11.8 v -0.25 h 11.8 z m -23.59,0 h -11.8 v -0.25 h 11.8 z m -23.6,0 h -11.79 v -0.25 h 11.79 z m -23.59,0 h -11.8 v -0.25 h 11.8 z m -23.59,0 h -11.8 v -0.25 h 11.8 z m -23.59,0 h -11.8 v -0.25 h 11.8 z m -23.6,0 h -11.79 v -0.25 h 11.79 z m -23.59,0 h -11.8 v -0.25 h 11.8 z m -23.59,0 h -11.8 v -0.25 h 11.8 z m -23.59,0 h -11.8 v -0.25 h 11.8 z m -23.6,0 h -11.79 v -0.25 h 11.79 z m -23.59,0 h -11.79 v -0.25 h 11.79 z m -23.59,0 H 492 v -0.25 h 11.8 z m -23.59,0 h -11.8 v -0.25 h 11.8 z m -23.6,0 h -11.79 v -0.25 h 11.79 z m -23.59,0 h -11.79 v -0.25 H 433 Z m -23.59,0 h -11.8 v -0.25 h 11.8 z m -23.59,0 H 374 v -0.25 h 11.8 z m -23.6,0 h -11.79 v -0.25 h 11.79 z"
       transform="translate(-31.03,-79.42)"
       fill="#f2f2f2"
       id="path620" />
    <rect
       x="838.40997"
       y="371.14001"
       width="6"
       height="0.25"
       fill="#f2f2f2"
       id="rect622" />
    <rect
       x="301.57999"
       y="371.14001"
       width="6"
       height="0.25"
       fill="#f2f2f2"
       id="rect624" />
    <path
       d="m 857.64,450.8 h -11.79 v -0.25 h 11.79 z m -23.59,0 h -11.79 v -0.25 h 11.79 z m -23.59,0 h -11.8 v -0.25 h 11.8 z m -23.59,0 h -11.8 v -0.25 h 11.8 z m -23.59,0 h -11.8 v -0.25 h 11.8 z m -23.6,0 h -11.79 v -0.25 h 11.79 z m -23.59,0 h -11.8 v -0.25 h 11.8 z m -23.59,0 h -11.8 v -0.25 h 11.8 z m -23.59,0 h -11.8 v -0.25 h 11.8 z m -23.6,0 h -11.79 v -0.25 h 11.79 z m -23.59,0 h -11.8 v -0.25 h 11.8 z m -23.59,0 h -11.8 v -0.25 h 11.8 z m -23.59,0 h -11.8 v -0.25 h 11.8 z m -23.6,0 h -11.79 v -0.25 h 11.79 z m -23.59,0 h -11.79 v -0.25 h 11.79 z m -23.59,0 H 492 v -0.25 h 11.8 z m -23.59,0 h -11.8 v -0.25 h 11.8 z m -23.6,0 h -11.79 v -0.25 h 11.79 z m -23.59,0 h -11.79 v -0.25 H 433 Z m -23.59,0 h -11.8 v -0.25 h 11.8 z m -23.59,0 H 374 v -0.25 h 11.8 z m -23.6,0 h -11.79 v -0.25 h 11.79 z"
       transform="translate(-31.03,-79.42)"
       fill="#f2f2f2"
       id="path626" />
    <rect
       x="838.40997"
       y="371.14001"
       width="6"
       height="0.25"
       fill="#f2f2f2"
       id="rect628" />
  </g>
  <rect
     x="556.92828"
     y="272.3862"
     width="13.943261"
     height="4.2324228"
     fill="#03bcff"
     opacity="0.3"
     id="rect632"
     style="stroke-width:0.659256" />
  <g
     opacity="0.2"
     id="g646"
     transform="matrix(0.65925588,0,0,0.65925588,0.00210973,-0.00512983)">
    <rect
       x="301.57999"
       y="416.07001"
       width="6"
       height="0.25"
       fill="#f2f2f2"
       id="rect634" />
    <path
       d="m 857.64,495.74 h -11.79 v -0.25 h 11.79 z m -23.59,0 h -11.79 v -0.25 h 11.79 z m -23.59,0 h -11.8 v -0.25 h 11.8 z m -23.59,0 h -11.8 v -0.25 h 11.8 z m -23.59,0 h -11.8 v -0.25 h 11.8 z m -23.6,0 h -11.79 v -0.25 h 11.79 z m -23.59,0 h -11.8 v -0.25 h 11.8 z m -23.59,0 h -11.8 v -0.25 h 11.8 z m -23.59,0 h -11.8 v -0.25 h 11.8 z m -23.6,0 h -11.79 v -0.25 h 11.79 z m -23.59,0 h -11.8 v -0.25 h 11.8 z m -23.59,0 h -11.8 v -0.25 h 11.8 z m -23.59,0 h -11.8 v -0.25 h 11.8 z m -23.6,0 h -11.79 v -0.25 h 11.79 z m -23.59,0 h -11.79 v -0.25 h 11.79 z m -23.59,0 H 492 v -0.25 h 11.8 z m -23.59,0 h -11.8 v -0.25 h 11.8 z m -23.6,0 h -11.79 v -0.25 h 11.79 z m -23.59,0 h -11.79 v -0.25 H 433 Z m -23.59,0 h -11.8 v -0.25 h 11.8 z m -23.59,0 H 374 v -0.25 h 11.8 z m -23.6,0 h -11.79 v -0.25 h 11.79 z"
       transform="translate(-31.03,-79.42)"
       fill="#f2f2f2"
       id="path636" />
    <rect
       x="838.40997"
       y="416.07001"
       width="6"
       height="0.25"
       fill="#f2f2f2"
       id="rect638" />
    <rect
       x="301.57999"
       y="416.07001"
       width="6"
       height="0.25"
       fill="#f2f2f2"
       id="rect640" />
    <path
       d="m 857.64,495.74 h -11.79 v -0.25 h 11.79 z m -23.59,0 h -11.79 v -0.25 h 11.79 z m -23.59,0 h -11.8 v -0.25 h 11.8 z m -23.59,0 h -11.8 v -0.25 h 11.8 z m -23.59,0 h -11.8 v -0.25 h 11.8 z m -23.6,0 h -11.79 v -0.25 h 11.79 z m -23.59,0 h -11.8 v -0.25 h 11.8 z m -23.59,0 h -11.8 v -0.25 h 11.8 z m -23.59,0 h -11.8 v -0.25 h 11.8 z m -23.6,0 h -11.79 v -0.25 h 11.79 z m -23.59,0 h -11.8 v -0.25 h 11.8 z m -23.59,0 h -11.8 v -0.25 h 11.8 z m -23.59,0 h -11.8 v -0.25 h 11.8 z m -23.6,0 h -11.79 v -0.25 h 11.79 z m -23.59,0 h -11.79 v -0.25 h 11.79 z m -23.59,0 H 492 v -0.25 h 11.8 z m -23.59,0 h -11.8 v -0.25 h 11.8 z m -23.6,0 h -11.79 v -0.25 h 11.79 z m -23.59,0 h -11.79 v -0.25 H 433 Z m -23.59,0 h -11.8 v -0.25 h 11.8 z m -23.59,0 H 374 v -0.25 h 11.8 z m -23.6,0 h -11.79 v -0.25 h 11.79 z"
       transform="translate(-31.03,-79.42)"
       fill="#f2f2f2"
       id="path642" />
    <rect
       x="838.40997"
       y="416.07001"
       width="6"
       height="0.25"
       fill="#f2f2f2"
       id="rect644" />
  </g>
  <rect
     x="556.92828"
     y="302.00656"
     width="13.943261"
     height="4.2324228"
     fill="#03bcff"
     opacity="0.3"
     id="rect648"
     style="stroke-width:0.659256" />
  <g
     opacity="0.2"
     id="g662"
     transform="matrix(0.65925588,0,0,0.65925588,0.00210973,-0.00512983)">
    <rect
       x="301.57999"
       y="461.01001"
       width="6"
       height="0.25"
       fill="#f2f2f2"
       id="rect650" />
    <path
       d="m 857.64,540.68 h -11.79 v -0.25 h 11.79 z m -23.59,0 h -11.79 v -0.25 h 11.79 z m -23.59,0 h -11.8 v -0.25 h 11.8 z m -23.59,0 h -11.8 v -0.25 h 11.8 z m -23.59,0 h -11.8 v -0.25 h 11.8 z m -23.6,0 h -11.79 v -0.25 h 11.79 z m -23.59,0 h -11.8 v -0.25 h 11.8 z m -23.59,0 h -11.8 v -0.25 h 11.8 z m -23.59,0 h -11.8 v -0.25 h 11.8 z m -23.6,0 h -11.79 v -0.25 h 11.79 z m -23.59,0 h -11.8 v -0.25 h 11.8 z m -23.59,0 h -11.8 v -0.25 h 11.8 z m -23.59,0 h -11.8 v -0.25 h 11.8 z m -23.6,0 h -11.79 v -0.25 h 11.79 z m -23.59,0 h -11.79 v -0.25 h 11.79 z m -23.59,0 H 492 v -0.25 h 11.8 z m -23.59,0 h -11.8 v -0.25 h 11.8 z m -23.6,0 h -11.79 v -0.25 h 11.79 z m -23.59,0 h -11.79 v -0.25 H 433 Z m -23.59,0 h -11.8 v -0.25 h 11.8 z m -23.59,0 H 374 v -0.25 h 11.8 z m -23.6,0 h -11.79 v -0.25 h 11.79 z"
       transform="translate(-31.03,-79.42)"
       fill="#f2f2f2"
       id="path652" />
    <rect
       x="838.40997"
       y="461.01001"
       width="6"
       height="0.25"
       fill="#f2f2f2"
       id="rect654" />
    <rect
       x="301.57999"
       y="461.01001"
       width="6"
       height="0.25"
       fill="#f2f2f2"
       id="rect656" />
    <path
       d="m 857.64,540.68 h -11.79 v -0.25 h 11.79 z m -23.59,0 h -11.79 v -0.25 h 11.79 z m -23.59,0 h -11.8 v -0.25 h 11.8 z m -23.59,0 h -11.8 v -0.25 h 11.8 z m -23.59,0 h -11.8 v -0.25 h 11.8 z m -23.6,0 h -11.79 v -0.25 h 11.79 z m -23.59,0 h -11.8 v -0.25 h 11.8 z m -23.59,0 h -11.8 v -0.25 h 11.8 z m -23.59,0 h -11.8 v -0.25 h 11.8 z m -23.6,0 h -11.79 v -0.25 h 11.79 z m -23.59,0 h -11.8 v -0.25 h 11.8 z m -23.59,0 h -11.8 v -0.25 h 11.8 z m -23.59,0 h -11.8 v -0.25 h 11.8 z m -23.6,0 h -11.79 v -0.25 h 11.79 z m -23.59,0 h -11.79 v -0.25 h 11.79 z m -23.59,0 H 492 v -0.25 h 11.8 z m -23.59,0 h -11.8 v -0.25 h 11.8 z m -23.6,0 h -11.79 v -0.25 h 11.79 z m -23.59,0 h -11.79 v -0.25 H 433 Z m -23.59,0 h -11.8 v -0.25 h 11.8 z m -23.59,0 H 374 v -0.25 h 11.8 z m -23.6,0 h -11.79 v -0.25 h 11.79 z"
       transform="translate(-31.03,-79.42)"
       fill="#f2f2f2"
       id="path658" />
    <rect
       x="838.40997"
       y="461.01001"
       width="6"
       height="0.25"
       fill="#f2f2f2"
       id="rect660" />
  </g>
  <line
     x1="244.27618"
     y1="185.582"
     x2="244.27618"
     y2="304.37332"
     fill="none"
     stroke="#f2f2f2"
     stroke-miterlimit="10"
     stroke-width="0.0659256"
     id="line664" />
  <line
     x1="292.40186"
     y1="185.582"
     x2="292.40186"
     y2="304.37332"
     fill="none"
     stroke="#f2f2f2"
     stroke-miterlimit="10"
     stroke-width="0.0659256"
     id="line666" />
  <line
     x1="340.52756"
     y1="185.582"
     x2="340.52756"
     y2="304.37332"
     fill="none"
     stroke="#f2f2f2"
     stroke-miterlimit="10"
     stroke-width="0.0659256"
     id="line668" />
  <line
     x1="388.65326"
     y1="185.582"
     x2="388.65326"
     y2="304.37332"
     fill="none"
     stroke="#f2f2f2"
     stroke-miterlimit="10"
     stroke-width="0.0659256"
     id="line670" />
  <line
     x1="436.77893"
     y1="185.582"
     x2="436.77893"
     y2="304.37332"
     fill="none"
     stroke="#f2f2f2"
     stroke-miterlimit="10"
     stroke-width="0.0659256"
     id="line672" />
  <line
     x1="484.9046"
     y1="185.582"
     x2="484.9046"
     y2="304.37332"
     fill="none"
     stroke="#f2f2f2"
     stroke-miterlimit="10"
     stroke-width="0.0659256"
     id="line674" />
  <line
     x1="533.03027"
     y1="185.582"
     x2="533.03027"
     y2="304.37332"
     fill="none"
     stroke="#f2f2f2"
     stroke-miterlimit="10"
     stroke-width="0.0659256"
     id="line676" />
  <path
     d="m 543.43992,177.56544 -5.50479,5.73553 a 1.6811025,1.6811025 0 0 0 -0.27689,0.40214 l -3.41494,7.03426 a 1.5558439,1.5558439 0 0 1 -1.52289,0.87681 l -1.09436,-0.0857 a 1.5558439,1.5558439 0 0 1 -1.38444,-1.12073 l -1.05481,-3.65228 a 1.5624364,1.5624364 0 0 0 -2.97983,-0.0725 l -1.7734,5.19494 a 1.5624364,1.5624364 0 0 1 -1.48333,1.0614 h -6.77056 a 1.569029,1.569029 0 0 1 -1.54265,-1.31851 l -1.91185,-11.9655 a 1.5624364,1.5624364 0 0 0 -2.94028,-0.46148 l -9.80313,19.34916 a 1.5624364,1.5624364 0 0 1 -2.29421,0.57356 l -5.82782,-4.11376 a 1.5756215,1.5756215 0 0 0 -2.08985,0.25052 l -2.2085,2.55132 a 1.4899183,1.4899183 0 0 0 -0.17141,0.24392 l -5.89375,10.19869 a 1.5492513,1.5492513 0 0 1 -1.50969,0.77133 l -3.59295,-0.356 a 1.5756215,1.5756215 0 0 0 -0.73836,0.10548 l -3.21717,1.28555 a 1.5624364,1.5624364 0 0 1 -1.97777,-0.82407 l -0.7054,-1.61518 a 1.569029,1.569029 0 0 0 -1.50311,-0.93614 l -3.67865,0.17141 a 1.5426588,1.5426588 0 0 0 -1.16688,0.61311 l -1.04162,1.35806 a 1.5624364,1.5624364 0 0 1 -2.71614,-0.43511 l -1.31851,-3.72479 a 1.5624364,1.5624364 0 0 0 -2.41288,-0.73178 l -6.26293,4.69391 -6.92218,5.58389 a 1.569029,1.569029 0 0 1 -1.70088,0.17141 l -5.37294,-2.78865 a 1.5756215,1.5756215 0 0 0 -0.93614,-0.15822 l -10.88432,1.52288 a 1.569029,1.569029 0 0 0 -1.31851,1.19984 l -1.93162,8.39233 a 1.5624364,1.5624364 0 0 1 -2.53813,0.83725 v 0 a 1.569029,1.569029 0 0 0 -2.41947,0.48785 l -1.48333,2.97325 a 1.5822141,1.5822141 0 0 1 -1.14051,0.84385 l -3.3688,0.56036 a 1.569029,1.569029 0 0 0 -0.60651,0.24393 l -5.30701,3.53361 a 1.5492513,1.5492513 0 0 1 -0.86363,0.2637 h -2.48539 a 1.5624364,1.5624364 0 0 1 -1.43718,-0.94273 l -0.65926,-1.57563 a 1.5624364,1.5624364 0 0 0 -2.09643,-0.78451 l -5.7619,2.69636 a 1.569029,1.569029 0 0 1 -1.47014,-0.0725 l -2.63702,-1.58881 a 1.5756215,1.5756215 0 0 0 -0.80429,-0.22415 h -5.82123 a 1.5624364,1.5624364 0 0 0 -0.86363,0.26371 l -5.80804,3.85664 a 1.5624364,1.5624364 0 0 1 -1.52948,0.11208 l -2.63702,-1.246 a 1.5624364,1.5624364 0 0 0 -1.83932,0.38896 l -1.25259,1.43059 a 1.5558439,1.5558439 0 0 1 -2.53813,-0.2637 l -0.37578,-0.65926 A 1.5624364,1.5624364 0 0 0 360.681,233.1012 l -4.56864,2.70954 a 1.5624364,1.5624364 0 0 1 -1.55585,0 l -1.88547,-1.04822 a 1.5492513,1.5492513 0 0 0 -1.40421,-0.0593 l -1.79318,0.81748 a 1.5756215,1.5756215 0 0 1 -2.14258,-0.94933 l -1.16029,-3.4545 a 1.5492513,1.5492513 0 0 0 -1.48992,-1.08778 h -1.68769 a 1.5294736,1.5294736 0 0 1 -0.75815,-0.19777 l -6.48048,-3.55339 a 1.569029,1.569029 0 0 0 -1.6877,0.12526 l -4.75323,3.55998 a 1.5492513,1.5492513 0 0 1 -0.93615,0.30985 h -5.97945 a 1.5492513,1.5492513 0 0 0 -0.86362,0.2637 l -1.12074,0.74496 a 1.5624364,1.5624364 0 0 1 -2.26784,-0.59992 l -0.27029,-0.534 a 1.5558439,1.5558439 0 0 0 -1.39763,-0.87022 h -2.99961 a 1.5624364,1.5624364 0 0 0 -1.23281,0.60652 l -1.8591,2.37991 a 1.5624364,1.5624364 0 0 1 -2.55132,-0.12526 l -0.52741,-0.82407 a 1.5558439,1.5558439 0 0 0 -2.1228,-0.50103 l -1.54266,0.92296 a 1.569029,1.569029 0 0 1 -1.72066,-0.0725 l -6.21678,-4.50272 a 1.8854718,1.8854718 0 0 0 -0.356,-0.19778 l -4.85871,-1.86569 a 1.5624364,1.5624364 0 0 0 -1.97777,0.87022 l -3.38198,8.2407 a 1.4108076,1.4108076 0 0 0 -0.0989,0.36259 l -1.09437,7.42322 a 1.569029,1.569029 0 0 1 -0.40873,0.83725 l -2.31399,2.4854 a 1.5756215,1.5756215 0 0 1 -1.90525,0.29666 l -4.01487,-2.22828 a 1.5624364,1.5624364 0 0 0 -2.24147,0.85703 l -2.54473,7.443 a 1.4965108,1.4965108 0 0 0 -0.0857,0.50763 v 4.6939 a 1.5624364,1.5624364 0 0 1 -0.94274,1.43058 l -4.08079,1.80636 a 1.5624364,1.5624364 0 0 1 -1.4174,-0.0923 l -3.07213,-1.80636 a 1.5624364,1.5624364 0 0 0 -1.01526,-0.19778 l -5.38612,0.77133 a 1.5558439,1.5558439 0 0 1 -1.56903,-0.76474 l -0.90977,-1.55584 a 1.5492513,1.5492513 0 0 0 -0.8834,-0.69881 l -2.44584,-0.76474 a 1.5558439,1.5558439 0 0 0 -1.62836,0.4417 l -3.39517,3.77095 a 1.5822141,1.5822141 0 0 1 -1.03503,0.51422 l -5.01035,0.42192 a 1.4767332,1.4767332 0 0 0 -0.65925,0.19778 l -8.73515,5.02353 a 1.569029,1.569029 0 0 1 -1.75362,-0.13845 l -2.4788,-1.97776 a 1.5822141,1.5822141 0 0 0 -0.9757,-0.34282 h -9.3878 a 1.5492513,1.5492513 0 0 1 -1.21962,-0.58674 l -2.36673,-2.95346 a 1.5624364,1.5624364 0 0 0 -2.37992,-0.0659 l -2.84798,3.16443 a 1.5624364,1.5624364 0 0 0 -0.40215,1.04162 v 39.31803 a 1.5624364,1.5624364 0 0 0 1.56244,1.56243 h 338.67952 a 1.5624364,1.5624364 0 0 0 1.56244,-1.56903 l -0.0923,-124.15766 a 1.569029,1.569029 0 0 0 -2.69635,-1.11414 z"
     fill="#03bcff"
     opacity="0.3"
     id="path678"
     style="stroke-width:0.659256" />
  <path
     d="m 543.13666,228.47977 -5.10264,3.40176 a 1.9777676,1.9777676 0 0 0 -0.46807,0.4417 l -3.17103,4.18628 a 1.9777676,1.9777676 0 0 1 -1.63495,0.76474 l -1.03503,-0.0527 a 1.9382123,1.9382123 0 0 1 -1.66792,-1.13392 l -0.65925,-1.40422 a 1.9250272,1.9250272 0 0 0 -3.4611,-0.11207 l -1.31851,2.52495 a 1.9250272,1.9250272 0 0 1 -1.70747,1.02184 h -6.53982 a 1.9184346,1.9184346 0 0 1 -1.87229,-1.46354 l -1.56903,-6.28271 a 1.9316197,1.9316197 0 0 0 -3.38857,-0.73178 l -9.42736,11.91935 a 1.9184346,1.9184346 0 0 1 -2.3074,0.56037 l -6.05856,-2.73592 a 1.9316197,1.9316197 0 0 0 -1.97777,0.20437 l -2.16895,1.602 a 1.793176,1.793176 0 0 0 -0.28348,0.2637 l -5.72234,6.33545 a 1.9316197,1.9316197 0 0 1 -1.55584,0.65925 l -3.73798,-0.23733 a 2.0832486,2.0832486 0 0 0 -0.60652,0.0527 l -3.3688,0.86363 a 1.9250272,1.9250272 0 0 1 -2.07665,-0.77793 l -0.38237,-0.56696 a 1.9316197,1.9316197 0 0 0 -1.64814,-0.83725 l -3.75776,0.11207 a 1.8591016,1.8591016 0 0 0 -1.18007,0.4483 l -0.92296,0.77133 a 1.9316197,1.9316197 0 0 1 -2.93368,-0.54719 l -0.9757,-1.7668 a 1.9316197,1.9316197 0 0 0 -2.52495,-0.81089 l -6.32227,3.03917 -6.9947,3.61273 a 1.9184346,1.9184346 0 0 1 -1.48992,0.11207 l -5.57071,-1.84592 a 1.9777676,1.9777676 0 0 0 -0.77792,-0.0923 l -10.78543,0.91636 a 1.9777676,1.9777676 0 0 0 -1.64814,1.27237 l -1.56244,4.36427 a 1.9316197,1.9316197 0 0 1 -2.7425,1.04162 l -0.0659,-0.033 a 1.9184346,1.9184346 0 0 0 -2.44584,0.50104 l -1.22621,1.56903 a 1.9777676,1.9777676 0 0 1 -1.31851,0.73177 l -3.37539,0.36259 a 1.9777676,1.9777676 0 0 0 -0.55378,0.13844 l -5.34656,2.28762 a 2.017323,2.017323 0 0 1 -0.75815,0.15163 h -2.5711 a 1.9316197,1.9316197 0 0 1 -1.59539,-0.84385 l -0.36919,-0.54059 a 1.9316197,1.9316197 0 0 0 -2.14917,-0.75814 l -5.99264,1.81295 a 1.9382123,1.9382123 0 0 1 -1.25258,-0.0462 l -2.78206,-1.06799 a 1.8986569,1.8986569 0 0 0 -0.65926,-0.13185 h -5.97286 a 1.852509,1.852509 0 0 0 -0.75155,0.15822 l -5.9333,2.51836 a 1.911842,1.911842 0 0 1 -1.31851,0.0725 l -2.93369,-0.87681 a 1.9382123,1.9382123 0 0 0 -1.69429,0.29007 l -1.28555,0.94273 a 1.9316197,1.9316197 0 0 1 -2.59088,-0.28348 l -0.19118,-0.21755 a 1.9316197,1.9316197 0 0 0 -2.13599,-0.534 l -4.7796,1.82614 a 1.9250272,1.9250272 0 0 1 -1.31852,0 l -2.09643,-0.75155 a 1.9777676,1.9777676 0 0 0 -1.18666,-0.033 l -1.97777,0.57355 a 1.9316197,1.9316197 0 0 1 -2.26125,-0.98888 l -0.73836,-1.48333 a 1.9382123,1.9382123 0 0 0 -1.72725,-1.06799 h -1.71407 a 1.911842,1.911842 0 0 1 -0.65925,-0.10549 l -6.65189,-2.33376 a 1.911842,1.911842 0 0 0 -1.47674,0.0791 l -4.85871,2.33376 a 1.9777676,1.9777676 0 0 1 -0.83726,0.19119 h -6.13767 a 2.017323,2.017323 0 0 0 -0.75815,0.15163 l -1.25258,0.54059 a 1.9382123,1.9382123 0 0 1 -2.28103,-0.58674 v 0 a 1.9250272,1.9250272 0 0 0 -1.52288,-0.74496 h -3.0985 a 1.9382123,1.9382123 0 0 0 -1.22622,0.43511 l -1.79977,1.47673 a 1.9184346,1.9184346 0 0 1 -2.59087,-0.13185 l -0.40874,-0.40874 a 1.9316197,1.9316197 0 0 0 -2.06347,-0.4417 l -1.79318,0.69222 a 1.9777676,1.9777676 0 0 1 -1.50969,-0.0527 l -6.30908,-2.9271 a 1.5624364,1.5624364 0 0 0 -0.34941,-0.11866 l -4.95101,-1.21963 a 1.9184346,1.9184346 0 0 0 -2.08325,0.83067 l -3.11168,4.85212 a 1.9777676,1.9777676 0 0 0 -0.25711,0.60652 l -0.94274,4.12034 a 1.9777676,1.9777676 0 0 1 -0.79111,1.16029 l -2.05688,1.41081 a 1.911842,1.911842 0 0 1 -1.73384,0.22415 l -4.23242,-1.5031 a 1.9316197,1.9316197 0 0 0 -2.36673,0.94932 l -2.22828,4.1665 a 1.9777676,1.9777676 0 0 0 -0.22415,0.90977 v 1.87888 a 1.9382123,1.9382123 0 0 1 -1.4174,1.85911 l -3.70502,1.02843 a 1.8986569,1.8986569 0 0 1 -1.19325,-0.0527 l -3.23036,-1.21962 a 1.8986569,1.8986569 0 0 0 -0.85703,-0.11867 l -5.57071,0.50763 a 1.911842,1.911842 0 0 1 -1.60199,-0.6197 l -0.65926,-0.73177 a 1.8722867,1.8722867 0 0 0 -1.04822,-0.59333 l -2.53813,-0.51422 a 1.9777676,1.9777676 0 0 0 -1.5031,0.32303 l -3.34243,2.37992 a 1.9777676,1.9777676 0 0 1 -1.01526,0.35599 l -5.12241,0.2703 a 2.017323,2.017323 0 0 0 -0.56696,0.11867 l -8.89337,3.29628 a 1.8854718,1.8854718 0 0 1 -1.54265,-0.0923 l -2.5711,-1.31851 a 1.9316197,1.9316197 0 0 0 -0.87681,-0.21096 h -9.55921 a 1.9316197,1.9316197 0 0 1 -1.21303,-0.42852 l -2.31399,-1.85251 a 1.9316197,1.9316197 0 0 0 -2.32718,-0.0659 l -2.4788,1.76681 a 1.9382123,1.9382123 0 0 0 -0.81088,1.57562 v 18.53168 a 1.9316197,1.9316197 0 0 0 1.93162,1.93162 h 337.92797 a 1.9316197,1.9316197 0 0 0 1.93162,-1.93162 l -0.0923,-72.36651 a 1.9316197,1.9316197 0 0 0 -2.99961,-1.63496 z"
     fill="#03bcff"
     opacity="0.3"
     id="path680"
     style="stroke-width:0.659256" />
  <circle
     cx="544.50134"
     cy="227.99193"
     r="4.6147909"
     fill="#03bcff"
     id="circle682"
     style="stroke-width:0.659256" />
  <path
     d="m 544.20465,273.64539 -6.26952,2.08984 a 1.6415471,1.6415471 0 0 0 -0.34281,0.16482 l -3.44132,2.27443 a 1.463548,1.463548 0 0 1 -0.84385,0.23733 l -2.14258,-0.0527 a 1.463548,1.463548 0 0 1 -1.05481,-0.48125 l -1.31851,-1.45037 a 1.4701406,1.4701406 0 0 0 -2.09643,-0.0857 l -2.2217,2.08325 a 1.4503629,1.4503629 0 0 1 -1.00207,0.40214 h -7.7001 a 1.4569555,1.4569555 0 0 1 -1.31852,-0.81747 l -1.76021,-3.51384 a 1.4701406,1.4701406 0 0 0 -2.09643,-0.58673 l -10.8975,6.9024 a 1.4833257,1.4833257 0 0 1 -1.10755,0.19119 l -7.46278,-1.6811 a 1.4305853,1.4305853 0 0 0 -0.83066,0.0527 l -2.72273,1.00866 a 0.92955079,0.92955079 0 0 0 -0.20437,0.0923 l -6.019,3.33584 a 1.5162885,1.5162885 0 0 1 -0.75815,0.18459 l -4.45657,-0.14504 a 1.3185118,1.3185118 0 0 0 -0.23074,0 l -4.28516,0.54719 a 1.4965108,1.4965108 0 0 1 -1.05481,-0.2703 l -0.87022,-0.65925 a 1.4503629,1.4503629 0 0 0 -0.88999,-0.28348 l -4.7005,0.0659 a 1.3976225,1.3976225 0 0 0 -0.54718,0.11207 l -2.10962,0.89 a 1.4767332,1.4767332 0 0 1 -1.55584,-0.2703 l -1.72725,-1.52947 a 1.463548,1.463548 0 0 0 -1.31851,-0.33622 l -7.21226,1.74044 -7.41663,1.91843 a 1.4437704,1.4437704 0 0 1 -0.60652,0 l -6.26293,-1.04162 a 2.3403584,2.3403584 0 0 0 -0.30326,0 l -11.58312,0.52081 a 1.463548,1.463548 0 0 0 -1.12733,0.61311 l -1.74703,2.40628 a 1.463548,1.463548 0 0 1 -1.58221,0.56037 l -1.8657,-0.51422 a 1.4899183,1.4899183 0 0 0 -1.18006,0.18459 l -1.8657,1.19325 a 1.509696,1.509696 0 0 1 -0.71199,0.22415 l -3.95554,0.21755 a 1.3185118,1.3185118 0 0 0 -0.22415,0 l -5.70915,1.21963 a 1.6481397,1.6481397 0 0 1 -0.30985,0.033 h -3.34902 a 1.4569555,1.4569555 0 0 1 -0.86363,-0.28348 l -0.87022,-0.65925 a 1.4437704,1.4437704 0 0 0 -1.08118,-0.2703 l -7.12655,1.06799 a 1.5558439,1.5558439 0 0 1 -0.49444,0 l -3.34902,-0.65925 a 1.3185118,1.3185118 0 0 0 -0.27689,0 h -6.42775 a 1.5822141,1.5822141 0 0 0 -0.30325,0 l -6.52004,1.38444 a 1.4174001,1.4174001 0 0 1 -0.52741,0 l -3.88302,-0.58674 a 1.509696,1.509696 0 0 0 -0.72518,0.0791 l -2.49198,0.90977 a 1.4437704,1.4437704 0 0 1 -1.23281,-0.10548 l -1.18007,-0.65925 a 1.4239927,1.4239927 0 0 0 -0.99548,-0.17141 l -5.9333,1.12733 a 1.4569555,1.4569555 0 0 1 -0.534,0 l -2.85458,-0.50763 a 1.5953992,1.5953992 0 0 0 -0.46807,0 l -3.15124,0.45489 a 1.4503629,1.4503629 0 0 1 -1.24599,-0.40874 l -1.04163,-0.99548 a 1.5031034,1.5031034 0 0 0 -1.04162,-0.42852 h -2.49858 a 1.5426588,1.5426588 0 0 1 -0.25052,0 l -7.29137,-1.27895 a 1.4174001,1.4174001 0 0 0 -0.59992,0 l -5.51138,1.31851 a 1.4767332,1.4767332 0 0 1 -0.34281,0.0396 h -6.63871 a 1.5228811,1.5228811 0 0 0 -0.30326,0 l -2.24806,0.48125 a 1.5031034,1.5031034 0 0 1 -1.12733,-0.13185 l -0.6197,-0.40215 a 1.4767332,1.4767332 0 0 0 -0.79111,-0.23073 h -4.01486 a 1.4569555,1.4569555 0 0 0 -0.55378,0.11207 l -2.80843,1.1471 a 1.4437704,1.4437704 0 0 1 -1.21303,-0.0461 l -1.48992,-0.75156 a 1.4833257,1.4833257 0 0 0 -0.93614,-0.13185 l -2.94028,0.56696 a 1.4503629,1.4503629 0 0 1 -0.60652,0 l -6.8167,-1.58221 h -0.15163 l -5.79486,-0.71859 a 1.4899183,1.4899183 0 0 0 -1.08118,0.30326 l -3.29628,2.55791 a 1.4371778,1.4371778 0 0 0 -0.42852,0.54059 l -0.73836,1.64155 a 1.4833257,1.4833257 0 0 1 -0.85704,0.77792 l -2.53154,0.86362 a 1.3844373,1.3844373 0 0 1 -0.73177,0.0593 l -5.63005,-1.00207 a 1.4767332,1.4767332 0 0 0 -1.25918,0.37577 l -2.23488,2.08985 a 1.463548,1.463548 0 0 0 -0.46147,1.07458 v 0 a 1.463548,1.463548 0 0 1 -1.26578,1.45037 l -4.22583,0.58673 a 1.4371778,1.4371778 0 0 1 -0.47466,0 l -3.82368,-0.72518 a 1.4767332,1.4767332 0 0 0 -0.34282,0 l -6.38819,0.29007 a 1.509696,1.509696 0 0 1 -0.77133,-0.17799 l -1.12073,-0.61311 a 1.3976225,1.3976225 0 0 0 -0.56037,-0.178 l -3.35561,-0.33622 a 1.5031034,1.5031034 0 0 0 -0.65926,0.0791 l -3.95553,1.40421 a 1.5031034,1.5031034 0 0 1 -0.45489,0.0857 l -5.62345,0.15163 a 1.3646597,1.3646597 0 0 0 -0.23074,0 l -9.52625,1.76021 a 1.5426588,1.5426588 0 0 1 -0.62629,0 l -3.24354,-0.83066 a 1.7140653,1.7140653 0 0 0 -0.36918,-0.0462 H 213.1725 a 1.3976225,1.3976225 0 0 1 -0.54718,-0.10548 l -3.20399,-1.27896 a 1.4569555,1.4569555 0 0 0 -1.04162,0 l -2.97984,1.0614 a 1.4569555,1.4569555 0 0 0 -0.9757,1.37785 v 0.65925 a 1.463548,1.463548 0 0 0 1.46355,1.47014 h 338.85752 a 1.463548,1.463548 0 0 0 1.46355,-1.47014 l -0.0857,-27.86674 a 1.4701406,1.4701406 0 0 0 -1.91844,-1.45696 z"
     fill="#03bcff"
     opacity="0.3"
     id="path684"
     style="stroke-width:0.659256" />
  <circle
     cx="290.68781"
     cy="258.97696"
     r="4.6147909"
     fill="#03bcff"
     id="circle686"
     style="stroke-width:0.659256" />
  <circle
     cx="512.19775"
     cy="229.96968"
     r="4.6147909"
     fill="#03bcff"
     id="circle688"
     style="stroke-width:0.659256" />
  <circle
     cx="397.48724"
     cy="260.95471"
     r="4.6147909"
     fill="#03bcff"
     id="circle690"
     style="stroke-width:0.659256" />
  <circle
     cx="457.47952"
     cy="244.47331"
     r="4.6147909"
     fill="#03bcff"
     id="circle692"
     style="stroke-width:0.659256" />
  <path
     d="m 546.79553,230.07517 a 1.9316197,1.9316197 0 0 0 -2.99962,-1.60199 l -5.10264,3.40176 a 1.9777676,1.9777676 0 0 0 -0.46807,0.4417 l -3.17102,4.18628 a 1.9777676,1.9777676 0 0 1 -1.63495,0.76473 l -1.03504,-0.0527 a 1.9382123,1.9382123 0 0 1 -1.66791,-1.13392 l -0.65926,-1.40421 a 1.9250272,1.9250272 0 0 0 -3.46109,-0.11208 l -1.31851,2.52495 a 1.9250272,1.9250272 0 0 1 -1.70748,1.02185 h -6.53982 a 1.9184346,1.9184346 0 0 1 -1.87228,-1.46355 l -1.56903,-6.28271 a 1.9316197,1.9316197 0 0 0 -3.38858,-0.73177 l -9.42736,11.91935 a 1.9184346,1.9184346 0 0 1 -2.30739,0.56036 l -6.05856,-2.73591 a 1.9316197,1.9316197 0 0 0 -1.97777,0.20437 l -2.16895,1.60199 a 1.793176,1.793176 0 0 0 -0.28348,0.26371 l -5.72234,6.33544 a 1.9316197,1.9316197 0 0 1 -1.55585,0.65926 l -3.73798,-0.23733 a 2.0832486,2.0832486 0 0 0 -0.60651,0.0527 l -3.3688,0.86362 a 1.9250272,1.9250272 0 0 1 -2.07666,-0.77792 l -0.38236,-0.56696 a 1.9316197,1.9316197 0 0 0 -1.64814,-0.83725 l -3.75776,0.11207 a 1.8591016,1.8591016 0 0 0 -1.18007,0.44829 l -0.92296,0.77133 a 1.9316197,1.9316197 0 0 1 -2.93369,-0.54718 l -0.9757,-1.7668 a 1.9316197,1.9316197 0 0 0 -2.52495,-0.81089 l -6.32226,3.03917 -6.99471,3.61272 a 1.9184346,1.9184346 0 0 1 -1.48991,0.11208 l -5.57072,-1.84592 a 1.9777676,1.9777676 0 0 0 -0.77792,-0.0923 l -10.78542,0.92296 a 1.9777676,1.9777676 0 0 0 -1.64814,1.27237 l -1.56244,4.36427 a 1.9316197,1.9316197 0 0 1 -2.7425,1.04162 l -0.0659,-0.033 a 1.9184346,1.9184346 0 0 0 -2.44584,0.50104 l -1.22622,1.56903 a 1.9777676,1.9777676 0 0 1 -1.31851,0.73177 l -3.37539,0.36259 a 1.9777676,1.9777676 0 0 0 -0.55377,0.13844 l -5.34657,2.28762 a 2.017323,2.017323 0 0 1 -0.75814,0.15163 h -2.5711 a 1.9316197,1.9316197 0 0 1 -1.5954,-0.84385 l -0.36918,-0.54059 a 1.9316197,1.9316197 0 0 0 -2.14918,-0.75814 l -5.99263,1.81295 a 1.9382123,1.9382123 0 0 1 -1.25259,-0.0462 l -2.78206,-1.06799 a 1.8986569,1.8986569 0 0 0 -0.65925,-0.13185 h -5.97286 a 1.852509,1.852509 0 0 0 -0.75155,0.15822 l -5.93331,2.51836 a 1.911842,1.911842 0 0 1 -1.31851,0.0725 l -2.93369,-0.87681 a 1.9382123,1.9382123 0 0 0 -1.69428,0.29007 l -1.28555,0.94273 a 1.9316197,1.9316197 0 0 1 -2.59088,-0.28348 l -0.19118,-0.21755 a 1.9316197,1.9316197 0 0 0 -2.13599,-0.534 l -4.77961,1.82614 a 1.9250272,1.9250272 0 0 1 -1.31851,0 l -2.09643,-0.75155 a 1.9777676,1.9777676 0 0 0 -1.18666,-0.033 l -1.97777,0.57355 a 1.9316197,1.9316197 0 0 1 -2.26125,-0.98888 l -0.73837,-1.48333 a 1.9382123,1.9382123 0 0 0 -1.72725,-1.06799 h -1.71406 a 1.911842,1.911842 0 0 1 -0.65926,-0.10549 l -6.65189,-2.33376 a 1.911842,1.911842 0 0 0 -1.47673,0.0791 l -4.85872,2.33376 a 1.9777676,1.9777676 0 0 1 -0.83725,0.19119 h -6.13768 a 2.017323,2.017323 0 0 0 -0.75814,0.15163 l -1.25259,0.54059 a 1.9382123,1.9382123 0 0 1 -2.28102,-0.58674 v 0 a 1.9250272,1.9250272 0 0 0 -1.52288,-0.74496 h -3.0985 a 1.9382123,1.9382123 0 0 0 -1.22622,0.43511 l -1.79977,1.47673 a 1.9184346,1.9184346 0 0 1 -2.59087,-0.13185 l -0.40874,-0.40874 a 1.9316197,1.9316197 0 0 0 -2.06347,-0.4417 l -1.79318,0.69222 a 1.9777676,1.9777676 0 0 1 -1.5097,-0.0527 l -6.30908,-2.9271 a 1.5624364,1.5624364 0 0 0 -0.3494,-0.11866 l -4.95101,-1.21963 a 1.9184346,1.9184346 0 0 0 -2.08325,0.83067 l -3.11169,4.85212 a 1.9777676,1.9777676 0 0 0 -0.25711,0.60652 l -0.94273,4.12034 a 1.9777676,1.9777676 0 0 1 -0.79111,1.16029 l -2.05688,1.41081 a 1.911842,1.911842 0 0 1 -1.73384,0.22415 l -4.23243,-1.5031 a 1.9316197,1.9316197 0 0 0 -2.36672,0.94932 l -2.22829,4.1665 a 1.9777676,1.9777676 0 0 0 -0.22415,0.90977 v 1.87888 a 1.9382123,1.9382123 0 0 1 -1.4174,1.85911 l -3.70501,1.02843 a 1.8986569,1.8986569 0 0 1 -1.19326,-0.0527 l -3.23035,-1.21962 a 1.8986569,1.8986569 0 0 0 -0.85703,-0.11867 l -5.57072,0.50763 a 1.911842,1.911842 0 0 1 -1.60199,-0.6197 l -0.65925,-0.73177 a 1.8722867,1.8722867 0 0 0 -1.04822,-0.59333 l -2.53814,-0.51422 a 1.9777676,1.9777676 0 0 0 -1.5031,0.32303 l -3.34243,2.37992 a 1.9777676,1.9777676 0 0 1 -1.01525,0.35599 l -5.12242,0.2703 a 2.017323,2.017323 0 0 0 -0.56696,0.11867 l -8.89336,3.29628 a 1.8854718,1.8854718 0 0 1 -1.54266,-0.0923 l -2.5711,-1.31851 a 1.9316197,1.9316197 0 0 0 -0.87681,-0.21096 h -9.55921 a 1.9316197,1.9316197 0 0 1 -1.21303,-0.42852 l -2.31399,-1.85251 a 1.9316197,1.9316197 0 0 0 -2.32717,-0.0659 l -2.4788,1.76681 a 1.9382123,1.9382123 0 0 0 -0.81089,1.57562"
     fill="none"
     stroke="#6c63ff"
     stroke-miterlimit="10"
     id="path694"
     style="stroke-width:0.659256" />
  <rect
     x="185.20686"
     y="331.46213"
     width="385.6647"
     height="0.065925591"
     fill="#f2f2f2"
     opacity="0.2"
     id="rect696"
     style="stroke-width:0.659256" />
  <circle
     cx="244.53989"
     cy="331.49509"
     r="3.2962794"
     fill="#03bcff"
     opacity="0.3"
     id="circle698"
     style="stroke-width:0.659256" />
  <circle
     cx="292.66556"
     cy="331.49509"
     r="3.2962794"
     fill="#03bcff"
     opacity="0.3"
     id="circle700"
     style="stroke-width:0.659256" />
  <circle
     cx="340.79126"
     cy="331.49509"
     r="3.2962794"
     fill="#03bcff"
     opacity="0.3"
     id="circle702"
     style="stroke-width:0.659256" />
  <circle
     cx="388.91693"
     cy="331.49509"
     r="3.2962794"
     fill="#03bcff"
     opacity="0.3"
     id="circle704"
     style="stroke-width:0.659256" />
  <circle
     cx="437.0426"
     cy="331.49509"
     r="3.2962794"
     fill="#03bcff"
     opacity="0.3"
     id="circle706"
     style="stroke-width:0.659256" />
  <circle
     cx="485.16827"
     cy="331.49509"
     r="3.2962794"
     fill="#03bcff"
     opacity="0.3"
     id="circle708"
     style="stroke-width:0.659256" />
  <circle
     cx="533.29395"
     cy="331.49509"
     r="3.2962794"
     fill="#03bcff"
     opacity="0.3"
     id="circle710"
     style="stroke-width:0.659256" />
  <path
     d="m 158.02574,458.61281 c -1.97776,-3.6325 0.26371,-8.08247 2.82821,-11.31942 2.56451,-3.23695 5.67619,-6.59256 5.61027,-10.73928 -0.0989,-5.9333 -6.39478,-9.44054 -11.42491,-12.58519 a 55.377494,55.377494 0 0 1 -10.25802,-8.26048 15.162885,15.162885 0 0 1 -3.15124,-4.21924 c -1.04162,-2.32058 -1.01525,-4.9576 -0.94933,-7.49574 q 0.33622,-12.71045 1.25918,-25.37475"
     fill="none"
     stroke="#3f3d56"
     stroke-miterlimit="10"
     stroke-width="2.63702"
     id="path712" />
  <path
     d="m 132.3741,378.17041 a 9.2295823,9.2295823 0 0 1 4.61479,-7.58144 l 2.07006,4.09398 -0.0659,-4.95761 a 9.3746186,9.3746186 0 0 1 3.05235,-0.36918 9.2295823,9.2295823 0 1 1 -9.67788,8.81425 z"
     fill="#57b894"
     id="path714"
     style="stroke-width:0.659256" />
  <path
     d="m 148.87527,440.79313 a 9.2295823,9.2295823 0 1 0 -0.44829,-7.44959 l 5.78167,4.70049 -6.36182,-1.47014 a 9.2295823,9.2295823 0 0 0 1.02844,4.21924 z"
     fill="#57b894"
     id="path716"
     style="stroke-width:0.659256" />
  <path
     d="m 153.44392,422.82841 a 9.2295823,9.2295823 0 0 0 2.93368,-18.14932 l 0.0527,3.8105 -2.09643,-4.14672 v 0 a 9.2295823,9.2295823 0 0 0 -9.67128,8.80766 9.1241014,9.1241014 0 0 0 0.39555,3.15783 9.2295823,9.2295823 0 0 0 8.38574,6.52005 z"
     fill="#57b894"
     id="path718"
     style="stroke-width:0.659256" />
  <path
     d="m 130.98307,407.88307 a 9.2295823,9.2295823 0 1 0 -4.09398,-17.31865 l 1.63495,4.48294 -3.3622,-3.23035 a 9.2295823,9.2295823 0 0 0 -2.98643,6.38819 9.0911386,9.0911386 0 0 0 0.23074,2.55132 9.2625451,9.2625451 0 0 0 8.57692,7.12655 z"
     fill="#57b894"
     id="path720"
     style="stroke-width:0.659256" />
  <path
     d="m 133.62009,380.63603 c 2.13599,0.23074 4.21265,0.89659 6.35523,1.02844 2.14258,0.13185 4.49612,-0.38237 5.85419,-2.04369 0.72518,-0.89659 1.09436,-2.03711 1.70747,-3.0128 a 6.5925588,6.5925588 0 0 1 2.33377,-2.19533 9.2295823,9.2295823 0 1 1 -17.29888,6.14427 q 0.52741,0.0198 1.04822,0.0791 z"
     opacity="0.1"
     id="path722"
     style="stroke-width:0.659256" />
  <path
     d="m 130.98307,407.88307 a 9.2295823,9.2295823 0 0 0 8.80106,-13.18511 6.8364835,6.8364835 0 0 0 -1.8591,1.8591 c -0.65925,0.99547 -1.0614,2.14258 -1.83273,3.05895 -1.44377,1.69428 -3.90279,2.24806 -6.13767,2.14917 -2.23488,-0.0989 -4.39065,-0.73837 -6.59256,-0.94274 -0.30985,0 -0.6197,-0.0461 -0.93614,-0.0527 a 9.2625451,9.2625451 0 0 0 8.55714,7.11337 z"
     opacity="0.1"
     id="path724"
     style="stroke-width:0.659256" />
  <path
     d="m 153.44392,422.82841 a 9.2295823,9.2295823 0 0 0 8.87358,-13.05327 7.5682575,7.5682575 0 0 0 -1.97777,1.87888 c -0.71859,1.01525 -1.16688,2.18214 -1.97777,3.11828 -1.56243,1.74043 -4.18627,2.35354 -6.54641,2.29421 -2.36013,-0.0593 -4.50271,-0.60652 -6.77715,-0.78452 a 9.2295823,9.2295823 0 0 0 8.40552,6.54642 z"
     opacity="0.1"
     id="path726"
     style="stroke-width:0.659256" />
  <path
     d="m 148.87527,440.79313 a 9.2410578,9.2410578 0 0 0 16.87036,-7.54848 9.0977311,9.0977311 0 0 0 -2.03051,1.80636 c -0.8834,1.07459 -1.46355,2.29421 -2.4788,3.29628 -1.89206,1.8591 -4.94442,2.63702 -7.66715,2.69636 a 40.985938,40.985938 0 0 1 -4.6939,-0.25052 z"
     opacity="0.1"
     id="path728"
     style="stroke-width:0.659256" />
  <path
     d="m 171.98219,454.43313 c 0,0 -7.30455,-0.22414 -9.50647,-1.79317 -2.20191,-1.56903 -11.20735,-3.43473 -11.77431,-0.92296 -0.56696,2.51176 -10.97661,12.52586 -2.73591,12.56541 8.2407,0.0396 19.15797,-1.28554 21.35989,-2.63702 2.20191,-1.35147 2.6568,-7.21226 2.6568,-7.21226 z"
     fill="#656380"
     id="path730"
     style="stroke-width:0.659256" />
  <path
     d="m 147.82046,463.4056 c 8.24729,0.0659 19.15798,-1.27895 21.3533,-2.63702 1.67451,-1.02185 2.34036,-4.68072 2.56451,-6.36182 h 0.24392 c 0,0 -0.46148,5.88716 -2.63702,7.25182 -2.17555,1.36466 -13.1126,2.68976 -21.35989,2.63702 -2.37992,0 -3.19739,-0.86363 -3.15125,-2.11621 0.30985,0.73837 1.21303,1.21303 2.98643,1.22621 z"
     opacity="0.2"
     id="path732"
     style="stroke-width:0.659256" />
  <path
     d="m 632.20872,373.28533 a 10.290984,10.290984 0 0 0 -0.534,4.29175 8.860399,8.860399 0 0 0 1.97777,3.91598 3.7247957,3.7247957 0 0 0 2.13599,1.60199 2.52495,2.52495 0 0 0 2.35354,-1.14051 5.5970824,5.5970824 0 0 0 0.85703,-2.59087 29.528071,29.528071 0 0 0 -0.36259,-7.34412 c -0.27688,-2.0371 -0.3494,-4.27857 -0.88999,-6.24974 -1.39762,0 -3.0128,-0.25711 -3.79072,1.07459 -0.99548,1.73384 -1.23281,4.50271 -1.74703,6.44093 z"
     fill="#ffc0c6"
     id="path734"
     style="stroke-width:0.659256" />
  <path
     d="m 639.85609,336.99329 c -0.34282,0.96911 -0.82407,1.89206 -1.14052,2.87436 a 20.080934,20.080934 0 0 0 -0.65925,3.12487 170.80661,170.80661 0 0 1 -3.95554,18.41961 19.777676,19.777676 0 0 0 -0.98888,5.51138 l 3.77094,-0.13185 a 1.4174001,1.4174001 0 0 1 1.01526,0.22414 c 0.32303,0.29008 0.54059,0.92955 0.94933,0.76474 a 94.972402,94.972402 0 0 0 1.48332,-10.96343 c 0.15163,-2.63702 0.0791,-5.2213 0.25052,-7.82536 0.32963,-5.18835 1.87229,-11.10187 -0.14504,-16.11881 a 10.805204,10.805204 0 0 1 -0.58014,4.12035 z"
     fill="#3f3d56"
     id="path736"
     style="stroke-width:0.659256" />
  <path
     d="m 639.85609,336.99329 c -0.34282,0.96911 -0.82407,1.89206 -1.14052,2.87436 a 20.080934,20.080934 0 0 0 -0.65925,3.12487 170.80661,170.80661 0 0 1 -3.95554,18.41961 19.777676,19.777676 0 0 0 -0.98888,5.51138 l 3.77094,-0.13185 a 1.4174001,1.4174001 0 0 1 1.01526,0.22414 c 0.32303,0.29008 0.54059,0.92955 0.94933,0.76474 a 94.972402,94.972402 0 0 0 1.48332,-10.96343 c 0.15163,-2.63702 0.0791,-5.2213 0.25052,-7.82536 0.32963,-5.18835 1.87229,-11.10187 -0.14504,-16.11881 a 10.805204,10.805204 0 0 1 -0.58014,4.12035 z"
     opacity="0.1"
     id="path738"
     style="stroke-width:0.659256" />
  <path
     d="m 644.5434,305.91597 c -0.92296,0.7911 -1.2394,2.05688 -1.5097,3.24354 l -2.18873,9.63832 c -0.50103,2.20191 -1.00207,4.40383 -1.31851,6.6387 -1.38444,9.33507 0.21755,18.93383 -1.31851,28.24253 a 44.381106,44.381106 0 0 0 -0.88341,6.29589 c -0.0659,3.87642 1.43059,7.73307 0.81089,11.55676 a 3.5533892,3.5533892 0 0 0 0,2.08324 c 0.31644,0.65926 1.38444,0.87022 1.6811,0.23074 a 1.180068,1.180068 0 0 0 0.0989,-0.36918 l 2.28103,-14.39156 c 0.54718,-3.42153 1.08777,-6.89581 0.71199,-10.34372 -0.25711,-2.34695 -0.94273,-4.6939 -0.56696,-7.02767 a 22.790476,22.790476 0 0 1 1.00866,-3.39517 c 2.20192,-6.59255 1.89866,-13.75867 0.65926,-20.57537 a 8.5703264,8.5703264 0 0 1 -0.21096,-3.03258 c 0.30326,-1.66792 1.5954,-2.94687 2.46561,-4.39724 0.65926,-1.09436 1.79318,-3.50064 1.31852,-4.81916 -0.48785,-1.54265 -2.10962,-0.37577 -3.03917,0.42193 z"
     fill="#3f3d56"
     id="path740"
     style="stroke-width:0.659256" />
  <path
     d="m 648.19567,445.26948 a 1.6085843,1.6085843 0 0 0 -0.8834,0.15822 1.5558439,1.5558439 0 0 0 -0.52081,0.65925 c -0.73177,1.5097 -1.24599,3.25673 -2.63702,4.23243 a 7.3375179,7.3375179 0 0 1 -2.27444,0.93614 l -6.197,1.7668 c -0.7977,0.22415 -1.70747,0.55378 -1.97777,1.31852 -0.27029,0.76473 0.30985,1.70088 1.05481,2.14917 a 7.00789,7.00789 0 0 0 3.55998,0.65926 l 8.97247,0.13185 a 7.4298137,7.4298137 0 0 0 2.53155,-0.25711 c 1.04821,-0.36919 1.93162,-1.20644 3.03257,-1.31851 0.89659,-0.0989 1.76022,0.29007 2.63703,0.48785 1.82614,0.40214 3.7182,0 5.53115,-0.46148 a 1.5888067,1.5888067 0 0 0 0.87681,-0.42193 1.5492513,1.5492513 0 0 0 0.2703,-0.9757 c 0.0725,-1.53606 0.0989,-3.06554 0.0923,-4.61479 0,-1.39103 -0.16481,-3.0062 -1.31851,-3.77094 a 4.1335344,4.1335344 0 0 0 -1.73384,-0.534 c -3.67865,-0.46807 -7.31115,-0.11866 -11.01617,-0.14503 z"
     fill="#575a88"
     id="path742"
     style="stroke-width:0.659256" />
  <path
     d="m 671.93548,464.79004 a 8.5703264,8.5703264 0 0 1 -0.95592,1.69429 l -3.77754,5.72234 c -1.54266,2.32717 -3.13806,4.81916 -3.24354,7.60781 a 17.95813,17.95813 0 0 0 7.91107,1.14052 7.2518147,7.2518147 0 0 0 3.78413,-1.18007 c 1.62177,-1.19326 2.26125,-3.29628 2.78865,-5.22131 a 1.0745871,1.0745871 0 0 1 0.36259,-0.65925 c 0.33623,-0.23074 0.79111,0 1.19985,-0.0857 0.83726,-0.10548 1.12733,-1.16029 1.18666,-1.97777 a 26.317495,26.317495 0 0 0 -0.65925,-7.76603 1.6019918,1.6019918 0 0 0 -0.40215,-0.85044 1.6415471,1.6415471 0 0 0 -0.86363,-0.32303 c -1.88547,-0.32304 -3.77094,-0.69882 -5.663,-0.9757 -2.49858,-0.40215 -0.96252,1.07458 -1.66792,2.87435 z"
     fill="#575a88"
     id="path744"
     style="stroke-width:0.659256" />
  <path
     d="m 640.73949,362.82294 c -1.82614,2.32058 -2.41288,5.41908 -2.27443,8.36595 0.13844,2.94688 0.94933,5.82123 1.62836,8.69559 a 110.04299,110.04299 0 0 1 2.41288,14.20696 18.775607,18.775607 0 0 0 0.65925,3.95554 c 0.32304,1.00207 0.82407,1.93821 1.11414,2.94687 0.356,1.22622 0.38897,2.53154 0.71859,3.76435 a 22.4147,22.4147 0 0 0 1.70088,3.84346 c 3.0128,6.15745 3.65887,13.18512 3.71161,20.04138 0,1.85251 0,3.69843 0.17141,5.53775 0.38237,3.73139 1.53607,7.91107 -0.69881,10.91728 0.56696,2.04369 3.29628,2.43265 5.37953,2.16236 a 26.61416,26.61416 0 0 0 7.11337,-1.91184 c -0.65926,-1.39763 -1.62177,-3.02599 -1.57562,-4.61479 a 13.185118,13.185118 0 0 1 0.93614,-3.61273 c 1.19325,-3.6259 1.31851,-7.50233 1.38444,-11.31942 a 31.578357,31.578357 0 0 0 -0.0527,-3.53361 29.70607,29.70607 0 0 0 -0.52741,-3.23036 l -2.55132,-12.78297 a 20.061156,20.061156 0 0 1 -0.178,-6.8167 25.361574,25.361574 0 0 1 2.69636,-7.67374 c 3.05235,-6.16404 4.10716,-13.1126 4.70709,-19.96886 0.32303,-3.74458 0.40214,-7.91107 -1.97777,-10.81839 a 9.9877266,9.9877266 0 0 0 -5.65642,-3.23035 23.390399,23.390399 0 0 0 -6.59256,-0.25711 c -4.41042,0.36918 -9.51306,1.86569 -12.24897,5.33338 z"
     fill="#3f3d56"
     id="path746"
     style="stroke-width:0.659256" />
  <path
     d="m 641.27349,364.46448 c -0.84385,2.8348 1.25258,5.59708 2.33376,8.35277 0.6197,1.58881 0.92955,3.29628 1.87888,4.74005 1.17348,1.76022 3.1908,2.80184 4.46316,4.49613 1.27237,1.69429 1.64155,3.67865 2.63703,5.43886 0.99547,1.76021 2.63702,3.22376 3.55998,5.05649 1.39762,2.73591 1.19325,6.01901 2.17554,8.93292 0.69882,2.08984 2.01074,3.95554 2.51836,6.1113 0.22415,0.96911 0.28348,1.97777 0.534,2.9271 0.58674,2.26784 2.19532,4.24561 2.36014,6.59256 0.10548,1.53606 -0.40874,3.22376 0.40214,4.52908 0.48785,0.7977 1.37125,1.26578 1.97777,1.97777 a 6.3552267,6.3552267 0 0 1 0.94274,2.13599 l 1.31851,4.31813 c 1.27236,4.19286 1.4174,8.52418 2.63702,12.73682 1.21962,4.21265 2.08325,8.7681 0.65926,12.92142 -0.57356,1.72065 -1.52948,3.48746 -1.04822,5.23449 a 4.4697549,4.4697549 0 0 0 2.58428,2.7425 10.831574,10.831574 0 0 0 3.8105,0.71859 c 1.74703,0.0923 3.62591,0 5.06968,-0.9691 a 99.738822,99.738822 0 0 1 -0.84385,-15.98037 c 0.16482,-3.48087 0.65926,-6.94855 0.65926,-10.43602 a 53.768909,53.768909 0 0 0 -0.6263,-6.59256 53.056913,53.056913 0 0 0 -2.08324,-9.62513 35.461374,35.461374 0 0 1 -1.38444,-4.29835 c -0.21096,-0.99548 -0.27689,-2.01732 -0.42193,-3.02599 -0.14503,-1.00866 -0.36259,-1.97776 -0.58014,-3.01279 l -0.8834,-4.07421 c -0.19778,-0.89658 -0.73837,-1.6811 -0.77793,-2.59746 l -0.27029,-5.93331 c -0.43511,-9.71743 -0.85703,-19.59308 1.48333,-29.00726 -1.36466,-4.04783 -3.66547,-8.31321 -7.58804,-10.0075 a 13.574079,13.574079 0 0 0 -5.07627,-0.96911 c -8.00996,-0.25051 -15.18266,3.18421 -22.42129,6.56619 z"
     fill="#3f3d56"
     id="path748"
     style="stroke-width:0.659256" />
  <path
     d="m 647.25953,298.01149 a 5.6300452,5.6300452 0 0 1 1.02844,0.86363 5.274047,5.274047 0 0 1 0.85703,1.49651 17.892205,17.892205 0 0 1 1.31851,5.6696 71.384226,71.384226 0 0 0 11.73476,-10.33054 c -1.57562,0.11866 -3.02599,-1.00866 -3.77754,-2.3931 A 12.354455,12.354455 0 0 1 657.3,288.75554 c -0.0396,-0.29667 -4.10717,1.43058 -4.43679,1.60858 -1.45037,0.79111 -2.80843,1.73384 -4.22583,2.57769 a 23.113511,23.113511 0 0 1 -2.10303,1.14051 c -0.65926,0.30326 -1.70088,0.44171 -2.24806,0.87682 -1.45696,1.17347 2.07665,2.42606 2.97324,3.05235 z"
     fill="#ffc0c6"
     id="path750"
     style="stroke-width:0.659256" />
  <path
     d="m 646.60028,302.47465 c -0.16482,1.27237 0.0527,2.5711 -0.13845,3.83687 -0.27029,1.82614 -1.31851,3.41495 -2.10962,5.08946 -2.16236,4.70049 -1.97777,10.08661 -2.07665,15.25518 -0.0989,5.65641 -0.56696,11.29305 -1.04163,16.92969 l -0.86362,10.31735 c -0.15163,1.77999 -0.30326,3.57317 -0.65926,5.33338 a 8.8208437,8.8208437 0 0 0 -0.27029,2.26784 7.9110705,7.9110705 0 0 0 0.80429,2.63703 7.9967738,7.9967738 0 0 0 1.83932,2.92709 2.7622821,2.7622821 0 0 0 3.21058,0.46807 l 0.77792,-2.34035 a 3.7379808,3.7379808 0 0 0 3.53361,3.61931 7.3770733,7.3770733 0 0 0 1.97777,-0.34281 l 6.09812,-1.65473 a 18.459165,18.459165 0 0 0 3.82368,-1.31852 c 2.63702,-1.40421 4.40383,-4.04123 5.35316,-6.86285 0.94933,-2.82161 1.14051,-5.82123 1.25258,-8.78788 0.24393,-6.84967 0.0593,-13.76526 -1.39103,-20.43693 -0.60651,-2.80184 -1.43717,-5.55753 -1.93821,-8.37914 a 74.495914,74.495914 0 0 1 -0.85703,-11.50402 l -0.21096,-9.53284 a 8.1945506,8.1945506 0 0 0 -0.58674,-3.46109 2.8018375,2.8018375 0 0 0 -2.82162,-1.68111 c -1.82613,0.34282 -2.25465,2.69636 -3.24353,4.27198 -0.84385,1.35148 -2.26125,2.22169 -3.62591,3.04576 -0.89659,0.54059 -2.01732,1.09437 -2.94028,0.59333 -0.92296,-0.50103 -0.91637,-2.11621 -1.8657,-2.53154 -1.25918,-0.67903 -1.91843,1.26577 -2.0305,2.24147 z"
     fill="#f2f2f2"
     id="path752"
     style="stroke-width:0.659256" />
  <path
     d="m 655.33542,305.15123 c -1.72725,4.41702 -2.63703,9.10432 -3.50725,13.77186 -0.91636,5.03012 -1.74043,10.19209 -0.90318,15.2354 1.58222,9.53943 8.82085,17.24613 11.28646,26.59438 0.42852,1.62177 0.712,3.29628 1.31852,4.86531 0.94273,2.63702 2.63702,4.87849 4.30494,7.10019 0.89658,1.19325 2.22169,2.53154 3.6325,2.05028 1.04821,-0.36259 1.50969,-1.55584 2.30739,-2.33376 1.11414,-1.08778 2.82162,-1.27896 4.37746,-1.20644 1.55585,0.0725 3.15124,0.356 4.66094,0 1.5097,-0.356 2.94687,-1.70747 2.79525,-3.29628 -0.0989,-0.99548 -0.7977,-1.80636 -1.31852,-2.63703 -1.51628,-2.26784 -2.09643,-5.02352 -2.53813,-7.71988 -2.53814,-15.55185 -1.40422,-31.5388 -4.10057,-47.06428 -0.33622,-1.97777 -0.75815,-3.95553 -1.87229,-5.5773 a 23.139881,23.139881 0 0 1 -1.52288,-2.15577 c -0.42192,-0.81088 -0.60652,-1.75362 -1.16029,-2.48539 -0.79111,-1.04163 -2.14918,-1.43059 -3.39517,-1.83274 a 32.468352,32.468352 0 0 1 -4.92464,-2.05028 c -1.19985,-0.6197 -2.90073,-2.33377 -4.11376,-1.51629 -1.21303,0.81748 -2.12939,3.67205 -2.78206,4.91146 a 52.311954,52.311954 0 0 0 -2.54472,5.34656 z"
     fill="#3f3d56"
     id="path754"
     style="stroke-width:0.659256" />
  <path
     d="m 660.55672,369.42209 c -0.93614,0.21755 -1.93162,-0.0791 -2.87435,0.13185 -1.54925,0.356 -2.43925,1.93162 -3.13806,3.35561 a 3.5533892,3.5533892 0 0 0 -0.46807,1.43718 1.1932531,1.1932531 0 0 0 0.75155,1.19325 1.4371778,1.4371778 0 0 0 1.37784,-0.58674 6.3750043,6.3750043 0 0 1 1.05481,-1.16688 c 1.09437,-0.73177 2.58429,0.0462 3.43473,1.04822 0.85044,1.00207 1.48991,2.26125 2.63702,2.86117 a 6.0453764,6.0453764 0 0 0 2.10303,0.51422 7.0935932,7.0935932 0 0 0 2.3008,0 2.4458393,2.4458393 0 0 0 1.79977,-1.31851 3.586352,3.586352 0 0 0 0.21755,-1.424 l 0.11208,-6.59256 a 1.8261388,1.8261388 0 0 0 -0.22415,-1.11414 1.7733983,1.7733983 0 0 0 -0.87681,-0.55377 c -1.22622,-0.46807 -3.88302,-2.05688 -5.11583,-1.25918 -1.37784,0.9757 -1.11414,3.01939 -3.09191,3.47428 z"
     fill="#ffc0c6"
     id="path756"
     style="stroke-width:0.659256" />
  <circle
     cx="647.8924"
     cy="286.224"
     r="11.682014"
     fill="#ffc0c6"
     id="circle758"
     style="stroke-width:0.659256" />
  <path
     d="m 646.74531,284.95163 a 2.3337658,2.3337658 0 0 0 -1.67451,-1.7734 7.515517,7.515517 0 0 1 -0.96251,-0.13844 c -1.10096,-0.37578 -1.07459,-2.05688 -2.01733,-2.72932 -0.71858,-0.50763 -1.70747,-0.24393 -2.49198,0.13844 -0.78452,0.38237 -1.57562,0.89659 -2.44584,0.85044 a 2.5710979,2.5710979 0 0 1 -2.20192,-2.10962 4.8916786,4.8916786 0 0 1 0.59333,-3.15783 c 1.75362,-3.44132 5.42568,-5.41249 8.97907,-6.9156 a 18.017463,18.017463 0 0 1 4.85212,-1.47014 7.0606305,7.0606305 0 0 1 4.85872,1.03504 c 0.45488,0.31644 0.85044,0.69881 1.31851,0.99547 a 13.798226,13.798226 0 0 0 1.42399,0.73178 c 4.6939,2.35354 7.13974,8.26047 5.85419,13.35652 -0.44829,1.7734 -1.31851,3.44132 -1.5888,5.24108 a 4.093979,4.093979 0 0 1 -0.36919,1.41081 c -0.59992,1.05481 -2.05687,1.1537 -3.29627,1.12074 a 1.5426588,1.5426588 0 0 1 -0.94274,-0.22415 1.6481397,1.6481397 0 0 1 -0.46807,-0.95592 c -0.48785,-1.97777 -1.25259,-4.00168 -2.85458,-5.27405 -0.85703,-0.65925 -2.24147,-1.00207 -2.94028,-0.16481 a 6.111302,6.111302 0 0 0 -0.65926,1.4174 c -0.34281,0.7054 -1.39762,1.5031 -2.24806,1.31851 -1.19325,-0.28348 -0.43511,-1.60199 -0.71859,-2.70295 z"
     fill="#3f3d56"
     id="path760"
     style="stroke-width:0.659256" />
  <path
     d="m 675.51524,300.54963 c -1.40422,-0.16482 -1.67451,7.19248 -3.09191,7.19907 -0.40215,0 -0.32963,-1.54925 -0.65926,-1.31851 -0.32963,0.23074 0.85044,5.27404 0.65926,5.6696 -0.71859,1.48332 0.71199,-4.81916 0,-3.33584 -0.94274,1.93822 -0.51422,2.5711 -1.00207,4.67413 -1.08118,4.61479 -6.4673,7.96381 -5.37294,12.56541 a 114.05127,114.05127 0 0 1 2.78206,15.31452 24.99239,24.99239 0 0 1 0.0857,4.9642 c -0.37578,3.58635 -2.01733,6.9024 -3.67206,10.11298 -1.45036,2.80843 -2.92709,5.60368 -4.10716,8.53077 a 3.4676859,3.4676859 0 0 0 -0.32963,2.32058 c 0.48785,1.48333 2.45243,1.64155 3.95553,2.07007 3.07873,0.87681 5.70916,3.95553 8.83403,3.23694 1.39763,-4.24561 1.23281,-8.72195 2.45244,-13.02689 1.25258,-4.41043 4.17968,-8.2473 5.12901,-12.73024 a 30.774064,30.774064 0 0 0 0.47466,-5.61686 l 0.46148,-20.79952 a 22.4147,22.4147 0 0 0 -0.12526,-3.70502 22.856401,22.856401 0 0 0 -0.99548,-3.71161 l -2.41287,-7.25181 c -0.63289,-1.93821 -1.08118,-4.92464 -3.06554,-5.16197 z"
     opacity="0.1"
     id="path762"
     style="stroke-width:0.659256" />
  <path
     d="m 676.51731,300.54963 a 34.993302,34.993302 0 0 0 -4.23902,-0.23734 1.6811025,1.6811025 0 0 0 -1.90525,1.23281 l -2.15576,4.43679 a 29.666515,29.666515 0 0 0 -2.37992,5.99923 c -1.08118,4.61479 0.11867,9.40758 1.21303,14.00919 a 114.05127,114.05127 0 0 1 2.78206,15.31451 24.99239,24.99239 0 0 1 0.0857,4.9642 c -0.37578,3.58635 -2.01733,6.90241 -3.67206,10.11299 -1.45036,2.80843 -2.9271,5.60367 -4.10716,8.53077 a 3.4281306,3.4281306 0 0 0 -0.32963,2.32058 c 0.48785,1.48332 2.45243,1.64154 3.95553,2.07006 3.07873,0.87681 5.70916,3.95554 8.83403,3.23695 1.39762,-4.24561 1.23281,-8.72196 2.45243,-13.0269 1.25259,-4.41042 4.17969,-8.24729 5.12901,-12.73023 a 30.774064,30.774064 0 0 0 0.47467,-5.61686 l 0.45489,-20.79952 a 21.096188,21.096188 0 0 0 -0.12526,-3.70502 22.18396,22.18396 0 0 0 -0.98889,-3.71161 l -2.41287,-7.25182 c -0.63289,-1.92502 -1.08118,-4.91145 -3.06554,-5.14878 z"
     fill="#3f3d56"
     id="path764"
     style="stroke-width:0.659256" />
  <metadata
     id="metadata772">
    <rdf:RDF>
      <cc:Work
         rdf:about="">
        <dc:title>financial data</dc:title>
      </cc:Work>
    </rdf:RDF>
  </metadata>
</svg>
