<?xml version="1.0" encoding="UTF-8" standalone="no"?>
<svg
   data-name="Layer 1"
   width="784.39764"
   height="733.6066"
   viewBox="0 0 784.39764 733.6066"
   version="1.1"
   id="svg147"
   sodipodi:docname="personal_finance.svg"
   inkscape:version="1.1.1 (3bf5ae0d25, 2021-09-20)"
   xmlns:inkscape="http://www.inkscape.org/namespaces/inkscape"
   xmlns:sodipodi="http://sodipodi.sourceforge.net/DTD/sodipodi-0.dtd"
   xmlns="http://www.w3.org/2000/svg"
   xmlns:svg="http://www.w3.org/2000/svg"
   xmlns:rdf="http://www.w3.org/1999/02/22-rdf-syntax-ns#"
   xmlns:cc="http://creativecommons.org/ns#"
   xmlns:dc="http://purl.org/dc/elements/1.1/">
  <defs
     id="defs151">
    <rect
       x="-154.4435"
       y="166.96595"
       width="118.96324"
       height="111.65848"
       id="rect2662" />
  </defs>
  <sodipodi:namedview
     id="namedview149"
     pagecolor="#ffffff"
     bordercolor="#666666"
     borderopacity="1.0"
     inkscape:pageshadow="2"
     inkscape:pageopacity="0.0"
     inkscape:pagecheckerboard="0"
     showgrid="false"
     inkscape:zoom="0.95827924"
     inkscape:cx="391.84821"
     inkscape:cy="431.50262"
     inkscape:window-width="1280"
     inkscape:window-height="953"
     inkscape:window-x="-8"
     inkscape:window-y="-8"
     inkscape:window-maximized="1"
     inkscape:current-layer="svg147" />
  <title
     id="title81">personal_finance</title>
  <path
     d="m 598.08414,498.97524 c 0,0 92.89946,4.8029 71.26119,34.04742 -21.63827,29.24452 -78.49584,-17.15504 -78.49584,-17.15504 z"
     fill="#ffb8b8"
     id="path83"
     style="stroke-width:0.957326" />
  <path
     d="m 426.88648,220.42561 18.90917,4.72728 c 0,0 11.03035,33.09106 18.90918,63.03059 7.87883,29.93953 23.63648,119.7582 23.63648,119.7582 L 610.50589,493.55784 595.93528,526.15255 433.1899,462.01172 396.94694,319.69881 Z"
     fill="#575a89"
     id="path85"
     style="stroke-width:0.957326" />
  <polygon
     points="457.138,445.772 472.5,491.607 427.5,458.607 464.5,291.607 "
     opacity="0.2"
     id="polygon87"
     transform="scale(0.95732575)" />
  <path
     d="m 470.22005,541.09379 c 0,0 20.48495,55.15178 23.63647,92.97013 3.15153,37.81836 6.30304,67.7579 6.30304,67.7579 H 404.03788 L 385.1287,673.45805 v 28.36377 H 273.24938 c 0,0 -31.5153,-102.42472 -18.90916,-115.03084 12.60613,-12.60612 132.36427,-66.18213 132.36427,-66.18213 z"
     fill="#2f2e41"
     id="path89"
     style="stroke-width:0.957326" />
  <rect
     x="97.168564"
     y="700.38586"
     width="556.20624"
     height="1.9146515"
     fill="#3f3d56"
     id="rect91"
     style="stroke-width:0.957326" />
  <circle
     cx="349.67398"
     cy="100.66747"
     r="59.87907"
     fill="#ffb8b8"
     id="circle93"
     style="stroke-width:0.957326" />
  <path
     d="m 303.9768,125.87971 -4.72727,69.33366 59.87907,80.36402 29.93952,-75.63675 c 0,0 -26.78802,-17.33342 -11.03031,-53.57601 z"
     fill="#ffb8b8"
     id="path95"
     style="stroke-width:0.957326" />
  <path
     d="m 478.88304,554.48623 c 0,14.18757 -39.39396,36.2444 -39.39396,36.2444 v 7.87879 l -15.75758,7.87879 -34.66476,-69.32953 -9.44881,75.62874 c 0,0 -69.3391,11.03796 -91.39589,0 -22.06636,-11.0284 -33.09475,-6.29921 -64.60991,-17.3276 -31.51516,-11.02839 12.60798,-159.1554 12.60798,-159.1554 l -31.51516,-228.48494 68.85086,-34.42543 3.62827,-1.81892 9.46795,-1.74234 14.51306,-2.68051 48.50769,32.78841 3.90589,20.48677 2.40289,12.60798 12.59841,-14.18757 9.51581,-31.29498 67.70208,37.60376 -18.90718,151.26704 c 0,0 51.99236,163.88455 51.99236,178.06254 z"
     fill="#575a89"
     id="path97"
     style="stroke-width:0.957326" />
  <path
     d="m 247.24931,603.33651 c 0,0 72.48519,58.30331 37.81835,69.33366 -34.66683,11.03036 -53.576,-59.87907 -53.576,-59.87907 z"
     fill="#ffb8b8"
     id="path99"
     style="stroke-width:0.957326" />
  <path
     d="M 220.46125,210.97102 204.7036,207.8195 c 0,0 -23.63647,12.60612 -25.21224,37.81836 -1.57577,25.21223 -22.06071,201.69793 -22.06071,201.69793 l 66.18213,178.06144 53.57602,-20.48495 -52.00025,-167.0311 39.3941,-144.97038 z"
     fill="#575a89"
     id="path101"
     style="stroke-width:0.957326" />
  <circle
     cx="356.60385"
     cy="253.31471"
     r="5.7439547"
     fill="#2f2e41"
     id="circle103"
     style="stroke-width:0.957326" />
  <circle
     cx="356.60385"
     cy="290.65042"
     r="5.7439547"
     fill="#2f2e41"
     id="circle105"
     style="stroke-width:0.957326" />
  <circle
     cx="389.15292"
     cy="536.68317"
     r="5.7439547"
     fill="#2f2e41"
     id="circle107"
     style="stroke-width:0.957326" />
  <path
     d="m 299.11875,39.324079 -11.069,-4.431413 c 0,0 23.1442,-25.4804497 55.34508,-23.2647 l -9.05664,-9.9706722 c 0,0 22.13796,-8.8626825 42.26337,14.4020082 10.57955,12.229693 22.82019,26.605136 30.45093,42.798847 h 11.85412 l -4.94746,10.893763 17.31611,10.893764 -17.77333,-1.956774 a 60.875387,60.875387 0 0 1 0.48231,18.069332 23.379245,23.379245 0 0 1 -8.56124,15.294236 v 0 c 0,0 -13.7276,-28.414691 -13.7276,-32.846095 v 11.078471 c 0,0 -11.06898,-9.970548 -11.06898,-16.617605 l -6.03757,7.754922 h -40.25066 l 6.03756,-9.970547 -23.14424,3.323471 9.0567,-12.186364 -35.83366,50.321747 c 0,0 -20.51758,-56.968795 8.6642,-73.586391 z"
     fill="#2f2e41"
     id="path109"
     style="stroke-width:0.957326" />
  <circle
     cx="655.19147"
     cy="367.17761"
     r="95.732574"
     fill="#3f3d56"
     id="circle111"
     style="stroke-width:0.957326" />
  <circle
     cx="655.19147"
     cy="367.17761"
     r="82.330017"
     opacity="0.1"
     id="circle113"
     style="stroke-width:0.957326" />
  <polygon
     points="290,629.803 258,499.803 250.005,504.87 "
     opacity="0.2"
     id="polygon117"
     transform="scale(0.95732575)" />
  <path
     d="M 44.126265,249.67371 H 19.822904 a 3.999707,3.999707 0 0 1 -3.995246,-3.99524 v -34.93584 a 3.999707,3.999707 0 0 1 3.995246,-3.99525 h 24.303361 a 3.999707,3.999707 0 0 1 3.995245,3.99525 v 34.93584 a 3.999707,3.999707 0 0 1 -3.995245,3.99524 z M 19.822904,208.66203 a 2.0831408,2.0831408 0 0 0 -2.080594,2.0806 v 34.93584 a 2.0831408,2.0831408 0 0 0 2.080594,2.08059 h 24.303361 a 2.0831408,2.0831408 0 0 0 2.080594,-2.08059 v -34.93584 a 2.0831408,2.0831408 0 0 0 -2.080594,-2.0806 z"
     fill="#3f3d56"
     id="path119"
     style="stroke-width:0.957326" />
  <path
     d="M 88.517105,249.67371 H 66.569666 a 5.1792855,5.1792855 0 0 1 -5.173207,-5.1732 v -70.55413 a 5.1792855,5.1792855 0 0 1 5.173207,-5.17321 h 21.947439 a 5.1792855,5.1792855 0 0 1 5.173207,5.17321 v 70.55416 a 5.1792855,5.1792855 0 0 1 -5.173207,5.17317 z M 66.569666,170.68779 a 3.2621449,3.2621449 0 0 0 -3.258555,3.25856 v 70.55416 a 3.2621449,3.2621449 0 0 0 3.258555,3.25855 h 21.947439 a 3.2621449,3.2621449 0 0 0 3.258555,-3.25855 v -70.55413 a 3.2621449,3.2621449 0 0 0 -3.258555,-3.25856 z"
     fill="#3f3d56"
     id="path121"
     style="stroke-width:0.957326" />
  <path
     d="m 133.23843,249.67371 h -20.25249 a 6.0275335,6.0275335 0 0 1 -6.02068,-6.02068 V 139.85798 a 6.0275335,6.0275335 0 0 1 6.02068,-6.02068 h 20.25249 a 6.0275335,6.0275335 0 0 1 6.02068,6.02068 v 103.79505 a 6.0275335,6.0275335 0 0 1 -6.02068,6.02068 z M 112.98594,135.75195 a 4.1106897,4.1106897 0 0 0 -4.10603,4.10603 v 103.79505 a 4.1106897,4.1106897 0 0 0 4.10603,4.10603 h 20.25249 a 4.1106897,4.1106897 0 0 0 4.10603,-4.10603 V 139.85798 a 4.1106897,4.1106897 0 0 0 -4.10603,-4.10603 z"
     fill="#3f3d56"
     id="path123"
     style="stroke-width:0.957326" />
  <rect
     x="22.860937"
     y="213.40063"
     width="18.227484"
     height="29.619659"
     fill="#034aa6"
     id="rect125"
     style="stroke-width:0.957326" />
  <rect
     x="68.429649"
     y="175.80646"
     width="18.227484"
     height="67.213837"
     fill="#034aa6"
     id="rect127"
     style="stroke-width:0.957326" />
  <rect
     x="113.99835"
     y="140.87045"
     width="18.227484"
     height="102.14985"
     fill="#034aa6"
     id="rect129"
     style="stroke-width:0.957326" />
  <path
     d="M 692.14651,139.58125 H 564.82219 a 0.95707684,0.95707684 0 0 1 -0.95733,-0.95732 V 9.3849516 a 0.95733,0.95733 0 0 1 1.91466,0 V 137.6666 h 126.36699 a 0.95732575,0.95732575 0 0 1 0,1.91465 z"
     fill="#3f3d56"
     id="path131"
     style="stroke-width:0.957326" />
  <path
     d="M 152.21479,263.07627 H 0.95732575 A 0.95707684,0.95707684 0 0 1 0,262.11895 V 111.81881 a 0.95732575,0.95732575 0 0 1 1.9146515,0 V 261.16162 H 152.21479 a 0.95732575,0.95732575 0 0 1 0,1.91465 z"
     fill="#3f3d56"
     id="path133"
     style="stroke-width:0.957326" />
  <path
     d="m 608.76195,127.58337 h -24.30336 a 3.999774,3.999774 0 0 1 -3.99572,-3.99525 V 88.65227 a 3.9997644,3.9997644 0 0 1 3.99572,-3.995246 h 24.30336 a 3.9995729,3.9995729 0 0 1 3.99478,3.995246 v 34.9359 a 3.9995729,3.9995729 0 0 1 -3.99478,3.9952 z M 584.45859,86.571676 a 2.0835333,2.0835333 0 0 0 -2.08107,2.080594 v 34.9359 a 2.0835333,2.0835333 0 0 0 2.08107,2.08059 h 24.30336 a 2.0827292,2.0827292 0 0 0 2.08012,-2.08059 v -34.9359 a 2.0827292,2.0827292 0 0 0 -2.08012,-2.080594 z"
     fill="#3f3d56"
     id="path135"
     style="stroke-width:0.957326" />
  <path
     d="m 658.53261,127.58337 h -22.36908 a 4.9682239,4.9682239 0 0 1 -4.96239,-4.96287 V 59.341646 a 4.9678218,4.9678218 0 0 1 4.96239,-4.962384 h 22.36908 a 4.9678218,4.9678218 0 0 1 4.96238,4.962384 V 122.6205 a 4.9682239,4.9682239 0 0 1 -4.96238,4.96287 z M 636.16353,56.293913 a 3.0509972,3.0509972 0 0 0 -3.04774,3.047733 V 122.6205 a 3.0510833,3.0510833 0 0 0 3.04774,3.04822 h 22.36908 a 3.0510737,3.0510737 0 0 0 3.04773,-3.04822 V 59.341646 a 3.0509972,3.0509972 0 0 0 -3.04773,-3.047733 z"
     fill="#3f3d56"
     id="path137"
     style="stroke-width:0.957326" />
  <rect
     x="587.05896"
     y="91.641922"
     width="18.227484"
     height="29.619659"
     fill="#034aa6"
     id="rect139"
     style="stroke-width:0.957326" />
  <rect
     x="638.23444"
     y="62.326763"
     width="18.227484"
     height="57.309063"
     fill="#034aa6"
     id="rect141"
     style="stroke-width:0.957326" />
  <circle
     cx="596.41394"
     cy="65.867172"
     r="8.6159315"
     fill="#034aa6"
     id="circle143"
     style="stroke-width:0.957326" />
  <circle
     cx="647.15222"
     cy="33.318096"
     r="8.6159315"
     fill="#034aa6"
     id="circle145"
     style="stroke-width:0.957326" />
  <text
     xml:space="preserve"
     id="text2660"
     style="font-style:normal;font-weight:normal;font-size:40px;line-height:1.25;font-family:sans-serif;white-space:pre;shape-inside:url(#rect2662);fill:#034aa6;fill-opacity:1;stroke:none"
     transform="matrix(1.8533428,0,0,1.8533428,894.60574,16.557269)"><tspan
       x="-154.44336"
       y="203.46001"
       id="tspan5186">Bs</tspan></text>
  <metadata
     id="metadata5145">
    <rdf:RDF>
      <cc:Work
         rdf:about="">
        <dc:title>personal_finance</dc:title>
      </cc:Work>
    </rdf:RDF>
  </metadata>
</svg>
