<?xml version="1.0" encoding="UTF-8" standalone="no"?>
<svg
   data-name="Layer 1"
   width="939.03344"
   height="827.5"
   viewBox="0 0 939.03344 827.5"
   version="1.1"
   id="svg195"
   sodipodi:docname="services.svg"
   inkscape:version="1.1.1 (3bf5ae0d25, 2021-09-20)"
   xmlns:inkscape="http://www.inkscape.org/namespaces/inkscape"
   xmlns:sodipodi="http://sodipodi.sourceforge.net/DTD/sodipodi-0.dtd"
   xmlns="http://www.w3.org/2000/svg"
   xmlns:svg="http://www.w3.org/2000/svg"
   xmlns:rdf="http://www.w3.org/1999/02/22-rdf-syntax-ns#"
   xmlns:cc="http://creativecommons.org/ns#"
   xmlns:dc="http://purl.org/dc/elements/1.1/">
  <defs
     id="defs199" />
  <sodipodi:namedview
     id="namedview197"
     pagecolor="#ffffff"
     bordercolor="#666666"
     borderopacity="1.0"
     inkscape:pageshadow="2"
     inkscape:pageopacity="0.0"
     inkscape:pagecheckerboard="0"
     showgrid="false"
     inkscape:zoom="0.84954683"
     inkscape:cx="469.07361"
     inkscape:cy="413.75"
     inkscape:window-width="1280"
     inkscape:window-height="953"
     inkscape:window-x="-8"
     inkscape:window-y="-8"
     inkscape:window-maximized="1"
     inkscape:current-layer="svg195" />
  <title
     id="title105">services</title>
  <path
     d="m 376.67849,661.15128 c -0.18346,-0.29979 -4.50932,-7.52283 -6.00904,-22.52163 -1.3756,-13.76062 -0.49107,-36.95521 11.53796,-69.30975 22.78863,-61.29353 -5.25177,-110.74852 -5.53829,-111.24114 l 1.38341,-0.80256 c 0.0726,0.12486 7.30812,12.73399 11.58245,32.81203 a 143.14808,143.14808 0 0 1 -5.92862,79.78908 c -22.74957,61.18888 -5.8365,90.15522 -5.6632,90.44096 z"
     fill="#3f3d56"
     id="path107"
     style="stroke-width:0.799437" />
  <circle
     cx="367.76758"
     cy="444.08707"
     fill="#03bcff"
     id="circle109"
     r="10.392676"
     style="stroke-width:0.799437" />
  <circle
     cx="400.54446"
     cy="482.46002"
     fill="#3f3d56"
     id="circle111"
     r="10.392676"
     style="stroke-width:0.799437" />
  <circle
     cx="378.16025"
     cy="508.04196"
     fill="#03bcff"
     id="circle113"
     r="10.392676"
     style="stroke-width:0.799437" />
  <circle
     cx="405.34109"
     cy="529.62677"
     fill="#03bcff"
     id="circle115"
     r="10.392676"
     style="stroke-width:0.799437" />
  <circle
     cx="370.16589"
     cy="563.20312"
     fill="#3f3d56"
     id="circle117"
     r="10.392676"
     style="stroke-width:0.799437" />
  <path
     d="m 382.95689,661.53382 c 0,0 -10.39268,-25.58198 20.78534,-44.76845 z"
     fill="#3f3d56"
     id="path119"
     style="stroke-width:0.799437" />
  <path
     d="m 370.1755,661.06977 c 0,0 -4.7298,-27.2043 -41.33767,-26.97113 z"
     fill="#3f3d56"
     id="path121"
     style="stroke-width:0.799437" />
  <rect
     x="130.3349"
     y="365.77429"
     width="1.5988733"
     height="200.59457"
     fill="#3f3d56"
     id="rect123"
     style="stroke-width:0.799437" />
  <rect
     x="179.10054"
     y="334.90811"
     width="1.5988733"
     height="262.32724"
     fill="#3f3d56"
     id="rect125"
     style="stroke-width:0.799437" />
  <rect
     x="227.86618"
     y="326.17014"
     width="1.5988733"
     height="279.80283"
     fill="#3f3d56"
     id="rect127"
     style="stroke-width:0.799437" />
  <rect
     x="276.63181"
     y="334.90811"
     width="1.5988733"
     height="262.32724"
     fill="#3f3d56"
     id="rect129"
     style="stroke-width:0.799437" />
  <rect
     x="325.39746"
     y="365.77429"
     width="1.5988733"
     height="200.59457"
     fill="#3f3d56"
     id="rect131"
     style="stroke-width:0.799437" />
  <rect
     x="105.47234"
     y="398.91891"
     width="246.38614"
     height="1.5988733"
     fill="#3f3d56"
     id="rect133"
     style="stroke-width:0.799437" />
  <rect
     x="88.764198"
     y="465.27213"
     width="279.80283"
     height="1.5988733"
     fill="#3f3d56"
     id="rect135"
     style="stroke-width:0.799437" />
  <rect
     x="105.47234"
     y="531.62537"
     width="246.38614"
     height="1.5988733"
     fill="#3f3d56"
     id="rect137"
     style="stroke-width:0.799437" />
  <circle
     cx="610.79633"
     cy="260.61633"
     fill="#03bcff"
     id="circle139"
     r="139.90141"
     style="stroke-width:0.799437" />
  <rect
     x="372.56421"
     y="233.06779"
     width="1.5988733"
     height="200.59457"
     fill="#3f3d56"
     id="rect141"
     style="stroke-width:0.799437" />
  <rect
     x="421.32983"
     y="202.20166"
     width="1.5988733"
     height="262.32724"
     fill="#3f3d56"
     id="rect143"
     style="stroke-width:0.799437" />
  <rect
     x="470.09549"
     y="193.46367"
     width="1.5988733"
     height="279.80283"
     fill="#3f3d56"
     id="rect145"
     style="stroke-width:0.799437" />
  <rect
     x="518.86115"
     y="202.20166"
     width="1.5988733"
     height="262.32724"
     fill="#3f3d56"
     id="rect147"
     style="stroke-width:0.799437" />
  <rect
     x="567.62671"
     y="233.06779"
     width="1.5988733"
     height="200.59457"
     fill="#3f3d56"
     id="rect149"
     style="stroke-width:0.799437" />
  <rect
     x="347.70163"
     y="266.2124"
     width="246.38614"
     height="1.5988733"
     fill="#3f3d56"
     id="rect151"
     style="stroke-width:0.799437" />
  <rect
     x="330.9935"
     y="332.56564"
     width="279.80283"
     height="1.5988733"
     fill="#3f3d56"
     id="rect153"
     style="stroke-width:0.799437" />
  <rect
     x="347.70163"
     y="398.91891"
     width="246.38614"
     height="1.5988733"
     fill="#3f3d56"
     id="rect155"
     style="stroke-width:0.799437" />
  <path
     d="m 579.03128,26.443821 h -1e-4 c -38.48445,0 -69.68227,34.622713 -69.68227,77.331989 v 54.26256 h 16.68869 l 9.6618,-20.10472 -2.41547,20.10472 h 107.26845 l 8.78347,-18.27702 -2.19585,18.27702 h 12.07727 v -42.60582 c 2e-5,-49.14707 -35.90048,-88.988729 -80.18599,-88.988729 z"
     fill="#2f2e41"
     id="path157"
     style="stroke-width:0.799437" />
  <path
     d="m 545.3956,123.97139 c 0,0 21.74937,50.74853 -7.24979,60.89823 l 28.99916,95.69722 49.29856,-2.89991 13.04962,-31.89908 -2.89991,-47.84861 -4.34987,-31.89907 c 0,0 -30.44912,7.2498 -27.54921,-46.39865 z"
     fill="#ffb8b8"
     id="path159"
     style="stroke-width:0.799437" />
  <path
     d="m 533.79593,183.41967 c 0,0 -47.84861,-4.34987 -43.49873,30.44911 4.34988,34.79898 8.69974,42.04876 8.69974,42.04876 l 4.34988,52.1985 -26.0992,15.94956 h -24.64933 c 0,0 -75.3978,17.39949 -37.6989,36.24894 37.69889,18.84946 50.74852,-14.49958 50.74852,-14.49958 0,0 69.59799,0 73.94789,-11.59966 4.34991,-11.59965 -5.79987,-150.79563 -5.79987,-150.79563 z"
     fill="#ffb8b8"
     id="path161"
     style="stroke-width:0.799437" />
  <path
     d="m 626.59324,168.92008 c 0,0 44.94869,-15.94956 47.84861,18.84946 2.89991,34.79901 2.89991,37.69891 2.89991,37.69891 l 8.69974,49.29856 c 0,0 17.3995,43.49873 17.3995,56.54835 0,13.04962 13.04962,53.64843 13.04962,53.64843 0,0 17.39949,56.54836 -1.44996,55.0984 -18.84945,-1.44995 -21.74936,-60.89818 -21.74936,-60.89818 l -39.14886,-78.29773 -11.59967,-47.84862 z"
     fill="#ffb8b8"
     id="path163"
     style="stroke-width:0.799437" />
  <path
     d="m 541.04571,177.61984 h -11.59965 l -1.44996,60.89823 c 0,0 -18.84944,26.0992 4.34988,49.29856 l 5.79983,37.6989 105.84692,-4.34985 7.24979,-39.14887 c 0,0 14.49958,-31.89906 -5.79983,-60.89822 l -18.84945,-59.44828 h -10.14971 c 0,0 23.50769,86.67573 -26.09921,88.44744 -40.59885,1.44994 -49.29861,-72.49791 -49.29861,-72.49791 z"
     fill="#ffffff"
     id="path165"
     style="stroke-width:0.799437" />
  <path
     d="m 709.42281,537.68509 a 364.08292,364.08292 0 0 1 -117.02153,87.51433 c -0.016,-72.55686 0.83941,-131.49134 0.83941,-131.49134 0,0 -6.15567,62.27612 -13.97415,137.35122 A 361.68938,361.68938 0 0 1 438.118,659.53523 c -0.86338,0 -1.72678,0 -2.59017,-0.016 39.89189,-143.339 98.08288,-307.62323 99.68975,-312.15603 a 1.010336,1.010336 0 0 0 0.032,-0.096 l 3.50952,-11.70376 1.49495,-4.98049 1.5669,-5.22032 2.12649,-7.099 94.2456,-2.89396 2.63813,5.92382 8.96169,20.16979 a 7.7809169,7.7809169 0 0 1 2.19844,1.03127 c 16.96406,11.13616 38.349,96.13226 57.43153,195.19045 z"
     fill="#2f2e41"
     id="path167"
     style="stroke-width:0.799437" />
  <path
     d="m 648.34261,303.76617 -114.54668,4.34987 c 0,0 -5.22789,39.14886 0,39.14886 1.44997,0 120.34651,10.1497 118.89655,-7.24979 -1.44997,-17.3995 -4.34987,-36.24894 -4.34987,-36.24894 z"
     fill="#3f3d56"
     id="path169"
     style="stroke-width:0.799437" />
  <circle
     cx="567.80573"
     cy="99.837692"
     fill="#ffb8b8"
     id="circle171"
     r="40.740509"
     style="stroke-width:0.799437" />
  <path
     d="M 598.84068,47.746217 C 591.84425,38.737502 581.52506,33.031443 570.00557,33.031443 h -1.36807 c -26.37733,0 -47.76025,23.868427 -47.76025,53.311679 v 1.12e-4 h 8.83834 l 1.42737,-10.864639 2.09282,10.864639 h 52.41971 l 4.39178,-9.191682 -1.09797,9.191682 h 10.31245 q 7.21823,35.847596 -20.74282,71.695176 h 17.56702 l 8.78346,-18.38338 -2.19584,18.38338 h 33.48704 l 6.58762,-42.28188 c 0,-31.665212 -18.39842,-58.516683 -43.90755,-68.010313 z"
     fill="#2f2e41"
     id="path173"
     style="stroke-width:0.799437" />
  <circle
     cx="608.46875"
     cy="26.099239"
     fill="#2f2e41"
     id="circle175"
     r="26.099239"
     style="stroke-width:0.799437" />
  <circle
     cx="417.80142"
     cy="333.2688"
     fill="#03bcff"
     id="circle177"
     r="13.121642"
     style="stroke-width:0.799437" />
  <polygon
     points="164.803,272.44 462.437,272.44 522.62,416.88 164.803,416.88 "
     fill="#efefef"
     id="polygon179"
     transform="scale(0.79943664)" />
  <path
     d="M 419.10847,334.14359 H 96.758567 V 192.42986 H 360.6518 l 0.22296,0.54117 z M 98.508118,332.39403 H 416.49443 L 359.48061,194.1794 H 98.508118 Z"
     fill="#3f3d56"
     id="path181"
     style="stroke-width:0.799437" />
  <rect
     x="178.98753"
     y="236.16866"
     width="142.58852"
     height="13.121642"
     fill="#3f3d56"
     id="rect183"
     style="stroke-width:0.799437" />
  <rect
     x="178.98753"
     y="263.28671"
     width="142.58852"
     height="13.121642"
     fill="#3f3d56"
     id="rect185"
     style="stroke-width:0.799437" />
  <rect
     x="178.98753"
     y="290.40479"
     width="142.58852"
     height="13.121642"
     fill="#3f3d56"
     id="rect187"
     style="stroke-width:0.799437" />
  <path
     d="m 9.5932396,468.74662 a 9.5932397,9.5932397 0 1 1 9.5932404,-9.59324 9.604232,9.604232 0 0 1 -9.5932404,9.59324 z m 0,-17.58761 a 7.9943664,7.9943664 0 1 0 7.9943664,7.99437 8.0032721,8.0032721 0 0 0 -7.9943664,-7.99437 z"
     fill="#2f2e41"
     id="path189"
     style="stroke-width:0.799437" />
  <path
     d="m 346.81771,107.63295 h -15.7818 V 91.851184 h 15.7818 z m -14.56781,-1.21398 h 13.35382 V 93.065177 H 332.2499 Z"
     fill="#3f3d56"
     id="path191"
     style="stroke-width:0.799437" />
  <path
     d="M 48.34314,110.89475 37.578647,99.353913 49.119482,88.589427 59.883976,100.13024 Z m -9.048654,-11.481118 9.108412,9.765328 9.76532,-9.10842 -9.108454,-9.765321 z"
     fill="#2f2e41"
     id="path193"
     style="stroke-width:0.799437" />
  <metadata
     id="metadata281">
    <rdf:RDF>
      <cc:Work
         rdf:about="">
        <dc:title>services</dc:title>
      </cc:Work>
    </rdf:RDF>
  </metadata>
</svg>
