<?xml version="1.0" encoding="UTF-8" standalone="no"?>
<svg
   data-name="Layer 1"
   width="1099"
   height="797.68034"
   viewBox="0 0 1099 797.68034"
   version="1.1"
   id="svg263"
   sodipodi:docname="transfer_money.svg"
   inkscape:version="1.1.1 (3bf5ae0d25, 2021-09-20)"
   xmlns:inkscape="http://www.inkscape.org/namespaces/inkscape"
   xmlns:sodipodi="http://sodipodi.sourceforge.net/DTD/sodipodi-0.dtd"
   xmlns="http://www.w3.org/2000/svg"
   xmlns:svg="http://www.w3.org/2000/svg"
   xmlns:rdf="http://www.w3.org/1999/02/22-rdf-syntax-ns#"
   xmlns:cc="http://creativecommons.org/ns#"
   xmlns:dc="http://purl.org/dc/elements/1.1/">
  <defs
     id="defs267" />
  <sodipodi:namedview
     id="namedview265"
     pagecolor="#ffffff"
     bordercolor="#666666"
     borderopacity="1.0"
     inkscape:pageshadow="2"
     inkscape:pageopacity="0.0"
     inkscape:pagecheckerboard="0"
     showgrid="false"
     inkscape:zoom="0.88130539"
     inkscape:cx="549.75268"
     inkscape:cy="398.84018"
     inkscape:window-width="1280"
     inkscape:window-height="953"
     inkscape:window-x="-8"
     inkscape:window-y="-8"
     inkscape:window-maximized="1"
     inkscape:current-layer="svg263" />
  <title
     id="title139">transfer money</title>
  <circle
     cx="321.59323"
     cy="254.68001"
     r="254.68001"
     fill="#f2f2f2"
     id="circle141"
     style="stroke-width:0.682788" />
  <ellipse
     cx="101.05264"
     cy="528.47821"
     rx="101.05264"
     ry="16.168421"
     fill="#f2f2f2"
     id="ellipse143"
     style="stroke-width:0.682788" />
  <ellipse
     cx="594.02563"
     cy="503.19379"
     rx="156.35846"
     ry="25.017353"
     fill="#f2f2f2"
     id="ellipse145"
     style="stroke-width:0.682788" />
  <path
     d="m 559.28558,262.7264 c 0,0 1.33119,4.43728 -6.21219,8.43083 -7.54338,3.99355 -9.76203,19.08032 -0.88746,23.5176 8.87457,4.43729 11.53694,10.20576 7.09963,14.19931 -4.4373,3.99356 -12.42439,14.64308 -1.77491,17.30541 10.64948,2.66233 11.98066,7.98711 8.87456,10.20575 -3.1061,2.21864 7.09963,-3.99355 7.09963,-3.99355 0,0 1.77492,10.64944 11.09321,7.98711 9.3183,-2.66234 35.49827,-53.24741 22.18642,-60.34706 -13.31186,-7.09965 -47.47889,-17.3054 -47.47889,-17.3054 z"
     fill="#2f2e41"
     id="path147"
     style="stroke-width:0.682788" />
  <path
     d="m 575.36849,305.57286 c 0,0 4.60279,16.1098 -3.45211,17.2605 a 31.443974,31.443974 0 0 0 -13.8084,5.7535 l 14.9591,19.56188 h 27.61681 l 17.26051,-17.26051 c 0,0 -23.01401,-17.2605 -18.41121,-27.61681 4.60281,-10.3563 -24.1647,2.30144 -24.1647,2.30144 z"
     fill="#ffb9b9"
     id="path149"
     style="stroke-width:0.682788" />
  <path
     d="m 575.36849,305.57286 c 0,0 4.60279,16.1098 -3.45211,17.2605 a 31.443974,31.443974 0 0 0 -13.8084,5.7535 l 14.9591,19.56188 h 27.61681 l 17.26051,-17.26051 c 0,0 -23.01401,-17.2605 -18.41121,-27.61681 4.60281,-10.3563 -24.1647,2.30144 -24.1647,2.30144 z"
     opacity="0.1"
     id="path151"
     style="stroke-width:0.682788" />
  <polygon
     points="891.549,754.261 918.513,755.946 916.828,732.352 861.213,715.904 852.787,740.779 "
     fill="#ffb9b9"
     id="polygon153"
     transform="scale(0.68278805)" />
  <path
     d="m 616.21835,502.34264 c 0,0 0,16.1098 2.3014,16.1098 2.3014,0 33.37031,-3.4521 42.57593,0 9.20561,3.4521 23.01401,-9.2056 16.10981,-16.1098 -6.9042,-6.90421 -18.16603,-17.26051 -25.19283,-14.95911 -7.0268,2.3014 -35.7943,8.0549 -35.7943,8.0549 z"
     fill="#575a89"
     id="path155"
     style="stroke-width:0.682788" />
  <path
     d="m 531.64186,487.38353 c 0,0 -13.8084,27.61681 -4.6028,29.91821 9.2056,2.30141 19.56191,-1.1507 20.71261,-2.3014 1.15069,-1.1507 17.26051,-5.7535 19.56188,-3.4521 2.30136,2.3014 2.30139,-9.2056 2.30139,-9.2056 z"
     fill="#575a89"
     id="path157"
     style="stroke-width:0.682788" />
  <path
     d="m 543.14887,449.41041 c 0,0 -21.86331,29.91821 -5.75351,37.97312 16.10981,8.0549 93.20672,8.0549 98.96025,0 5.75352,-8.05491 8.0549,-33.37031 0,-35.67172 -8.05491,-2.3014 -93.20674,-2.3014 -93.20674,-2.3014 z"
     fill="#2f2e41"
     id="path159"
     style="stroke-width:0.682788" />
  <path
     d="m 543.14887,449.41041 c 0,0 -21.86331,29.91821 -5.75351,37.97312 16.10981,8.0549 93.20672,8.0549 98.96025,0 5.75352,-8.05491 8.0549,-33.37031 0,-35.67172 -8.05491,-2.3014 -93.20674,-2.3014 -93.20674,-2.3014 z"
     opacity="0.2"
     id="path161"
     style="stroke-width:0.682788" />
  <circle
     cx="584.5741"
     cy="287.16165"
     r="26.466114"
     fill="#ffb9b9"
     id="circle163"
     style="stroke-width:0.682788" />
  <path
     d="m 543.14887,328.58686 23.01401,-4.6028 c 0,0 5.7535,18.41121 24.16471,14.95911 18.4112,-3.45211 23.01401,-14.95911 23.01401,-14.95911 0,0 13.8084,5.75351 14.95911,5.75351 1.1507,0 16.1098,5.75349 16.1098,9.2056 0,3.4521 -17.26051,37.97311 -17.26051,37.97311 l 2.3014,62.13781 -85.15186,-2.30141 5.75351,-60.98712 z"
     fill="#03bcff"
     id="path165"
     style="stroke-width:0.682788" />
  <path
     d="m 530.49116,358.50508 c 0,0 -6.9042,60.98712 -2.3014,65.58992 4.60281,4.60281 23.01401,17.26051 23.01401,17.26051 V 427.5471 l -9.2056,-17.2605 9.2056,-40.27452 z"
     fill="#ffb9b9"
     id="path167"
     style="stroke-width:0.682788" />
  <path
     d="m 649.58867,356.77902 c 0,0 -4.02746,62.71318 -4.02746,65.01458 0,2.30141 -10.3563,10.35631 -13.8084,10.35631 -3.4521,0 -5.75351,-5.75351 -5.75351,-5.75351 l 8.05491,-9.2056 -5.7535,-47.17872 z"
     fill="#ffb9b9"
     id="path169"
     style="stroke-width:0.682788" />
  <path
     d="m 638.65701,444.80761 c 0,0 51.78152,-28.76751 52.93222,0 1.15071,28.76751 -26.46611,40.27452 -26.46611,40.27452 0,0 -71.34343,21.39312 -74.22018,13.57329 -2.87675,-7.81982 -8.63025,-20.47749 -4.02746,-21.6282 4.6028,-1.1507 10.35631,-3.4521 12.65771,-1.1507 2.30141,2.3014 31.06891,-17.2605 31.06891,-17.2605 z"
     fill="#2f2e41"
     id="path171"
     style="stroke-width:0.682788" />
  <path
     d="m 662.82172,441.35551 c 0,0 -10.3563,4.6028 -13.80841,8.0549 -3.4521,3.45211 -18.4112,9.20561 -18.4112,9.20561"
     fill="none"
     stroke="#000000"
     stroke-miterlimit="10"
     stroke-width="2"
     opacity="0.2"
     id="path173" />
  <path
     d="m 550.05307,330.88826 -6.9042,-2.3014 c 0,0 -25.31541,26.46612 -17.26051,33.37032 8.05491,6.9042 12.65771,9.2056 14.95911,11.50703 2.30139,2.30142 13.8084,3.4521 13.8084,3.4521 z"
     fill="#03bcff"
     id="path175"
     style="stroke-width:0.682788" />
  <path
     d="m 634.05421,336.64177 10.3563,2.3014 c 0,0 8.05491,17.2605 10.3563,19.56187 2.3014,2.30138 -3.4521,1.1507 -6.9042,5.7535 -3.4521,4.60281 -6.9042,12.65771 -13.8084,12.65771 -6.90421,0 -16.10981,-11.50703 -16.10981,-11.50703 z"
     fill="#03bcff"
     id="path177"
     style="stroke-width:0.682788" />
  <path
     d="m 545.45027,455.16391 c 0,0 -43.72662,-31.0689 -58.68572,-8.05489 -14.9591,23.014 64.43922,54.08291 75.94623,58.68572 11.507,4.6028 21.86331,9.2056 21.86331,9.2056 0,0 10.3563,-25.31541 10.3563,-29.91821 0,-4.6028 -8.05491,-4.6028 -10.3563,-4.6028 -2.3014,0 -12.65771,-2.3014 -14.95911,-5.7535 -2.30141,-3.45211 -24.16471,-19.56192 -24.16471,-19.56192 z"
     fill="#2f2e41"
     id="path179"
     style="stroke-width:0.682788" />
  <path
     d="m 521.28556,447.10902 c 0,0 11.50703,9.2056 21.86331,11.50702 10.35628,2.30143 13.80841,8.05491 13.80841,8.05491"
     fill="none"
     stroke="#000000"
     stroke-miterlimit="10"
     stroke-width="2"
     opacity="0.2"
     id="path181" />
  <path
     d="m 537.51261,403.84313 0.91926,48.72114 a 6.099175,6.099175 0 0 0 6.16662,5.98374 l 90.66727,-1.01872 a 6.099175,6.099175 0 0 0 6.02053,-5.7475 l 2.75207,-47.70241 a 6.0991886,6.0991886 0 0 0 -6.08906,-6.45048 h -94.33859 a 6.0991818,6.0991818 0 0 0 -6.0981,6.21423 z"
     fill="#575a89"
     id="path183"
     style="stroke-width:0.682788" />
  <path
     d="m 585.98807,253.91509 c 0,0 1.47469,4.91563 -6.88187,9.33969 -8.35655,4.42406 -10.81437,21.13718 -0.98312,26.0528 9.83124,4.91562 12.78062,11.30593 7.86499,15.72999 -4.91562,4.42406 -13.76374,16.22156 -1.96624,19.17093 11.7975,2.94937 13.27217,8.84812 9.83124,11.30593 -3.44094,2.45781 7.86503,-4.42406 7.86503,-4.42406 0,0 1.96625,11.79749 12.28905,8.84812 10.32281,-2.94937 20.62244,-56.56212 9.11544,-70.37052 -10.69951,-12.83937 -37.13452,-15.65288 -37.13452,-15.65288 z"
     fill="#2f2e41"
     id="path185"
     style="stroke-width:0.682788" />
  <path
     d="m 582.84804,248.85536 c 0.002,-7.20164 21.5479,-2.02693 30.78555,8.02817 6.39683,6.963 16.11296,17.43865 7.97114,24.82291 -8.14181,7.38427 13.95577,17.0643 19.88216,19.99917 5.9264,2.93488 17.62767,11.90987 7.06228,17.93084 -10.56539,6.02097 -10.39506,12.09888 -6.41889,13.53793 3.97617,1.43905 -8.76655,-2.13967 -8.76655,-2.13967 0,0 1.2874,11.89075 -9.44834,11.8338 -10.73573,-0.0569 -41.53569,-59.05738 -34.17783,-75.45695 6.84151,-15.24865 -6.88952,-18.5562 -6.88952,-18.5562 z"
     fill="#2f2e41"
     id="path187"
     style="stroke-width:0.682788" />
  <path
     d="m 587.51489,247.27715 c -28.81218,-1.73497 -31.70382,19.95304 -31.70382,19.95304 0.19918,12.55088 20.13051,6.43539 25.66629,8.3064 6.67862,-4.80437 19.55208,-13.89479 28.75881,-20.38216 a 43.543968,43.543968 0 0 0 -22.72128,-7.87728 z"
     fill="#2f2e41"
     id="path189"
     style="stroke-width:0.682788" />
  <path
     d="m 579.30636,385.67187 c 0,0 -25.84492,-121.12621 -187.61173,-208.99345"
     fill="none"
     stroke="#3f3d56"
     stroke-miterlimit="10"
     stroke-width="1.36558"
     id="path191" />
  <polygon
     points="583.905,256.836 574.322,259.16 577.341,268.549 575.435,269.16 571.76,257.724 583.431,254.891 "
     fill="#3f3d56"
     id="polygon193"
     transform="scale(0.68278805)" />
  <path
     d="m 46.752765,509.43601 c 0,15.34127 -9.119618,20.69787 -20.370217,20.69787 q -0.390937,0 -0.780638,-0.009 c -0.521275,-0.0112 -1.037579,-0.036 -1.547669,-0.0707 -10.153448,-0.71859 -18.041903,-6.35072 -18.041903,-20.61843 0,-14.76539 18.868479,-33.39681 20.285811,-34.77568 l 0.0025,-0.002 c 0.05462,-0.0534 0.08194,-0.0794 0.08194,-0.0794 0,0 20.370196,19.51634 20.370196,34.8576 z"
     fill="#03bcff"
     id="path195"
     style="stroke-width:0.682788" />
  <path
     d="m 25.640371,527.78695 7.450331,-10.41033 -7.468951,11.55339 -0.01984,1.19518 c -0.521275,-0.0112 -1.037579,-0.036 -1.547669,-0.0707 l 0.803006,-15.3487 -0.0062,-0.11916 0.01366,-0.0223 0.07571,-1.44961 -7.48759,-11.58197 7.511153,10.49476 0.0174,0.3078 0.606882,-11.59686 -6.41028,-11.96796 6.488473,9.93252 0.631716,-24.04263 0.0025,-0.0819 v 0.0794 l -0.10547,18.95916 6.381753,-7.51613 -6.407836,9.14936 -0.168785,10.38305 5.958534,-9.9648 -5.983353,11.49261 -0.09432,5.77236 8.650474,-13.86932 -8.682742,15.88363 z"
     fill="#3f3d56"
     id="path197"
     style="stroke-width:0.682788" />
  <path
     d="m 143.91345,505.4615 4.35742,-3.23725 c 0,0 2.88433,16.11147 -0.33422,18.52541 -3.21855,2.41394 -15.28814,6.43711 -15.28814,11.26495 0,4.82784 -27.35774,11.26495 -28.16238,4.02319 -0.80463,-7.24175 2.41392,-11.26494 2.41392,-11.26494 0,0 12.87423,-12.87423 14.4835,-15.28814 1.60928,-2.41392 5.63248,-7.24176 5.63248,-7.24176 z"
     fill="#2f2e41"
     id="path199"
     style="stroke-width:0.682788" />
  <path
     d="m 79.542323,305.10635 c 0,0 0.12071,0.70809 0.329828,2.00354 0.193229,1.15064 0.458697,2.77602 0.780577,4.77957 3.379541,20.62293 13.236372,81.33293 12.568455,83.33648 -0.804639,2.41391 -6.437108,11.26494 0,13.67887 0.619589,0.23332 1.287403,0.98968 2.003546,2.18053 a 46.767103,46.767103 0 0 1 3.403609,8.03034 c 3.838142,11.13617 7.941882,28.95895 10.315532,41.30208 1.03801,5.42331 1.746,9.78445 1.95521,12.06959 a 6.5628359,6.5628359 0 0 1 0.0242,1.59322 c -0.80464,3.21856 4.82783,14.48351 7.24175,17.70206 2.41392,3.21855 6.43711,6.43711 5.63247,9.65567 -0.80465,3.21856 20.11598,12.06959 22.5299,6.43712 2.41391,-5.63247 2.41392,-8.85104 3.21856,-10.46031 0.80463,-1.60928 1.60927,-12.87423 -2.41392,-14.48351 -4.02319,-1.60928 -1.60928,-29.77165 -5.63247,-35.40412 -1.34369,-1.87482 -3.39556,-8.22343 -5.54398,-15.85946 -0.84481,-2.99323 -1.69778,-6.17962 -2.53464,-9.37399 -3.39555,-13.0915 -6.40489,-26.26345 -6.40489,-26.26345 l 0.80462,-94.14279 -44.255149,-5.63246 -1.134472,2.50241 -2.26108,4.96462 z"
     fill="#2f2e41"
     id="path201"
     style="stroke-width:0.682788" />
  <path
     d="m 77.128421,459.59705 c 0,0 -6.437114,-6.43712 -9.655667,0 -3.218554,6.43711 -6.437114,31.38093 -12.06959,37.0134 -5.632476,5.63246 -12.874222,33.79484 -4.827831,35.40412 8.046391,1.60928 16.897421,-2.41392 17.702059,-7.24175 0.804638,-4.82783 17.702011,-29.77163 17.702011,-32.18554 0,-2.41392 -11.264945,-11.26496 -11.264945,-11.26496 z"
     fill="#2f2e41"
     id="path203"
     style="stroke-width:0.682788" />
  <path
     d="m 176.09901,260.8512 c 0,0 -10.46031,94.14278 -12.87422,102.9938 -2.41391,8.85102 -15.28814,42.64587 -19.31134,48.27835 -4.0232,5.63247 -29.77165,51.4969 -32.9902,53.91082 -3.21856,2.41391 -9.65568,8.85103 -9.65568,8.85103 0,0 -12.069579,12.06959 -13.678856,14.4835 -1.609277,2.41392 -15.288144,-4.82783 -16.092782,-9.65567 -0.804638,-4.82783 0.804638,-12.87423 1.609277,-16.09278 0.804638,-3.21855 -1.609277,-8.04639 0.804638,-10.46031 2.413916,-2.41392 14.483505,-14.48351 14.483505,-20.11598 0,-5.63246 20.920628,-38.62267 28.967008,-45.86443 8.04639,-7.24175 6.43711,-19.31134 6.43711,-19.31134 V 318.78522 L 79.542323,305.10635 c 0,0 2.413915,-38.62267 8.046391,-38.62267 5.632476,0 79.659266,-12.87423 88.510296,-5.63248 z"
     fill="#2f2e41"
     id="path205"
     style="stroke-width:0.682788" />
  <circle
     cx="110.92325"
     cy="99.923378"
     r="26.553095"
     fill="#9f616a"
     id="circle207"
     style="stroke-width:0.682788" />
  <path
     d="m 119.77428,120.84399 c 0,0 3.21855,12.06959 7.24175,15.28815 4.0232,3.21856 -10.46031,16.89742 -10.46031,16.89742 l -27.357729,1.60928 -4.827838,-15.28815 c 0,0 8.85103,-17.70206 6.437115,-28.96701 -2.413916,-11.26495 28.967012,10.46031 28.967012,10.46031 z"
     fill="#9f616a"
     id="path209"
     style="stroke-width:0.682788" />
  <path
     d="m 131.03922,134.52285 c 0,0 -7.24175,0.80464 -8.85103,3.21857 -1.60927,2.41392 -12.87422,9.65566 -21.72525,8.04639 -8.851041,-1.60928 -14.48351,-4.0232 -16.092787,-3.21856 -1.609276,0.80463 -4.82783,17.70206 -4.82783,17.70206 l 8.851029,25.74845 -1.609277,70.80824 -2.413922,19.31134 c 0,0 -4.82783,-6.43711 14.483505,-2.41391 19.311332,4.0232 44.255152,-3.21856 52.301562,-4.0232 8.04641,-0.80464 21.72526,-3.21855 22.5299,-8.04639 0.80464,-4.82784 -2.41392,-22.5299 -2.41392,-22.5299 l -12.87422,-53.91082 -8.04639,-28.96701 z"
     fill="#03bcff"
     id="path211"
     style="stroke-width:0.682788" />
  <path
     d="m 123.42822,130.89119 c 0,0 6.80636,-3.61009 9.22029,-0.39153 2.41392,3.21856 32.9902,8.04639 32.9902,10.46032 0,2.41392 6.43711,67.58968 4.82784,73.22219 -1.60928,5.6325 3.21855,12.06958 3.21855,12.06958 l 5.63247,24.13918 c 0,0 15.28815,45.86443 8.85103,47.47371 -6.43711,1.60927 -12.06959,0 -14.4835,0 -2.41392,0 -1.60928,-30.57629 -8.04639,-38.62268 -6.43712,-8.04639 -15.28815,-28.16237 -16.89742,-32.18557 -1.60928,-4.02319 -21.72526,-59.54329 -20.92063,-65.98041 0.80463,-6.43711 -4.39244,-30.18479 -4.39244,-30.18479 z"
     fill="#d0cde1"
     id="path213"
     style="stroke-width:0.682788" />
  <path
     d="m 90.002629,134.52285 c 0,0 -6.437114,0 -7.241752,1.60929 -0.804639,1.60928 -8.85103,12.06958 -12.06959,14.48351 -3.218561,2.41393 -14.483492,12.87421 -14.483492,15.28813 0,2.41392 23.334535,20.11598 23.334535,20.11598 0,0 9.655668,47.47371 4.82783,63.56649 -4.827837,16.09278 -12.069583,54.71547 -8.851029,57.12938 3.218554,2.41392 10.460313,3.21856 10.460313,0 0,-3.21855 4.827837,-37.81804 8.851036,-45.05979 4.023199,-7.24175 16.09278,-53.10618 11.26494,-65.98041 -4.82783,-12.87423 -16.092791,-61.15258 -16.092791,-61.15258 z"
     fill="#d0cde1"
     id="path215"
     style="stroke-width:0.682788" />
  <path
     d="m 196.21499,214.18213 c 0,0 0.80464,24.94381 -8.04639,37.81804 -8.85103,12.87423 -14.4835,27.35773 -14.4835,27.35773 0,0 -14.48351,-4.02319 -16.89742,-8.85103 -2.41392,-4.82784 -17.70207,-0.80464 -17.70207,-2.41392 0,-1.60927 18.50671,-9.65566 20.11598,-11.26495 1.60928,-1.60928 7.24176,-1.60927 10.46032,-4.82783 3.21856,-3.21855 4.0232,-10.46031 4.0232,-10.46031 l 3.21855,-20.92063 z"
     fill="#9f616a"
     id="path217"
     style="stroke-width:0.682788" />
  <path
     d="m 129.21161,83.551293 c 2.04277,-0.185555 4.14956,-0.389729 5.95493,-1.363357 4.04523,-2.18157 5.11793,-8.394108 2.03848,-11.80587 a 15.256216,15.256216 0 0 0 -2.82888,-2.274654 l -6.1163,-4.163082 c -2.70511,-1.841233 -5.47417,-3.712646 -8.62921,-4.580634 -2.85368,-0.785062 -5.86764,-0.704391 -8.82163,-0.520776 -5.73447,0.356416 -11.504449,1.092652 -16.898078,3.072547 -5.39363,1.979894 -10.424945,5.292215 -13.691581,10.018774 -5.178626,7.493053 -5.249807,17.598767 -2.397576,26.249104 2.852231,8.650335 8.270189,16.183035 13.608717,23.563015 l 2.770017,-13.51565 c 0.246725,-1.20382 0.565785,-2.5232 1.566998,-3.23567 2.488449,-1.77079 5.532403,1.865 8.586503,1.84143 1.96239,-0.0152 3.60994,-1.62922 4.35363,-3.44529 0.74368,-1.81607 0.79265,-3.827224 0.96471,-5.782108 0.36443,-4.14057 1.81168,-9.901833 5.73282,-12.185383 3.65388,-2.127882 9.69936,-1.499362 13.80645,-1.872396 z"
     fill="#2f2e41"
     id="path219"
     style="stroke-width:0.682788" />
  <path
     d="m 127.72206,305.75577 c 0,0 -2.71763,78.60754 -4.32691,81.02146 -1.60928,2.41392 0,-81.26856 0,-81.26856 z"
     opacity="0.1"
     id="path221"
     style="stroke-width:0.682788" />
  <path
     d="m 159.20159,140.95997 h 6.43712 c 0,0 27.35773,37.0134 24.13917,39.42732 -3.21856,2.41391 0,8.85103 0,8.85103 l 6.43711,12.06958 c 0,0 8.0464,7.24176 5.63248,8.85103 -2.41391,1.60928 -5.63248,8.04639 -5.63248,8.04639 0,0 -16.09278,-2.41391 -20.92062,7.24176 l -10.43601,-13.17483 z"
     fill="#d0cde1"
     id="path223"
     style="stroke-width:0.682788" />
  <rect
     x="67.008522"
     y="202.92517"
     width="23.897581"
     height="44.533928"
     transform="rotate(-22.43787)"
     fill="#2f2e41"
     id="rect225"
     style="stroke-width:0.682788" />
  <ellipse
     cx="79.298775"
     cy="219.8606"
     rx="4.7795162"
     ry="4.3906684"
     transform="rotate(-22.43785)"
     fill="#03bcff"
     id="ellipse227"
     style="stroke-width:0.682788" />
  <path
     d="m 143.10881,205.3311 c 0,0 -57.934018,48.27835 -67.589686,32.99021 -9.655668,-15.28815 10.460313,-28.16238 10.460313,-28.16238 0,0 17.702063,0.80464 37.818043,-12.06958 l 20.11598,-8.85103 c 0,0 18.3643,-26.21838 24.6223,-16.23465 6.258,9.98373 -10.68229,27.35958 -25.42695,32.32743 z"
     fill="#9f616a"
     id="path229"
     style="stroke-width:0.682788" />
  <path
     d="m 65.058818,162.68523 -8.851023,3.21855 v 24.13918 l -3.21856,4.82783 c 0,0 0.804638,9.65567 3.21856,12.06959 2.413922,2.41392 7.241746,1.60928 5.632469,7.24175 a 30.498094,30.498094 0 0 0 -0.804638,11.26495 c 0,0 14.483505,18.5067 15.288143,16.09278 0.804639,-2.41392 12.06959,-32.18556 13.678867,-32.18556 1.609277,0 -16.092782,-46.66907 -16.092782,-46.66907 z"
     fill="#d0cde1"
     id="path231"
     style="stroke-width:0.682788" />
  <path
     d="m 170.86886,284.58805 c 0,0 8.31978,-8.04639 4.1599,-8.44871 -4.15988,-0.40231 -18.6434,-8.44871 -21.05732,-4.42551 -2.41392,4.02319 16.89742,12.87422 16.89742,12.87422 z"
     fill="#2f2e41"
     id="path233"
     style="stroke-width:0.682788" />
  <ellipse
     cx="329.10385"
     cy="124.95044"
     rx="11.607397"
     ry="6.1450925"
     fill="#57b894"
     id="ellipse235"
     style="stroke-width:0.682788" />
  <path
     d="m 373.48507,145.43409 q -39.26032,-14.82779 -78.52063,0 v -32.09104 a 135.90064,135.90064 0 0 1 78.52063,0 z"
     fill="none"
     stroke="#3f3d56"
     stroke-miterlimit="10"
     stroke-width="1.36558"
     id="path237" />
  <path
     d="m 362.56046,138.79748 q -28.33571,-10.7018 -56.67141,0 v -23.16136 a 98.084853,98.084853 0 0 1 56.67141,0 z"
     fill="none"
     stroke="#3f3d56"
     stroke-miterlimit="10"
     stroke-width="1.36558"
     id="path239" />
  <ellipse
     cx="333.20056"
     cy="122.21929"
     rx="11.607397"
     ry="6.1450925"
     fill="none"
     stroke="#3f3d56"
     stroke-miterlimit="10"
     stroke-width="1.36558"
     id="ellipse241" />
  <ellipse
     cx="296.9071"
     cy="227.52859"
     rx="11.607397"
     ry="6.1450925"
     transform="rotate(-11.53546)"
     fill="#57b894"
     id="ellipse243"
     style="stroke-width:0.682788" />
  <path
     d="m 383.99078,174.75375 q -41.43245,-6.67724 -76.93459,15.70211 l -6.41739,-31.44283 a 135.90065,135.90065 0 0 1 76.9346,-15.70211 z"
     fill="none"
     stroke="#3f3d56"
     stroke-miterlimit="10"
     stroke-width="1.36558"
     id="path245" />
  <path
     d="m 371.95972,170.43584 q -29.90343,-4.81923 -55.52671,11.33283 l -4.6317,-22.69353 a 98.084825,98.084825 0 0 1 55.52671,-11.33283 z"
     fill="none"
     stroke="#3f3d56"
     stroke-miterlimit="10"
     stroke-width="1.36558"
     id="path247" />
  <ellipse
     cx="301.00385"
     cy="224.79745"
     rx="11.607397"
     ry="6.1450925"
     transform="rotate(-11.53546)"
     fill="none"
     stroke="#3f3d56"
     stroke-miterlimit="10"
     stroke-width="1.36558"
     id="ellipse249" />
  <ellipse
     cx="-178.08098"
     cy="347.20239"
     rx="6.1450925"
     ry="11.607397"
     transform="rotate(-86.0194)"
     fill="#57b894"
     id="ellipse251"
     style="stroke-width:0.682788" />
  <path
     d="m 376.85489,225.26884 q -38.13626,-17.51742 -78.33121,-5.4508 l 2.22772,-32.01363 a 135.90073,135.90073 0 0 1 78.33121,5.45081 z"
     fill="none"
     stroke="#3f3d56"
     stroke-miterlimit="10"
     stroke-width="1.36558"
     id="path253" />
  <path
     d="m 366.41734,217.88988 q -27.52443,-12.64299 -56.53466,-3.93406 l 1.60783,-23.10549 a 98.084825,98.084825 0 0 1 56.5347,3.93406 z"
     fill="none"
     stroke="#3f3d56"
     stroke-miterlimit="10"
     stroke-width="1.36558"
     id="path255" />
  <ellipse
     cx="-175.34979"
     cy="351.29913"
     rx="6.1450925"
     ry="11.607397"
     transform="rotate(-86.0194)"
     fill="none"
     stroke="#3f3d56"
     stroke-miterlimit="10"
     stroke-width="1.36558"
     id="ellipse257" />
  <path
     d="m 283.30366,146.17915 c 0,0 -50.18228,-6.86525 -86.01892,14.13634"
     fill="none"
     stroke="#3f3d56"
     stroke-miterlimit="10"
     stroke-width="1.36558"
     id="path259" />
  <polygon
     points="292.617,225.063 289.633,234.462 299.227,236.751 298.76,238.698 287.077,235.907 290.708,224.459 "
     fill="#3f3d56"
     id="polygon261"
     transform="scale(0.68278805)" />
  <metadata
     id="metadata349">
    <rdf:RDF>
      <cc:Work
         rdf:about="">
        <dc:title>transfer money</dc:title>
      </cc:Work>
    </rdf:RDF>
  </metadata>
</svg>
